<?xml version="1.0" standalone="no"?>
<!DOCTYPE svg PUBLIC "-//W3C//DTD SVG 1.1//EN" "http://www.w3.org/Graphics/SVG/1.1/DTD/svg11.dtd" >
<svg xmlns="http://www.w3.org/2000/svg" xmlns:xlink="http://www.w3.org/1999/xlink" version="1.1">
<metadata>
Created by FontForge 20230101 at Sat Sep  7 23:21:20 2002
 By Unknown
Copyright \251 2002, m klein 8.2002. All rights reserved.
</metadata>
<defs>
<font id="MKOCR" horiz-adv-x="1030" >
  <font-face 
    font-family="MKOCR"
    font-weight="500"
    font-stretch="normal"
    units-per-em="1000"
    panose-1="2 0 6 6 2 0 0 2 0 3"
    ascent="800"
    descent="-200"
    x-height="466"
    cap-height="672.5"
    bbox="-32.08 -206.889 643 815.2"
    underline-thickness="50"
    underline-position="-125"
    unicode-range="U+0005-2122"
  />
<missing-glyph horiz-adv-x="500" 
 />
    <glyph glyph-name=".notdef" horiz-adv-x="500" 
 />
    <glyph glyph-name="breve" horiz-adv-x="377" 
d="M335 628q-2 18 -17.5 30t-33.5 11q-11 -1 -19 -8t-12 -17q-2 -9 -8 -17t-14 -13q-14 -3 -28.5 -5t-28.5 -2q-11 -2 -22.5 -0.5t-22.5 1.5q-11 2 -18.5 9t-12.5 16q-5 11 -13 21t-22 12q-18 2 -33 -9t-17 -30q1 -29 19 -52.5t44 -34.5q23 -11 49 -13.5t50 0.5
q26 -3 51.5 0t48.5 13q27 11 40.5 36.5t19.5 51.5z" />
    <glyph glyph-name="dotaccent" horiz-adv-x="165" 
d="M122 592q1 9 0 18q0 10 -3 20.5t-9 19.5t-14.5 14t-20.5 4q-11 0 -19.5 -5.5t-14 -14t-8.5 -19t-3 -20.5q-1 -5 -0.5 -9t-0.5 -9q0 -10 3 -21t9 -20t15 -14t21 -2q11 -1 19 4.5t13 14.5t8 19.5t5 19.5z" />
    <glyph glyph-name="ring" horiz-adv-x="408" 
d="M355 531q4 14 2 28l-4 28q-5 34 -31 57t-59 25q-37 -1 -73 0t-73 -2q-34 -2 -61.5 -25t-32.5 -57q-1 -14 2 -27.5t3 -27.5q0 -18 8 -32.5t20.5 -25t28.5 -17.5t32 -8q37 -3 73 1t73 2q17 -1 32.5 5.5t27.5 17.5t20.5 26t11.5 32zM268 527q-39 1 -77.5 -2t-77.5 -2
q2 16 -1 31t-3 30q39 0 78 2.5t79 0.5q2 -15 3 -30t-1 -30z" />
    <glyph glyph-name="hungarumlaut" unicode="&#xa;" horiz-adv-x="412" 
d="M374 622q-2 20 -19.5 31.5t-34.5 16.5q-16 0 -30 -12q-14 -9 -27.5 -18.5t-27.5 -19.5q-11 -8 -20.5 -18t-11.5 -24q-2 -19 11 -33.5t31 -15.5q9 -1 17.5 3.5t15.5 10.5q16 9 31 19.5t32 18.5q11 8 23 16.5t10 24.5zM176 624q0 17 -13 31t-31 16q-18 -3 -36 -14
q-15 -9 -30.5 -18.5t-29.5 -19.5q-11 -7 -21 -17t-9 -24q4 -19 18.5 -31.5t32.5 -14.5q19 0 31 12q14 10 28.5 19t28.5 19q12 5 22 16.5t9 25.5z" />
    <glyph glyph-name="ogonek" horiz-adv-x="198" 
d="M167 -125q2 14 -9 26t-25 11q-11 1 -22 8.5t-7 20.5q2 18 12 34t21 30q-22 2 -43.5 -1t-43.5 -1q-11 -17 -21 -35.5t-13 -39.5q1 -20 10 -38t23 -31.5t32.5 -21t38.5 -6.5q18 1 33.5 12.5t13.5 31.5z" />
    <glyph glyph-name="caron" horiz-adv-x="355" 
d="M319 622q-4 19 -19.5 30.5t-33.5 15.5q-18 -5 -30 -13q-13 -11 -26.5 -18.5t-26.5 -17.5h-36q-14 10 -28 18.5t-28 17.5q-8 5 -16 8.5t-17 4.5q-18 -2 -31.5 -15.5t-16.5 -31.5q-4 -14 6.5 -24t21.5 -17q16 -8 30.5 -18t29.5 -21q9 -4 17.5 -8.5t19.5 -4.5
q14 -2 27.5 -1.5t27.5 0.5q10 0 18.5 4.5t16.5 10.5q17 9 33 19l32 20q10 8 18 18t11 23z" />
    <glyph glyph-name="dotlessi" unicode="&#xd;" horiz-adv-x="374" 
d="M340 42q2 10 -2.5 18.5t-12.5 13.5q-12 7 -25.5 8.5t-27.5 2.5q-13 -2 -26 -0.5t-26 -0.5q-5 81 -2 160.5t-1 160.5q-1 15 -2 31t-12 28q-12 11 -27 10t-29 -2q-17 -1 -34 -1.5t-34 -2.5q-12 -1 -24.5 -2t-23.5 -6q-8 -9 -15.5 -18.5t-9.5 -21.5q0 -17 14 -31
q14 -5 27 -5h27q14 1 28 1h29q-1 -77 -2.5 -153t5.5 -153q-14 2 -28 1.5t-28 1.5q-12 -2 -24 -1t-23 -4q-8 -7 -14.5 -16t-5.5 -20q0 -10 4.5 -18.5t12.5 -14.5q11 -6 24.5 -8t26.5 -2q47 -9 93.5 -5.5t93.5 7.5q11 -1 24 0t23.5 6t18 13.5t8.5 22.5z" />
    <glyph glyph-name="fraction" horiz-adv-x="500" 
d="M478 664q-2 14 -11 25.5t-23 14.5q-13 -1 -23.5 -9.5t-16.5 -19.5q-45 -91 -97 -178t-106 -173t-107.5 -172t-102.5 -175q-5 -11 -6.5 -23.5t-1.5 -24.5q2 -13 11.5 -23t23.5 -10q14 -2 24 9t15 22q45 91 97.5 178t107.5 172.5t108 172t98 177.5q7 8 8 17.5t2 19.5z" />
    <glyph glyph-name="fi" horiz-adv-x="585" 
d="M445 604v12l-1 1q-1 7 -1.5 14t-2.5 14q-3 8 -8 16.5t-14 11.5q-18 6 -36 6q-9 2 -18.5 -0.5t-17.5 -6.5q-9 -11 -10 -24t-1 -26q-1 -3 0 -6t1 -6q-2 -25 18 -38t42 -12q9 -2 19 0.5t17.5 8.5t11.5 15t1 20zM546 41q0 9 -3.5 17.5t-11.5 13.5q-13 5 -26 5.5t-27 2.5
q-26 -2 -51 0q-1 40 1.5 80t5.5 80t5.5 80t2.5 80q-1 13 -2.5 25.5t-5.5 24.5q-7 12 -20 16.5t-26 5.5q-57 5 -112.5 -2.5t-112.5 -11.5v11v1l-1 10v1v6q-2 15 4 27t16.5 20.5t24 13.5t26.5 5q5 1 8.5 1.5t8.5 1.5q18 2 35.5 14t14.5 33q0 12 -6 20.5t-15.5 13t-20.5 5
t-21 -2.5q-30 -2 -59.5 -14.5t-53 -32.5t-37 -47.5t-10.5 -60.5q0 -7 -0.5 -14t1.5 -14h-11h-2q-10 1 -22 0.5t-22.5 -4t-17.5 -12t-7 -21.5q0 -14 7.5 -23.5t18 -14.5t23 -7t23.5 -1h11h2q-1 -39 -3.5 -78t-4 -78.5t-1.5 -78.5t5 -78q2 -12 1.5 -24.5t6.5 -23.5
q5 -10 15.5 -16t21.5 -6q10 0 19 4t14 12q5 13 5 26v27q-5 39 -4.5 78.5t2.5 79.5t4.5 79.5t3.5 78.5q48 2 95 9t95 4q0 -38 -2.5 -76.5t-5.5 -76.5t-4.5 -76.5t0.5 -76.5q-14 0 -27 -1t-27 -3q-12 -2 -25 -2q-12 0 -24 -5q-20 -12 -20 -37q-1 -14 6 -22.5t17.5 -13t23 -5.5
t23.5 1q45 8 91.5 4.5t92.5 -1.5q11 -1 23.5 0.5t23 7t17.5 14t7 22.5z" />
    <glyph glyph-name="fl" horiz-adv-x="600" 
d="M558 41q2 10 -2 18.5t-10 15.5q-13 4 -26.5 5t-27.5 1q-14 2 -26.5 0t-26.5 -1q3 61 2 122t-2.5 121.5t-2 121.5t2.5 122q1 16 -3.5 31.5t-14.5 27.5q-12 10 -27.5 11.5t-30.5 2.5l-90 3q-19 1 -38 -1l-38 -4q-20 -5 -37.5 -15t-31.5 -24q-23 -21 -36 -49.5t-13 -59.5
q-1 -8 -1 -15v-14h-13q-11 1 -23 -0.5t-22.5 -6t-17 -13t-6.5 -21.5t7 -22t17.5 -14t22.5 -7t23 0h13q5 -40 4.5 -80t-3 -80t-4 -80t1.5 -80q2 -13 3 -25t6 -24q7 -10 17 -17.5t23 -8.5q9 -2 17.5 2.5t13.5 12.5q5 13 6 26.5t0 27.5q-2 81 2.5 162.5t-3.5 162.5q17 1 32.5 0
t32.5 1q12 2 24.5 1.5t24.5 4.5q9 7 16 16.5t6 21.5q0 10 -4 19.5t-12 15.5q-13 5 -26.5 6t-27.5 1q-17 -1 -33 0t-33 -1q0 8 -0.5 15t1.5 14q-2 15 4.5 27t17.5 20.5t24.5 13t27.5 4.5q29 -1 58 -1.5t58 0.5q-4 -60 -3 -120t3 -120t3 -120t-3 -120q-14 -2 -28.5 -3.5
t-28.5 -4.5q-12 -4 -25 -4t-25 -5q-10 -6 -16 -16t-5 -21q-1 -14 5.5 -23.5t17.5 -14.5t23.5 -6t23.5 3q46 8 92 13t93 5q11 0 24 1.5t24 6.5t19 13t10 22z" />
    <glyph glyph-name="Lslash" horiz-adv-x="534" 
d="M525 44q2 11 -2.5 19t-12.5 13t-18 6.5t-19 0.5q-37 2 -74 -0.5t-74 -5.5t-74 -5t-74 3q-1 51 -4.5 101t-3.5 101q45 25 88 52t87 53q13 8 22 19t11 26q-2 17 -15.5 29.5t-30.5 13.5q-19 -1 -39 -13q-32 -18 -61.5 -37.5t-60.5 -38.5q2 59 3.5 117t3.5 117q1 10 -1 21
t-7.5 20t-14 14t-20.5 3q-12 0 -20.5 -5.5t-14 -14.5t-8.5 -20t-3 -21q-3 -72 -7.5 -143t-6.5 -143q-18 -10 -37 -19.5t-36 -20.5q-11 -8 -22.5 -18t-10.5 -25q1 -18 15 -29.5t31 -15.5q10 1 20 3.5t18 8.5q6 4 12 7t12 7q3 -59 8 -116.5t9 -116.5q85 -3 173 -12
q48 11 96.5 12.5t97.5 3.5q21 1 41 13.5t24 35.5z" />
    <glyph glyph-name="lslash" horiz-adv-x="421" 
d="M375 405q0 17 -12.5 30.5t-29.5 15.5q-10 1 -19.5 -2t-18.5 -8q-14 -9 -29.5 -17.5t-29.5 -17.5q1 42 1 84q0 43 -2 85q-2 15 -3.5 31t-11.5 29q-13 7 -27.5 6.5t-28.5 -0.5q-17 -2 -33.5 -3t-33.5 -3q-12 -1 -24.5 -2t-23.5 -6q-9 -8 -17 -17t-8 -21q-2 -19 13 -32
q13 -6 27 -5.5t28 -1.5l28 2t28 1q-1 -52 -1.5 -104t-2.5 -104q-24 -16 -49 -30.5t-50 -28.5q-12 -5 -21 -15.5t-9 -24.5q2 -17 14 -28.5t28 -15.5l11 1q11 5 15.5 6.5t7.5 3.5q13 8 26.5 16t26.5 18q0 -45 3 -88t3 -88q-14 -2 -28 -0.5t-28 0.5q-13 0 -24.5 1.5t-23.5 -0.5
q-8 -5 -14 -13.5t-4 -18.5q0 -11 5 -20t11 -17q23 -13 52 -16q20 -3 41 -1.5t41 5.5q26 2 52.5 0.5t52.5 3.5l24 4t23 7q9 7 16 16t7 21q0 20 -15 33q-13 5 -26 5t-27 -1q-13 1 -25.5 -2t-25.5 -1q-1 58 -1.5 115t-1.5 115q26 17 52.5 32t54.5 29q11 6 23 14.5t14 22.5z" />
    <glyph glyph-name="Zcaron" horiz-adv-x="557" 
d="M405 631q0 18 -12 34t-31 18q-20 -3 -33 -14q-14 -11 -28.5 -21t-25.5 -24q-9 -2 -18 -3.5t-18 -1.5q-13 9 -26.5 16.5t-26.5 16.5q-7 5 -15 9t-17 4q-18 0 -30.5 -14.5t-14.5 -31.5q-1 -14 7.5 -23t18.5 -17q14 -10 28.5 -19t28.5 -19q8 -5 17 -8t18 -3q15 -1 29.5 2
t28.5 7q10 2 18.5 6t16.5 9q14 10 28.5 19t28.5 19q11 5 18.5 15.5t9.5 23.5zM482 459q-2 15 -3 30.5t-2 30.5q-48 10 -96 9t-95.5 -5t-95.5 -8t-96 -1q-9 1 -20 0t-20 -5.5t-15 -12.5t-6 -19q0 -23 19 -36.5t40 -11.5q64 -3 127 2.5t127 8.5q-72 -98 -145.5 -194.5
t-154.5 -187.5q2 -15 1.5 -30t-0.5 -30q42 -12 85.5 -9.5t86.5 5.5q24 2 48.5 0t48.5 -4t48 -3.5t48 1.5q22 2 41.5 16.5t20.5 37.5q1 7 0.5 14.5t-5.5 13.5q-9 5 -19 6l-20 2q-32 -3 -63.5 -1.5t-63 3.5t-63.5 2t-63 -6q76 97 154.5 189.5t150.5 192.5z" />
    <glyph glyph-name="zcaron" horiz-adv-x="466" 
d="M371 631q-2 19 -14.5 34.5t-31.5 19.5q-9 -1 -16.5 -4.5t-15.5 -8.5q-13 -11 -27 -19t-27 -19l-18 -2l-18 -2q-14 10 -28 19t-28 17q-8 5 -15.5 9t-16.5 2q-19 -1 -32 -16.5t-14 -33.5q-1 -14 8.5 -23.5t20.5 -16.5q15 -9 29.5 -19t29.5 -18q9 -5 18 -8t20 -5q14 0 29 2
t29 3q22 3 35 14q14 11 28.5 19.5t29.5 17.5q12 4 19 15t6 23zM411 42q0 9 -3 17.5t-11 13.5q-14 4 -27 4t-27 -1q-26 -2 -53 -2.5t-53 -6.5q-32 -8 -64.5 -2t-64.5 7q41 31 77.5 67t72.5 73t72 73t77 68q8 8 13.5 16.5t5.5 19.5v13q0 21 -8 42q-13 14 -30.5 19t-35.5 6
q-35 2 -69.5 0.5t-69 -3.5t-69.5 -3.5t-69 1.5q-18 2 -35.5 -10t-14.5 -32q0 -18 15 -33q13 -6 27 -6.5t28 -2.5q56 -5 111 -1.5t110 7.5q-67 -74 -141 -139.5t-148 -131.5q-11 -8 -17.5 -18.5t-4.5 -24.5v-4q2 -15 3.5 -29.5t9.5 -28.5q12 -9 26.5 -12.5t28.5 -5.5
q32 -5 63 -9t63 -9q35 6 70.5 11.5t71.5 5.5q12 2 24.5 3.5t23.5 7.5q9 8 16 17.5t6 22.5z" />
    <glyph glyph-name="space" unicode=" " horiz-adv-x="229" 
 />
    <glyph glyph-name="exclam" unicode="!" horiz-adv-x="222" 
d="M163 621q2 13 -3.5 23t-15 17.5t-21 11.5t-22.5 6q-3 -2 -6.5 -4t-6.5 -4q-19 -3 -33.5 -17t-13.5 -34q1 -6 1 -12v-12q5 -70 8 -140l6 -140q-1 -10 1 -23.5t7 -24t14.5 -15t23.5 1.5q10 -2 21 -1.5t15 12.5q5 13 7.5 25t1.5 26q5 70 8.5 139t7.5 139q2 7 1 13t-1 13z
M168 73q-1 8 -2.5 18.5t-12.5 12.5q-25 4 -51 14l-10 -4l-6 -2q-11 -2 -22 -2.5t-19 -8.5q-3 -10 -5.5 -19.5t-2.5 -20.5v-14q0 -12 5 -24.5t14 -20.5t21 -11.5t25 2.5q4 -2 7.5 -3.5t7.5 -2.5q17 -3 29 8.5t17 26.5q5 12 4 25t1 26z" />
    <glyph glyph-name="quotedbl" unicode="&#x22;" horiz-adv-x="438" 
d="M383 627q-2 12 -8 22.5t-17 15.5q-11 3 -22 5.5t-22 2.5h-19q-15 -2 -30.5 -2.5t-27.5 -11.5q-10 -14 -10.5 -29.5t-1.5 -30.5q4 -26 5 -52.5t0.5 -52.5t-1.5 -52.5t0 -52.5q1 -13 2 -25.5t4 -24.5q6 -11 17 -15t22 -2t21 5.5t16 12.5q8 10 9.5 21.5t6.5 22.5
q6 26 14.5 51t17 50.5t14 51.5t5.5 53q1 9 2.5 18.5t2.5 18.5zM179 626q1 11 -5 21.5t-17 15.5q-11 1 -22 2.5t-22 0.5q-5 1 -10 1h-9q-14 -1 -29 -2.5t-28 -9.5q-10 -12 -12 -27l-4 -30q0 -51 -1.5 -101t5.5 -101q2 -13 3 -25.5t5 -25.5q5 -11 16 -18t23 -6q10 0 20 2
t16 11q5 11 8.5 21.5t5.5 21.5q9 54 24.5 105.5t24.5 105.5q2 10 5 19t3 19z" />
    <glyph glyph-name="numbersign" unicode="#" horiz-adv-x="574" 
d="M477 268q0 20 -16 33q-13 5 -26.5 5.5t-27.5 0.5q-4 0 -7.5 0.5t-7.5 0.5q2 24 5 48.5t1 48.5q10 -2 15 -2q10 0 23 1t24 5t18 12.5t6 22.5q-1 10 -6 18.5t-13 15.5q-13 7 -28 7q-14 0 -28 1q-5 1 -15 1q-1 18 -2.5 35.5t-2.5 35.5q0 11 -2.5 23t-7.5 22.5t-14.5 17
t-22.5 6.5q-14 1 -22.5 -5.5t-12.5 -17.5t-4.5 -23.5t1.5 -22.5l2 -36l2 -36q-22 -1 -43.5 0.5t-43.5 0.5q1 19 -0.5 37t-0.5 37q-2 13 -1.5 25.5t-4.5 24.5q-7 8 -16.5 14t-20.5 6q-14 0 -22.5 -7t-13 -18t-6 -23.5t-1.5 -23.5v-73q-4 0 -7.5 -0.5t-7.5 -0.5
q-12 -2 -25 -1.5t-24 -4.5q-20 -13 -20 -37q1 -10 5 -19t13 -14q12 -6 25.5 -7t27.5 -1q4 0 7.5 0.5t7.5 0.5q4 -24 1.5 -48.5t-4.5 -48.5q-4 0 -7.5 -0.5t-7.5 -0.5q-12 -2 -24.5 -1.5t-24.5 -3.5q-9 -6 -16 -14.5t-7 -19.5q0 -9 3.5 -18t11.5 -15q12 -7 25.5 -9t27.5 -2
h15q0 -18 0.5 -36t1.5 -36q0 -11 2 -23.5t7 -23.5t13.5 -18t23.5 -5q10 -2 19.5 3t14.5 13q6 12 6.5 25.5t0.5 27.5v73q22 -1 43 -2t43 1v-73q0 -10 1 -22.5t4.5 -23t11.5 -17t22 -4.5q10 3 19.5 7t14.5 13q8 11 9 25l2 28q2 18 1.5 36t0.5 36q4 0 7.5 1t7.5 0q13 2 26 2.5
t25 4.5q10 5 15.5 14.5t5.5 20.5zM307 304q-22 -2 -43 -0.5t-43 1.5q2 25 3.5 49t-0.5 49q22 0 43.5 -1t43.5 -1q2 -24 0 -48.5t-4 -48.5z" />
    <glyph glyph-name="dollar" unicode="$" horiz-adv-x="567" 
d="M489 173q1 39 2 78.5t-3 78.5q2 18 -11 33t-32 13q-40 4 -80 3t-80.5 -3.5t-80.5 -4t-80 2.5v78q38 -5 76 -3t76 5t76 4t76 -4q10 -2 21 0t20 6.5t14.5 13t3.5 20.5q0 12 -6 20.5t-15 14.5t-20 9t-21 3q-29 4 -59 5t-60 -2q1 19 -0.5 37.5t-0.5 37.5q1 9 -1.5 19.5
t-8 18.5t-14 11.5t-19.5 -2.5q-12 2 -20.5 -2.5t-13.5 -13t-7.5 -19t-2.5 -19.5q1 -19 -0.5 -37t-0.5 -37q-33 2 -66.5 1.5t-66.5 -0.5q-19 0 -34.5 -13.5t-13.5 -33.5q-2 -39 -1.5 -78t0.5 -78q1 -18 13 -33.5t32 -13.5q81 -6 160 -2t160 3q-1 -20 0.5 -39.5t0.5 -39.5
q-75 2 -149.5 -1.5t-149.5 1.5q-9 2 -20 0.5t-20 -7t-14 -13.5t-3 -20q0 -11 5 -20t14 -15.5t19.5 -9.5t20.5 -2q29 -1 59 -2t59 -1v-74q-1 -9 1 -20t7 -19.5t13.5 -14t19.5 -4.5q12 0 20.5 5.5t14 14t8 19.5t2.5 21q0 19 2 37.5t1 37.5q32 1 63.5 0.5t63.5 0.5
q19 1 35 14.5t16 33.5z" />
    <glyph glyph-name="percent" unicode="%" horiz-adv-x="608" 
d="M210 428q2 61 2.5 122t-0.5 122q0 18 -13 31.5t-31 11.5q-23 -2 -44.5 -6t-44.5 -5q-17 -3 -29.5 -17t-13.5 -31q-2 -59 -4 -117t-7 -117q-1 -17 11.5 -30.5t29.5 -13.5q25 0 49 1t49 3q18 2 32 15t14 31zM524 676q0 10 -6.5 17t-16.5 9q-14 2 -23 -8.5t-14 -21.5
q-104 -175 -203.5 -349.5t-205.5 -348.5q-13 -22 -15 -49q1 -10 6.5 -19.5t16.5 -11.5q13 -1 21.5 9t13.5 20q49 90 100.5 177.5t103.5 175t104 174.5t102 176q7 11 11.5 23.5t4.5 26.5zM525 -56q2 59 4 116.5t8 116.5q2 17 -10 31.5t-30 12.5q-24 1 -47.5 1.5t-47.5 1.5
q-18 0 -32.5 -11.5t-16.5 -29.5q-3 -60 -4.5 -120.5t-0.5 -121.5q0 -17 12 -32t30 -15q23 1 45 0.5t45 1.5q17 4 30.5 17t14.5 31zM161 430q-22 -2 -44 -3l-44 -2q3 58 5.5 116t3.5 116q21 2 42 4.5t42 4.5q0 -60 -1.5 -118t-3.5 -118zM479 -57q-21 -2 -42 -1t-42 0
q0 60 1 118t5 117q22 0 44 -2t44 0q-5 -58 -7 -116t-3 -116z" />
    <glyph glyph-name="ampersand" unicode="&#x26;" horiz-adv-x="557" 
d="M482 43q-1 11 -6.5 19t-11.5 16q-9 10 -19 18.5t-18 18.5q8 8 16.5 15t16.5 14q9 9 18 18.5t11 23.5q-1 18 -15 31.5t-32 11.5q-25 -5 -43 -23q-8 -8 -16.5 -14.5t-16.5 -13.5q-26 25 -51 51t-51 50q26 23 52 45.5t54 43.5q9 7 16 17t7 22q-1 21 0 41.5t1 41.5
q-1 23 -10 44t-26 36q-15 18 -37 26.5t-45 6.5q-29 -2 -59 -2.5t-59 -2.5q-23 -1 -43.5 -12.5t-37.5 -25.5q-16 -16 -28.5 -34.5t-15.5 -41.5q-3 -20 -3.5 -40.5t-2.5 -40.5q2 -19 15 -32q21 -23 44 -44t45 -44q-23 -16 -43.5 -32.5t-43.5 -32.5q-10 -5 -13.5 -15t-2.5 -20
q2 -38 6 -73q3 -24 14.5 -45.5t28.5 -38.5t38 -29t45 -14q25 -3 50 -2t50 8q20 -2 31 11q17 12 32.5 26t32.5 27q9 -11 19 -20.5t19 -20.5q8 -7 17 -13.5t21 -4.5q18 3 31.5 17.5t18.5 31.5zM303 430q-26 -23 -52.5 -45t-52.5 -45q-20 20 -39 41t-39 41q2 13 1.5 26t1.5 26
q2 5 3 10.5t3 10.5q7 5 13.5 9t14.5 6q29 -2 58 1t58 3q14 3 24 -8t7 -25q1 -13 -0.5 -25.5t-0.5 -25.5zM295 119q-13 -11 -26 -21t-24 -23q-21 -5 -42.5 -5.5t-43.5 0.5q-13 0 -24 10t-10 24q-1 14 -2 27.5t-2 27.5q19 14 37 28.5t35 29.5q26 -25 52.5 -48t49.5 -50z" />
    <glyph glyph-name="quotesingle" unicode="'" horiz-adv-x="219" 
d="M180 627q0 12 -6.5 22.5t-16.5 16.5q-11 4 -23 3t-23 -1h-10q-4 0 -9 1q-31 2 -55 -15q-9 -12 -10.5 -27t-3.5 -29q-5 -51 -4.5 -101t3.5 -101q2 -13 2 -26t6 -24q5 -12 16 -19t24 -6q11 -2 21 3t16 14q5 10 9 20.5t7 21.5q17 52 29.5 104t20.5 106q2 9 3.5 18.5
t3.5 18.5z" />
    <glyph glyph-name="parenleft" unicode="(" horiz-adv-x="281" 
d="M244 -58q-1 8 -3.5 15t-8.5 13q-2 3 -6 5.5t-6 6.5q-25 31 -47 63.5t-48 62.5q-15 20 -17 47q-1 20 -1.5 55.5t-1 73.5t0 73.5t1.5 55.5q2 14 5.5 26.5t11.5 23.5q25 30 48.5 60.5t48.5 59.5l3.5 7t6.5 5q5 6 9.5 12.5t4.5 14.5q-2 18 -14 33.5t-31 20.5q-9 2 -16 -1
t-13 -8.5t-11 -12.5t-10 -12q-21 -28 -43.5 -54t-43.5 -55q-20 -28 -33 -59t-16 -66q-2 -19 -2 -54v-72t1 -72.5t2 -53.5q2 -33 15.5 -64t33.5 -57q22 -27 44 -53.5t43 -54.5q9 -12 20 -25.5t29 -11.5q17 5 29.5 19t14.5 33z" />
    <glyph glyph-name="parenright" unicode=")" horiz-adv-x="297" 
d="M251 158q0 19 0.5 53.5t0.5 71.5v72v54q0 34 -12.5 65.5t-35.5 57.5q-22 26 -44 51t-44 51q-11 10 -22 22t-28 9t-29.5 -14t-14.5 -28q2 -9 5 -17.5t8 -15.5q2 -2 3.5 -4.5t2.5 -5.5q1 -2 2 -2.5t2 -2.5q23 -32 49 -60.5t50 -58.5q8 -10 11.5 -23t3.5 -26q0 -20 -0.5 -55
t-0.5 -73v-74v-54q-2 -14 -4.5 -28t-11.5 -26q-23 -30 -48 -59t-51 -58q-2 -2 -5 -4t-3 -6q-7 -5 -9.5 -12.5t-3.5 -15.5q3 -18 13.5 -34.5t29.5 -21.5q9 -2 16 0.5t13.5 7.5t12 11.5t10.5 11.5q26 28 45 60.5t42 62.5q20 25 34 55t13 63z" />
    <glyph glyph-name="asterisk" unicode="*" horiz-adv-x="556" 
d="M482 266q0 14 -9 23t-19 17q-35 27 -69 54t-69 53l64 52t66 50q8 8 17.5 15.5t10.5 21.5q-1 18 -13.5 32t-31.5 15q-11 0 -21 -5t-18 -11q-23 -19 -47.5 -36.5t-47.5 -37.5l2 58t3 58q1 10 -1 21t-7 20t-13.5 15.5t-20.5 6.5q-23 -3 -34 -24.5t-12 -42.5q-2 -29 -3.5 -59
t-3.5 -59q-23 17 -44.5 34t-42.5 36q-16 15 -38 21q-17 -1 -31.5 -12.5t-16.5 -29.5q-2 -14 7 -23.5t17 -20.5q28 -28 57.5 -55t61.5 -50q-51 -58 -115 -104q-8 -6 -15 -14.5t-10 -18.5q2 -19 15 -34t31 -20q11 -1 21.5 4t18.5 12q24 19 46.5 39.5t45.5 41.5q1 -29 2 -57
t0 -57q0 -9 2.5 -20t8 -20t14 -13t20.5 0q11 0 19.5 6t14.5 15t8.5 19.5t1.5 20.5q1 29 1 56q0 28 -2 56q23 -18 46.5 -37t46.5 -38q8 -8 18 -12t21 -6q17 1 32.5 13t14.5 31z" />
    <glyph glyph-name="plus" unicode="+" horiz-adv-x="551" 
d="M484 332q2 12 -3.5 20t-14.5 13t-20 7t-20 2q-30 -2 -60 -2t-60 1q3 29 2 59t-3 59q-1 21 -11.5 42.5t-33.5 24.5q-12 0 -20.5 -6.5t-13.5 -16t-7 -20.5t-1 -21q-1 -30 0 -60t-3 -59q-30 0 -60 -1.5t-60 -0.5q-22 1 -43 -9.5t-28 -32.5q4 -23 24.5 -34.5t42.5 -11.5
q61 -2 123 0q4 -29 6.5 -58.5t0.5 -59.5q0 -9 1.5 -20t6 -20.5t12.5 -15t20 -4.5q12 0 21 5.5t15 14.5t9.5 20t3.5 21q3 58 -3 117q30 -1 60.5 -0.5t60.5 2.5q9 0 20 2.5t20 8t14 14t2 20.5z" />
    <glyph glyph-name="comma" unicode="," horiz-adv-x="327" 
d="M282 -72q-2 51 -2 100t1 100q0 18 -14 31.5t-31 15.5q-40 4 -79.5 2t-78.5 -5q-20 1 -38.5 -10t-18.5 -33q-2 -21 15.5 -33.5t37.5 -11.5l120 6q-2 -42 -0.5 -83t1.5 -83q-2 -19 8 -38.5t33 -17.5t33.5 21t12.5 39z" />
    <glyph glyph-name="hyphen" unicode="-" horiz-adv-x="279" 
d="M237 298q-1 12 -7.5 20.5t-16 13.5t-20.5 7.5t-21 1.5q-22 2 -44 1t-44 -1q-9 0 -20.5 -2.5t-21.5 -7.5t-15.5 -13.5t-3.5 -20.5q0 -11 5.5 -20t14.5 -14.5t20 -8t21 -1.5h88q21 0 41.5 11t23.5 34z" />
    <glyph glyph-name="period" unicode="." horiz-adv-x="245" 
d="M203 50q-2 17 -4 34.5t2 34.5q2 20 -13 34.5t-35 13.5t-40.5 -3t-40.5 0q-18 -1 -32.5 -14t-16.5 -31q-6 -17 -4 -35.5t4 -35.5q0 -19 13.5 -34t33.5 -13q21 2 41.5 1.5t41.5 0.5q19 0 35.5 13t14.5 34z" />
    <glyph glyph-name="slash" unicode="/" horiz-adv-x="444" 
d="M421 624q-4 17 -17 31t-31 17q-14 2 -24.5 -7.5t-15.5 -21.5q-44 -70 -84.5 -141.5t-80.5 -143.5t-80.5 -144t-85.5 -141q-9 -15 -12 -32q3 -17 15 -32.5t29 -20.5q15 -2 26.5 7t16.5 22q80 146 160 290.5t175 281.5q3 8 6.5 16.5t2.5 18.5z" />
    <glyph glyph-name="zero" unicode="0" horiz-adv-x="587" 
d="M490 80q5 59 4 117t-6 116q7 66 8 131.5t-5 131.5q-3 37 -29.5 65t-63.5 34q-63 11 -127 11.5t-127 -12.5q-35 -7 -61.5 -33t-31.5 -61q0 -125 -1 -247.5t3 -247.5q2 -34 27.5 -61t60.5 -30q30 -3 60 -4.5t60 -6.5q34 5 68 6.5t69 5.5q16 1 32.5 8.5t29 18.5t21 26
t9.5 32zM402 83q-66 -5 -130.5 -7.5t-130.5 5.5q-2 128 -2 253v253q66 11 132 10.5t132 -10.5q4 -127 0.5 -252t-1.5 -252z" />
    <glyph glyph-name="one" unicode="1" horiz-adv-x="486" 
d="M439 46q1 25 2 34.5t2 15.5t1.5 15.5t0.5 34.5q0 10 -3 20.5t-9 19t-15 13.5t-20 4q-23 2 -34 -17t-8 -39v-26q0 -4 -0.5 -6t-1 -6.5t-1.5 -25.5h-44t-44 -2q-2 149 1.5 296.5t-1.5 296.5q-25 -5 -50 -4.5t-49.5 2t-49.5 1.5t-50 -5q-20 0 -39.5 -12t-20.5 -34
q-2 -11 2.5 -19.5t13 -14.5t18.5 -8t20 0q30 3 59.5 3.5t59.5 0.5q-2 -127 -3 -252.5t1 -252.5q-29 -1 -59 -3t-59 0q-8 2 -18.5 1t-19.5 -4.5t-14 -11t-2 -18.5q2 -23 20 -39t41 -16q83 1 164.5 4.5t164.5 5.5q18 1 30.5 15.5t13.5 32.5z" />
    <glyph glyph-name="two" unicode="2" horiz-adv-x="586" 
d="M490 43q2 11 -2.5 20t-13 15t-19 9t-20.5 2q-74 -9 -147 -10t-147 1q-2 51 -1.5 103t-0.5 103q66 -2 132 1t132 8q16 1 32 7.5t28.5 17t20 25t6.5 31.5q-2 51 -2 100t-1 100q0 18 -6.5 36.5t-18 33t-27.5 24.5t-35 12q-34 4 -67 -2.5t-66 -12.5q-38 0 -75 0.5t-75 -1.5
q-10 0 -20.5 -2.5t-18.5 -8t-13.5 -14t-4.5 -19.5q-3 -22 15.5 -34t37.5 -8q72 -3 144 3t144 11q0 -53 -1 -105t1 -105q-66 -6 -132.5 -9.5t-133.5 -1.5q-18 2 -33.5 -4.5t-26.5 -19t-17.5 -28.5t-6.5 -33q1 -36 0.5 -72.5t-0.5 -72.5t2.5 -72t8.5 -72q92 -5 183.5 -8
t183.5 10q19 1 39.5 10t21.5 32z" />
    <glyph glyph-name="three" unicode="3" horiz-adv-x="618" 
d="M501 86l4 80t2 80q0 25 -9.5 48.5t-26.5 40.5q15 14 24.5 32t10.5 39q0 47 1.5 93t-4.5 92q-5 35 -32.5 59.5t-61.5 30.5q-70 13 -140.5 7t-139.5 -17q-21 -1 -40 -13t-22 -35q-2 -12 3.5 -20.5t14 -13.5t19 -7t19.5 0q36 4 72.5 8t73 6t73 1.5t72.5 -5.5q2 -39 2 -79
q0 -39 -1 -79q3 -20 -10.5 -37.5t-34.5 -15.5q-40 0 -79 -2.5t-79 -4.5q-10 0 -20.5 -3.5t-19.5 -9.5t-14 -14.5t-3 -20.5q-3 -11 1.5 -20t13.5 -15t20 -8t20 1q40 1 79.5 4.5t79.5 4.5q11 2 20.5 -2.5t16 -12t9.5 -18t1 -20.5q0 -40 -1.5 -79.5t-2.5 -79.5q-36 -2 -72.5 -5
t-73.5 -5t-73.5 -2.5t-73.5 3.5q-8 3 -18 3t-19 -3.5t-14 -10.5t-2 -18q3 -23 20.5 -40t40.5 -20q71 -9 141 -3.5t141 14.5q17 2 33 10t29 20t21 28t9 34z" />
    <glyph glyph-name="four" unicode="4" horiz-adv-x="470" 
d="M421 261q4 17 -9.5 28.5t-29.5 12.5q5 59 2.5 117t-5.5 117q0 10 -3.5 21t-9.5 20t-15 15t-21 6q-11 1 -20 -3.5t-14.5 -13t-7.5 -19t1 -20.5q1 -60 4.5 -120.5t-2.5 -120.5q-46 5 -92 4t-92 -6q6 79 2.5 158t-1.5 159q1 9 -1 20t-7.5 20t-14 13t-20.5 0q-12 -1 -20.5 -7
t-13.5 -15t-7.5 -20t-2.5 -21q-3 -49 -2.5 -97.5t1 -97.5t-0.5 -97.5t-6 -97.5q34 -5 67.5 -4.5t67.5 2.5t67.5 2.5t67.5 -3.5q-2 -42 -2 -84t-2 -84q0 -9 2 -20t7.5 -20t13.5 -13.5t20 -1.5q11 1 19.5 7.5t14 15.5t8 20t1.5 21q2 41 3.5 81t4.5 81h3q17 3 30 15.5t15 29.5z
" />
    <glyph glyph-name="five" unicode="5" horiz-adv-x="565" 
d="M478 86q5 51 4 102l-2 102q0 17 -6.5 33t-18.5 28t-27.5 19t-33.5 6q-45 -2 -89 -2.5t-89 -2.5q1 55 2.5 109t0.5 109q51 6 101 1t101 -5q9 -1 19.5 0.5t19 6t13.5 12t3 19.5q-2 23 -21.5 35.5t-40.5 14.5q-33 2 -65.5 4t-66.5 5q-38 4 -75 -4t-75 -11q1 -97 -4 -193.5
t-3 -193.5q67 -1 133 3t133 6q2 -53 1 -105t-2 -105q-24 0 -47.5 -3t-47.5 -6t-47.5 -4t-47.5 2q-10 2 -20 1.5t-18 6.5q-13 5 -24.5 11t-23.5 12q-8 3 -16.5 6.5t-16.5 6.5q-15 1 -28 -8t-11 -26t14.5 -31t26.5 -23q14 -8 26.5 -16t26.5 -15q12 -6 25.5 -10.5t27.5 -3.5
q25 -6 49.5 -5.5t49.5 4t49.5 8t48.5 5.5q19 1 35 9.5t28.5 21.5t20 29.5t8.5 34.5z" />
    <glyph glyph-name="six" unicode="6" horiz-adv-x="553" 
d="M471 45q5 54 6 107t3 107q2 18 -10 34t-32 14q-79 5 -158 -1t-158 -11q-4 72 -2.5 143t6.5 143q17 2 30.5 15t13.5 31q0 17 -12.5 30.5t-29.5 11.5q-11 1 -22 -1t-22 -1q-17 -2 -29 -14t-14 -29q-8 -72 -9.5 -144.5t0 -145.5t4 -145.5t2.5 -145.5q5 -19 16.5 -35
t30.5 -21q38 -10 77 -9.5t77 12.5q46 -2 91.5 2t90.5 6q20 2 34 14.5t16 32.5zM387 84q-31 -1 -61.5 -2.5t-61.5 1.5q-35 -10 -70.5 -13t-71.5 -1q-2 35 -1 69.5t1 69.5q32 -2 64 1t63 10q35 -1 70.5 0t70.5 2q-1 -35 -1.5 -68.5t-1.5 -68.5z" />
    <glyph glyph-name="seven" unicode="7" horiz-adv-x="464" 
d="M434 409q0 65 -1 129t-2 129q-44 14 -88.5 12.5t-89.5 -6.5q-25 1 -50.5 3t-50.5 2.5t-50.5 -0.5t-50.5 -6q-21 -1 -35.5 -18t-15.5 -37q-3 -14 -3 -26q-5 -19 7.5 -34.5t32.5 -13.5q18 1 29 14.5t15 29.5q32 3 63 2t62 -7q35 2 69.5 6t69.5 4v-131q-1 -5 -1.5 -10.5
t-0.5 -10.5q-4 -7 -7.5 -13t-10.5 -11q-37 -31 -68 -67t-68 -66q-15 -12 -13 -32q1 -54 1 -107v-107q0 -10 2 -21.5t7.5 -20.5t14 -15t20.5 -5q22 8 33 29t9 43q2 42 1 83.5t0 83.5q0 23 16 39q32 34 65.5 64.5t71.5 57.5q9 5 12.5 14.5t4.5 19.5z" />
    <glyph glyph-name="eight" unicode="8" horiz-adv-x="567" 
d="M486 85q2 51 2.5 100t1.5 100q0 19 -7.5 36t-20.5 30t-30 20.5t-35 7.5q-2 63 -0.5 124.5t1.5 124.5q-1 18 -12.5 34t-31.5 15q-20 2 -38.5 -1.5t-37.5 -6.5q-23 2 -46.5 3t-46.5 1q-20 3 -33 -13t-13 -35q-2 -64 -7.5 -127t-6.5 -127q-17 0 -33.5 -6.5t-29 -17.5
t-20 -26t-7.5 -33q1 -53 5 -105t11 -104q5 -35 30 -62q11 -14 26 -21.5t32 -11.5q65 -8 130 -3.5t128 17.5q34 3 60.5 27.5t28.5 59.5zM307 373q-22 -5 -44.5 -6t-45.5 1q1 54 4 107.5t5 107.5q21 -4 42.5 -2.5t42.5 6.5q-2 -54 -3 -107t-1 -107zM399 85
q-66 -11 -131.5 -16.5t-131.5 3.5q-5 53 -7 105.5t-4 105.5q69 -8 136.5 -3.5t136.5 12.5q2 -52 1.5 -103.5t-0.5 -103.5z" />
    <glyph glyph-name="nine" unicode="9" horiz-adv-x="624" 
d="M503 42q9 146 11 289.5t-10 289.5q-4 18 -16.5 34.5t-32.5 18.5q-85 6 -168.5 1.5t-168.5 -7.5q-20 -1 -34 -15t-14 -34q-5 -53 -7 -105.5t0 -106.5q0 -19 12 -33.5t32 -16.5q80 -5 159.5 -3t159.5 7q-1 -72 -4 -144t-2 -144q-17 -4 -32 -16t-15 -32q0 -17 12 -30.5
t29 -9.5q11 1 22 3l22 4q17 6 30 19t15 31zM423 449q-69 -2 -136.5 -5t-136.5 -1q-1 35 0.5 69.5t2.5 69.5q67 2 133 4t133 3q2 -35 2.5 -70t1.5 -70z" />
    <glyph glyph-name="colon" unicode=":" horiz-adv-x="260" 
d="M209 327l-3 69q-1 20 -14 36t-33 20q-20 9 -40.5 4.5t-40.5 -9.5q-17 -5 -30 -18.5t-15 -32.5q-2 -18 -2.5 -35.5t-1.5 -35.5q-1 -8 2 -15l6 -14q8 -5 17.5 -9t19.5 -2q22 4 44 6t44 -3q9 -3 18.5 -1t16.5 7.5t11 14t1 18.5zM207 37q2 17 2 34q0 18 2 35q2 20 -14 33
t-34 13q-22 5 -43.5 3t-43.5 -3q-17 -2 -32.5 -14.5t-14.5 -31.5q1 -18 2 -35.5t1 -35.5q1 -18 13.5 -32.5t31.5 -12.5h41t41 -2q10 -1 19 3t16 11t10.5 16t2.5 19z" />
    <glyph glyph-name="semicolon" unicode=";" horiz-adv-x="318" 
d="M190 339q1 36 0 72q0 9 -4 19t-10 17.5t-15 11.5t-19 2q-20 -4 -40.5 -6.5t-40.5 -8.5q-18 -4 -31 -18t-14 -33q0 -17 -1.5 -35t-0.5 -35q-4 -18 11 -31t32 -10q22 5 43.5 6t42.5 7q9 -2 18.5 0.5t16.5 8.5t10.5 14.5t1.5 18.5zM277 -96q4 51 6 100t2 100q0 19 -15 31.5
t-32 13.5l-40 4l-40 4q-45 -8 -90 -9q-9 0 -20 -2t-20 -7.5t-14.5 -13.5t-4.5 -20q2 -23 21.5 -34.5t40.5 -9.5q15 -1 30.5 1l31 4t31 2.5t30.5 -3.5q0 -42 -0.5 -82.5t-2.5 -82.5q-2 -9 0 -19.5t6.5 -19.5t12.5 -14.5t19 -3.5q22 4 34 22.5t14 38.5z" />
    <glyph glyph-name="less" unicode="&#x3c;" horiz-adv-x="567" 
d="M503 106q0 15 -9.5 26t-23.5 16q-42 21 -80.5 47.5l-77 53t-78 52t-81.5 45.5q76 60 159.5 108t163.5 101q11 8 22 18.5t9 25.5q-5 20 -19 36t-35 18q-11 1 -20 -4t-17 -11q-49 -28 -94.5 -60t-91 -65t-91.5 -64.5t-95 -58.5q-10 -7 -17.5 -16.5t-8.5 -21.5
q2 -13 7.5 -24.5t16.5 -18.5q92 -64 186.5 -122t185.5 -124q9 -5 18.5 -10t20.5 -3q19 6 33 21t17 35z" />
    <glyph glyph-name="equal" unicode="=" horiz-adv-x="551" 
d="M480 441q-5 25 -26.5 35.5t-42.5 12.5q-77 5 -154.5 -1.5t-154.5 -3.5q-22 1 -44 -9.5t-27 -34.5q-3 -12 2 -20.5t14 -13.5t20 -7t20 -1q84 -2 167 2.5t167 0.5q9 0 20.5 1.5t20.5 6t14.5 12.5t3.5 20zM474 260q1 12 -4.5 20t-14 13t-19 7t-20.5 2q-83 -2 -165 -4t-165 0
q-8 1 -18.5 -0.5t-18.5 -6.5t-12 -12.5t0 -18.5q5 -21 22.5 -35t40.5 -12q78 -1 155 -1q78 0 156 2q21 0 41 11.5t22 34.5z" />
    <glyph glyph-name="greater" unicode="&#x3e;" horiz-adv-x="560" 
d="M502 353q2 13 -5 24t-17 19q-45 32 -92.5 61t-95.5 57.5t-95 57.5t-92 62q-8 6 -17 10t-20 4q-19 -2 -33.5 -16t-18.5 -33q0 -15 9.5 -26.5t20.5 -19.5q40 -23 78.5 -48.5l77 -51t77.5 -50t80 -46.5q-33 -33 -70 -60t-76 -51t-79 -47t-79 -48q-14 -6 -22.5 -18.5
t-10.5 -26.5q2 -18 14.5 -33.5t31.5 -17.5q21 3 40 14q51 24 98 55t92.5 64l91 66t93.5 62q10 6 15.5 16t3.5 21z" />
    <glyph glyph-name="question" unicode="?" horiz-adv-x="469" 
d="M438 479q1 17 1 33v34q-2 10 -5.5 20t-11.5 17q-23 23 -46 45.5t-48 44.5q-7 5 -13.5 9t-14.5 3q-7 -2 -14.5 -4.5t-11.5 -9.5q-27 -33 -58 -61.5t-64 -55t-66.5 -53t-64.5 -54.5q-9 -8 -17.5 -17.5t-9.5 -22.5q0 -17 11.5 -32t29.5 -15l10 2l10 2l9 5l9 7l4 3
q61 46 118.5 95.5t109.5 105.5q11 -10 22.5 -19.5t22.5 -20.5v-12v-11q0 -2 -0.5 -5t-0.5 -5q-65 -54 -125.5 -111t-126.5 -110q-7 -5 -11.5 -14t-4.5 -18q-1 -16 1 -31.5t1 -31.5q0 -10 2.5 -21.5t8.5 -20.5t14.5 -14.5t20.5 -4.5q12 -1 20.5 5t14 15t7.5 20t2 21
q-1 10 -1 19q0 10 -1 20q60 57 118.5 112.5t127.5 101.5q8 5 14 14.5t7 20.5zM176 23q0 18 -14 30t-31 12t-29.5 -12.5t-12.5 -29.5q1 -17 13 -31.5t30 -15.5t31 14.5t13 32.5z" />
    <glyph glyph-name="at" unicode="@" horiz-adv-x="587" 
d="M486 138q1 48 4.5 95.5t6 95t0.5 95t-12 94.5q-2 32 -18.5 59.5t-39.5 50.5q-23 24 -54 37t-64 18q-24 8 -48 3.5t-48 -8.5q-25 -5 -49.5 -12t-45.5 -24q-22 -18 -41 -40.5t-25 -51.5q0 -15 12 -26.5t28 -9.5q14 1 25 10.5t19 20.5q8 22 27.5 34.5t42.5 12.5q12 3 24 4.5
t24 5.5q16 -2 32 -2.5t32 -2.5q18 1 33.5 -7t26 -21t16.5 -30t6 -33q6 -45 6.5 -90.5t-1 -90.5t-4 -90.5t-1.5 -90.5q0 -10 -1.5 -22t-6 -22t-13 -16.5t-21.5 -5.5q-12 -2 -20.5 3.5t-13.5 14t-7.5 19t-1.5 20.5q-2 53 -1.5 105.5t2.5 105.5q-1 15 -2 30.5t-11 28.5
q-12 12 -29.5 14t-32.5 -3q-11 0 -21.5 -1.5t-21.5 -1.5q-30 -3 -59.5 -11t-53.5 -27q-20 -17 -32.5 -41.5t-6.5 -51.5q3 -38 5.5 -76.5t3.5 -76.5q1 -27 13 -50.5t29 -43.5t40.5 -31t49.5 -13q23 2 45.5 11t38.5 27q16 -17 37.5 -27.5t44.5 -10.5q27 0 50.5 14t41.5 33
q20 20 30.5 46t10.5 54zM227 133q5 -20 -7 -38.5t-34 -18.5q-12 0 -20.5 5.5t-14.5 14.5t-9 19.5t-2 20.5q-1 69 -6 140q-2 12 2.5 22t12.5 17t19 10.5t22 1.5q8 1 15 1q8 0 16 2q2 -50 3 -98.5t3 -98.5z" />
    <glyph glyph-name="A" unicode="A" horiz-adv-x="481" 
d="M435 41v13t-2 13q-16 74 -37 147t-44 145t-46.5 144t-44.5 145q-2 14 -14 24t-26 7q-15 2 -26 -8.5t-16 -24.5q-20 -71 -42.5 -141.5t-49.5 -139.5q-19 -75 -34.5 -150t-39.5 -149q0 -6 -1 -12.5t-3 -12.5q1 -17 13 -32t29 -20q9 -2 16.5 1t13 9t9.5 13.5t6 15.5
q8 26 15 51.5t15 51.5l87 -3q28 6 55.5 11.5t56.5 5.5q5 -26 11.5 -51.5t11.5 -51.5q4 -16 13 -30.5t28 -13.5q17 1 30 13.5t16 29.5zM301 232q-38 -7 -76 -12t-76 -1q8 66 29.5 127.5t41.5 124.5q17 -61 36 -121t45 -118z" />
    <glyph glyph-name="B" unicode="B" horiz-adv-x="601" 
d="M504 178q3 45 -13 91q-11 18 -23 34.5t-28 30.5q30 26 44 64.5t12 78.5q-1 36 -14.5 73t-37.5 66t-57 45.5t-74 10.5q-31 -4 -63 -4q-31 0 -63 0.5t-64 0t-63 -4.5q0 -83 -3 -166.5t-4.5 -166.5t-1 -166t8.5 -166q60 -23 123.5 -22t126.5 11q36 6 71 19.5t61 39.5
q27 26 43.5 59.5t18.5 71.5zM408 487q4 -21 -2.5 -41.5t-20 -36.5t-32.5 -26t-40 -10q-43 -6 -85.5 -7t-85.5 1q-2 54 -1 107.5t2 107.5q42 2 82.5 -0.5t82.5 3.5q21 6 40.5 -1t33.5 -22t21 -35t5 -40zM415 186q1 -22 -6.5 -42t-22 -35.5t-33.5 -24.5t-41 -9
q-88 -15 -174 -8v106q0 53 3 106q43 -1 86 -1t86 7q17 2 34.5 -0.5t32.5 -12.5q17 -17 25.5 -39.5t9.5 -46.5z" />
    <glyph glyph-name="C" unicode="C" horiz-adv-x="534" 
d="M470 43q3 11 -2 19t-13.5 13t-19 7t-19.5 1q-36 -5 -72.5 -7t-72.5 0q-16 1 -29.5 9.5t-21.5 22.5q-23 42 -46.5 83.5t-45.5 83.5q-7 12 -9.5 25t-2.5 27q0 15 4 29t11 28q21 45 44.5 87.5t46.5 87.5q6 11 18.5 18t26.5 5q37 0 73 1t73 2q9 -2 20 -0.5t19.5 6t13.5 12.5
t2 20q0 23 -20 36t-41 13q-36 0 -72 -0.5t-72 -1.5q-38 5 -71 -16.5t-49 -54.5q-23 -48 -47 -93t-48 -92q-10 -19 -16.5 -39.5t-8.5 -42.5q-5 -44 16 -85q46 -93 101 -185q16 -35 49 -53t70 -20t74 0t74 7q21 0 41 12t22 35z" />
    <glyph glyph-name="D" unicode="D" horiz-adv-x="564" 
d="M483 336q2 22 -2 43.5t-14 41.5q-23 47 -48 92.5t-50 90.5q-9 16 -21.5 31.5t-27.5 26.5t-33 16.5t-38 1.5q-37 -2 -74 -2.5t-74 -4.5q-10 -1 -20.5 -4.5t-19.5 -10t-14.5 -15.5t-5.5 -21q-2 -11 3.5 -18.5t13.5 -12t18.5 -6t19.5 0.5q8 2 14.5 1t14.5 1q4 -64 2 -128
t-5 -128t-4.5 -128t4.5 -128q-7 2 -14 1t-14 1q-9 1 -19 0t-18 -5t-13.5 -11.5t-3.5 -18.5q3 -23 21 -37.5t40 -14.5q35 -4 70 -5.5t70 -8.5q21 -2 39.5 5.5t34 20.5t27.5 30t20 34q22 46 44.5 91t48.5 89q12 20 18.5 43t9.5 46zM393 338q0 -14 -5 -26t-11 -24
q-26 -46 -48 -94t-44 -97q-6 -13 -16.5 -24.5t-27.5 -6.5q-8 0 -15 2t-15 2q-5 65 -2.5 130t5.5 130t5 130t-4 130q7 1 14 -0.5t14 0.5q14 -1 26.5 -6t20.5 -18q23 -42 47 -83t43 -85q6 -14 10.5 -29t2.5 -31z" />
    <glyph glyph-name="E" unicode="E" horiz-adv-x="534" 
d="M464 43q1 11 -4.5 18.5t-14 12t-18.5 5.5t-19 0q-73 -8 -145.5 -11.5t-145.5 2.5q-2 53 -4 104.5t0 104.5q31 1 62 1t62 2q11 0 22 3.5t20 10t14.5 16.5t5.5 22q1 12 -4.5 20t-15 12.5t-20.5 5.5t-20 -1q-31 -2 -61 -3.5t-61 -1.5q2 54 2 106v106q37 0 74 5t74 9.5
t73.5 5t73.5 -8.5q8 -2 18.5 -1.5t19.5 4.5t14 11.5t2 18.5q-3 23 -22.5 37.5t-41.5 17.5q-46 12 -91.5 9t-91 -9.5t-91.5 -12.5t-92 0q-2 -83 -6 -166t-6 -166.5t0 -166.5t12 -166q91 -20 183 -20t183 13q21 3 39.5 15.5t20.5 35.5z" />
    <glyph glyph-name="F" unicode="F" horiz-adv-x="533" 
d="M470 623q-2 23 -21.5 36.5t-41.5 14.5q-92 2 -183 2t-183 -11q-14 -155 -18 -309t15 -309q0 -19 12.5 -35.5t32.5 -17.5q11 -3 19.5 1.5t13.5 12.5t6.5 18.5t0.5 19.5q-3 78 -8.5 156t-1.5 156q27 -3 54.5 -1t55 4.5t55 3.5t54.5 -3q10 -2 21.5 0t21 7.5t15 14t4.5 20.5
q0 12 -5.5 21t-15 14.5t-20.5 8t-21 2.5q-27 3 -54 2.5t-53.5 -3t-53.5 -4.5t-54 0q1 35 2 69.5t2 69.5q74 2 147.5 4t147.5 -3q9 -1 19.5 0.5t19.5 6t13.5 12t1.5 19.5z" />
    <glyph glyph-name="G" unicode="G" horiz-adv-x="563" 
d="M479 124q3 45 6 89t5 89q-42 -2 -84.5 -1.5t-84.5 2.5q-10 0 -21 -1.5t-20.5 -6.5t-15.5 -13t-5 -21q0 -12 5 -21t14 -15t19.5 -9t21.5 -3h76q0 -21 -2 -43t-2 -43q1 -21 -13.5 -38t-36.5 -15q-41 0 -81.5 5t-81.5 -1q-22 -3 -38 12.5t-16 37.5q1 55 -1 110t-2 110
q2 18 6.5 35.5t17.5 31.5q30 38 60.5 75.5t56.5 79.5q5 7 10.5 13.5t12.5 11.5q8 4 17 3t17 1l52 -4t52 -5q8 -3 18.5 -2.5t19.5 4.5t14.5 12t2.5 19q-3 23 -22 38t-41 18q-27 4 -54.5 7.5t-55.5 2.5q-17 1 -32 -4.5t-28 -15t-24.5 -22t-20.5 -25.5q-29 -40 -60.5 -79
t-64.5 -76q-19 -22 -32 -48.5t-13 -55.5q0 -59 2 -117.5t6 -117.5q2 -26 13 -52t29 -45.5t42.5 -31t52.5 -8.5q43 4 85.5 -2t85.5 -5q26 0 49.5 13t40.5 33t29 44t14 50z" />
    <glyph glyph-name="H" unicode="H" horiz-adv-x="625" 
d="M504 57q20 137 16.5 275t-15.5 276q-1 10 -4 21t-9 20.5t-14.5 16t-20.5 7.5q-12 3 -19.5 -2t-12 -13.5t-6.5 -19t-1 -19.5q4 -61 6 -121t4 -121q-35 0 -69.5 -2t-69.5 -4.5t-69.5 -4t-69.5 0.5q1 60 0.5 120.5t3.5 120.5q0 9 -1 20t-5 20t-11.5 14.5t-19.5 3.5
q-23 -1 -35 -20.5t-13 -39.5q-6 -137 -11 -274t9 -274q2 -21 14.5 -42.5t35.5 -26.5q11 -2 19 3t13 13.5t6 18.5t-2 19q-4 60 -4.5 118t0.5 118q70 -4 140 0l140 8q0 -61 -3.5 -121.5t-8.5 -121.5q0 -9 2 -19.5t6.5 -18.5t12.5 -12.5t19 -1.5q23 4 33.5 24t13.5 41z" />
    <glyph glyph-name="I" unicode="I" horiz-adv-x="467" 
d="M446 44q1 11 -4 18.5t-13.5 12t-18 6t-18.5 0.5q-29 0 -58.5 1t-58.5 -3q2 128 -2 253.5t-4 253.5q29 2 58 2.5t58 -2.5q9 -1 20 0t20 5.5t14 12.5t2 20q0 23 -19.5 35t-39.5 12q-78 2 -155 1.5t-155 -5.5q-10 -1 -20.5 -4t-19.5 -8t-15 -13.5t-7 -19.5q-2 -11 2.5 -19
t13 -13t19 -7.5t19.5 -1.5q29 3 58.5 3.5t58.5 -0.5q-5 -129 0 -257t6 -257q-29 -1 -58.5 0.5t-58.5 3.5q-8 1 -18.5 0.5t-19 -4t-14 -10t-4.5 -17.5q2 -23 19.5 -38t39.5 -17q39 -7 77.5 -6t77 5t77 7.5t77.5 1.5q22 -2 42 11.5t22 36.5z" />
    <glyph glyph-name="J" unicode="J" horiz-adv-x="425" 
d="M373 135q2 119 0.5 237t-5.5 237q-1 21 -11 43t-33 25q-12 3 -20.5 -2t-14 -13.5t-7.5 -19.5t-1 -20q1 -122 4.5 -242t1.5 -242q1 -21 -14.5 -39t-37.5 -18q-17 -4 -35 -5.5t-36 -3.5q-11 -2 -21.5 2t-18.5 11.5t-12 18t-2 21.5q0 28 -1.5 55.5t0.5 55.5q0 10 -2.5 20.5
t-8.5 19t-14.5 14t-19.5 5.5q-11 3 -19.5 -1t-14.5 -12t-8.5 -18t-0.5 -19q-1 -30 1 -60t3 -60q1 -27 11.5 -54.5t29.5 -48t44 -32t55 -6.5q18 -1 36 2.5t36 6.5q26 4 50 16.5t43 31t30.5 42.5t12.5 52z" />
    <glyph glyph-name="K" unicode="K" horiz-adv-x="549" 
d="M475 43q-3 27 -25 43q-35 34 -73 64t-77 58.5t-77.5 58.5t-72.5 64q75 65 147 133t153 125q9 6 17 14t7 20q-2 20 -14.5 36t-32.5 21q-8 -2 -17 -4.5t-15 -8.5q-68 -60 -134.5 -120.5t-135.5 -119.5q0 47 0.5 93t3.5 93q1 9 -1 19.5t-6.5 19t-12.5 13.5t-19 4
q-23 -1 -35.5 -20t-11.5 -40q-5 -65 -5.5 -129t4.5 -129q-8 -73 -9.5 -147t6.5 -147q2 -21 14.5 -41t35.5 -23q12 -2 19.5 3.5t11.5 14.5t5 19t0 19q-5 47 -5.5 93.5t1.5 93.5q31 -30 65 -56.5t69 -52t69 -51.5t66 -55l18 -12t20 -9q17 2 31 14t16 29z" />
    <glyph glyph-name="L" unicode="L" horiz-adv-x="531" 
d="M471 44q1 11 -4 19t-13 13t-18.5 6t-19.5 -1q-35 -3 -68.5 -5.5t-68.5 1.5q-39 -2 -78 -7t-77 3q-9 67 -9 134q0 68 3 135.5t6.5 134.5t2.5 135q2 19 -8.5 38t-32.5 18q-23 -2 -34 -21t-11 -39q-2 -72 -6 -142.5t-15 -141.5q2 -82 9.5 -163t14.5 -162q21 -3 42.5 -7.5
t42.5 -8t42.5 -4.5t43.5 2q24 4 48 4h49t48.5 1.5t48.5 6.5q21 2 41.5 15t20.5 36z" />
    <glyph glyph-name="M" unicode="M" horiz-adv-x="624" 
d="M507 60q14 76 15 152t-3.5 151.5t-11.5 151.5t-9 152q-27 2 -54 7.5t-54 5.5q-26 -42 -53.5 -83.5t-54.5 -83.5q-25 42 -50.5 83.5t-50.5 83.5q-27 -3 -53.5 -6t-52.5 -8q-15 -75 -19 -151.5t-2 -153t7.5 -153t9.5 -152.5q1 -10 3.5 -21t8 -20t13.5 -15.5t20 -6.5
q11 -2 19.5 3t13.5 13.5t7 19t1 19.5q1 63 -2.5 126.5t-6.5 127t-4 127t5 126.5q20 -32 41.5 -63.5t44.5 -63.5v-8q0 -22 13 -43t37 -22q12 1 20.5 7.5t14 16t7.5 20.5t1 22v8q21 32 43.5 63t45.5 63q0 -63 4 -126.5t7 -127t2 -126.5t-11 -126q-2 -9 -1 -19.5t5.5 -19.5
t12 -14t19.5 -2q23 5 36.5 24t15.5 42z" />
    <glyph glyph-name="N" unicode="N" horiz-adv-x="623" 
d="M506 1q9 76 11.5 152t1.5 151.5t-4.5 151.5t-4.5 152q-1 21 -12.5 41.5t-34.5 21.5q-11 3 -19 -1.5t-13 -13t-7 -19t-1 -19.5q-2 -119 2.5 -237t2.5 -237q-64 131 -124.5 261.5t-110.5 267.5q-28 -2 -55.5 -4.5t-55.5 -4.5q-4 -72 -12 -142.5t-13 -142.5q-2 -41 0.5 -81
t6.5 -80.5t9 -81t7 -80.5q0 -10 2.5 -21t8 -20.5t13.5 -16.5t19 -9t19.5 2.5t13.5 12.5t7 18.5t1 19.5q-2 59 -6.5 118t-7.5 118t-2.5 117.5t9.5 117.5q22 -69 53 -134t64 -129t64 -128.5t55 -132.5q29 3 56.5 8.5t56.5 3.5z" />
    <glyph glyph-name="O" unicode="O" horiz-adv-x="577" 
d="M504 333q-4 23 -11 44t-18 41q-29 49 -55 99.5t-52 101.5q-7 13 -18 24.5t-24 18.5t-28 9t-30 -4q-33 2 -62.5 -16t-45.5 -48l-50 -94t-51 -94q-11 -20 -18 -40.5t-11 -42.5q10 -50 36 -93q26 -45 50 -90t47 -92q14 -29 42.5 -48t61.5 -19q32 -3 59.5 17t41.5 48
q23 47 47 93.5t51 91.5q13 22 23 45t15 48zM409 338q-2 -14 -6 -27t-11 -25q-28 -48 -52 -96t-48 -97q-8 -14 -24 -17q-10 1 -17.5 7t-11.5 14q-23 44 -44 86t-47 84q-7 15 -14.5 29.5t-9.5 31.5q2 17 8 33t14 31q22 44 46.5 86t46.5 87q5 6 11.5 11t14.5 3q8 2 14.5 -1
t10.5 -9q26 -42 49 -85.5t48 -85.5q8 -14 14 -28.5t8 -31.5z" />
    <glyph glyph-name="P" unicode="P" horiz-adv-x="573" 
d="M494 393q-5 35 -7.5 69.5t-2.5 69.5q0 27 -10 53t-28 46.5t-42.5 33t-52.5 11.5q-37 9 -74 9t-73.5 -4t-73.5 -9t-74 -6q-17 -155 -21.5 -310.5t18.5 -310.5q2 -18 13.5 -33.5t31.5 -14.5q11 -2 19 3t13 13t6.5 18.5t0.5 19.5q-2 51 -6 100t-6 100q54 4 108.5 0.5
t108.5 -5.5q29 -1 59 10t53 30.5t35 47t5 59.5zM402 392q3 -11 0.5 -22t-9 -19.5t-16.5 -13t-22 -2.5q-58 2 -116 5t-116 -2q-2 63 3.5 124t9.5 124q51 10 103 9.5t104 -7.5q23 2 38.5 -15.5t15.5 -39.5q-2 -35 0 -70.5t5 -70.5z" />
    <glyph glyph-name="Q" unicode="Q" horiz-adv-x="593" 
d="M519 -16q3 17 -10.5 29t-30.5 10q-14 -2 -28 -2.5t-28 -3.5q-2 7 -9 23t-15 33.5t-15 33.5t-10 22q17 14 32 28.5t32 28.5q29 24 49 58.5t19 73.5q-8 62 -13 123.5t-6 124.5q0 22 -10 40.5t-24 34.5q-31 36 -74 43q-20 4 -36.5 -6.5t-30.5 -21.5q-45 -52 -96 -97
t-106 -87q-29 -21 -49 -52.5t-16 -68.5q7 -62 9 -123.5t4 -123.5q1 -21 9 -42t22 -37.5t32.5 -28.5t40.5 -15q39 -6 72 17q17 16 34 30.5t33 31.5q4 -10 12 -29t17 -40.5t17 -40.5t11 -29q28 2 55 6.5t54 8.5q19 1 36 14.5t17 33.5zM413 325q0 -21 -8.5 -41t-25.5 -34
l-18.5 -18.5t-19.5 -17.5q-6 13 -10.5 26t-9.5 26t-18 21t-27 4q-17 -2 -30 -14t-14 -30q0 -8 3 -16l6 -16q8 -17 14 -34.5t14 -34.5q-21 -20 -42.5 -37.5t-44.5 -34.5q-5 -2 -9 -4t-9 -2q-8 2 -14.5 8t-5.5 15q-1 63 -1.5 124.5t-7.5 124.5q-2 19 6.5 36t23.5 28
q27 20 52 43t49 47l48 48t50 46q4 2 8 3t8 3q9 -2 14.5 -9.5t4.5 -16.5q1 -61 3.5 -122t10.5 -121z" />
    <glyph glyph-name="R" unicode="R" horiz-adv-x="587" 
d="M487 41q-2 22 -14 36q-27 36 -56 86t-54 96t-41 78l-16 32l11.5 -4t32.5 -5q27 -2 52.5 8.5t45 29t31.5 43.5t12 52v38q0 28 -11 53.5t-31 45.5q-19 19 -42.5 31.5t-50.5 14.5q-74 15 -149.5 12.5t-148.5 -22.5q-6 -77 -6.5 -154.5t0.5 -155l2 -155t-1 -154.5
q0 -19 13.5 -34.5t32.5 -15.5q12 -2 19.5 3.5t12 14.5t6.5 20t1 20q-2 39 -1.5 78t1.5 78.5t1.5 78.5t-2.5 78q3 0 12.5 0.5t20.5 0.5h19h9q1 -2 13 -25.5t34 -65t47.5 -87.5t53.5 -92.5t53 -80.5q6 -11 16.5 -18.5t23.5 -6.5q17 5 30.5 18t17.5 30zM403 496
q1 -22 -17.5 -36t-39.5 -12q-53 6 -105.5 10t-105.5 -3q0 35 1.5 69.5t3.5 69.5q52 8 104.5 5.5t104.5 -11.5q12 0 22.5 -4.5t18 -12.5t11.5 -18.5t3 -22.5q1 -8 0 -17t-1 -17z" />
    <glyph glyph-name="S" unicode="S" horiz-adv-x="572" 
d="M485 96q3 17 -3.5 32t-17.5 27q-42 49 -81 101t-78.5 103.5t-80.5 102t-87 97.5l-6 8l-1 7l6 9l9 5l4 1q23 6 47 6.5t47 4.5q30 -2 59.5 -6.5t59.5 -5.5q12 1 22.5 -6.5t11.5 -20.5q1 -9 5 -18t10 -16.5t14.5 -12t18.5 -3.5q9 -2 17.5 1t14.5 9.5t9 15.5t0 18
q-3 23 -15.5 44t-29.5 37t-37.5 28t-44.5 12q-43 0 -89 11q-29 -1 -58 -3.5t-58 -6.5q-20 -3 -39.5 -12t-34.5 -23.5t-25 -33t-12 -39.5q-1 -17 4 -33.5t15 -29.5q40 -51 83 -100t85.5 -98.5t82.5 -100t75 -105.5q3 -4 4.5 -8t3.5 -9q-6 -11 -19 -11q-54 -3 -108 -1.5
t-109 -0.5q-10 0 -18 6t-10 16q-2 17 -13 33t-31 17q-9 3 -17.5 0.5t-15 -8t-9.5 -14t-1 -17.5q1 -23 11 -44.5t25 -38.5q17 -17 38 -28.5t45 -9.5q54 5 106.5 0.5t105.5 1.5q42 5 73 36.5t37 73.5z" />
    <glyph glyph-name="T" unicode="T" horiz-adv-x="468" 
d="M437 554q-2 58 -12 113q-25 4 -50 5.5l-50 3t-50 4t-49 8.5q-57 0 -112.5 -7t-112.5 -15q-2 -26 -3 -51t-1 -51q-2 -9 1 -19.5t9 -18.5t14.5 -12.5t19.5 -2.5q12 0 20 5.5t13 14.5t7.5 20t2.5 21v11v7q22 4 44 5.5t44 3.5q5 -69 4 -137.5t-3.5 -137.5t-5 -137.5
t0.5 -137.5q0 -11 2.5 -22t7.5 -20.5t14 -16t21 -6.5q21 -1 32.5 15.5t9.5 35.5q-1 70 1.5 139.5t5.5 139t3.5 139t-5.5 139.5q43 -6 88 -6q1 -4 1 -8v-8q-2 -21 10.5 -40.5t35.5 -19.5q18 -2 32.5 11.5t9.5 32.5z" />
    <glyph glyph-name="U" unicode="U" horiz-adv-x="630" 
d="M514 136q8 119 7 237t-10 236q-2 20 -13 41.5t-34 23.5q-11 2 -19.5 -2.5t-13.5 -13t-7 -19.5t0 -20q6 -123 5 -245t-4 -245q-1 -21 -16 -36.5t-35 -16.5q-41 -6 -81 -3.5t-81 0.5q-11 -1 -20.5 3t-17 11t-11.5 16.5t-3 20.5q-7 62 -8 124t1 123.5t5.5 123.5t6.5 124
q2 9 0.5 19.5t-7 19.5t-13.5 13.5t-20 1.5q-23 -4 -33.5 -24t-12.5 -41q-5 -60 -9.5 -119.5t-7 -119.5t0 -119.5t11.5 -119.5q4 -28 14 -54t28 -48q16 -20 41 -33t51 -11q43 1 85.5 -1.5t84.5 5.5q26 5 50 18.5t42.5 33t30 44.5t13.5 52z" />
    <glyph glyph-name="V" unicode="V" horiz-adv-x="568" 
d="M491 491q-1 29 -3.5 59t-7.5 59q-1 10 -4.5 21t-10 20t-15.5 15t-21 6q-11 2 -19 -3t-12.5 -14t-6 -19.5t0.5 -19.5q3 -31 4.5 -61.5t2.5 -62.5q-38 -86 -74 -172.5t-63 -177.5q-35 88 -71.5 173t-65.5 175q1 32 3 63t2 63q1 9 -0.5 20t-6.5 20t-13 14t-20 3
q-23 -4 -34.5 -24t-12.5 -41q-2 -29 -4.5 -57.5t-4.5 -57.5q-2 -8 -0.5 -17t3.5 -17q1 -2 1.5 -4t1.5 -4q21 -56 44 -110.5t47 -109.5t47 -110t43 -111q5 -14 15.5 -23t24.5 -11q31 10 42 40q22 55 42 110.5t40.5 110.5t44 109t53.5 105q4 10 6.5 20t1.5 21z" />
    <glyph glyph-name="W" unicode="W" horiz-adv-x="617" 
d="M505 116q-2 61 -1 123t2 123.5t1.5 123t-3.5 123.5q-2 21 -14 41.5t-35 23.5q-11 3 -19 -1.5t-13 -12.5t-6.5 -18t0.5 -19q5 -126 1 -250.5t1 -250.5q-7 -11 -13 -21.5t-13 -21.5q-10 2 -19 1t-19 -1q-5 12 -11 23.5t-12 22.5q2 69 -1.5 138.5t-2.5 138.5q1 10 -1.5 20.5
t-8 19.5t-14 14t-20.5 4q-23 -2 -35 -22.5t-10 -41.5q1 -69 3.5 -137t1.5 -137q-7 -11 -12.5 -23.5t-12.5 -23.5q-10 1 -19 -0.5t-19 -1.5q-6 11 -12 21t-13 21q2 125 -4 248.5t2 248.5q0 9 -1.5 19.5t-6 18.5t-12 13t-18.5 4q-23 0 -34.5 -19t-13.5 -39q-6 -62 -5 -123.5
t3.5 -123.5t5 -123.5t0.5 -123.5q0 -10 5 -22q10 -22 20.5 -43t22.5 -41q5 -10 14.5 -17.5t21.5 -6.5q22 -1 43 1t43 4q17 2 29.5 15t15.5 30q2 -16 13.5 -28.5t27.5 -14.5q22 -2 43 -1t43 0q12 0 21.5 7.5t16.5 16.5q10 20 22 38t23 37q2 6 4.5 12.5t3.5 13.5z" />
    <glyph glyph-name="X" unicode="X" horiz-adv-x="552" 
d="M470 41q-1 9 -3.5 18t-7.5 17q-36 66 -74.5 129.5t-78.5 126.5q41 64 79.5 128t77.5 129q10 17 10 34q-5 17 -17.5 32t-30.5 20q-15 3 -25.5 -7t-15.5 -22q-29 -60 -61.5 -116.5t-66.5 -113.5q-29 58 -62.5 113t-65.5 111q-8 11 -18 21t-26 8q-17 -3 -28.5 -15.5
t-13.5 -29.5q-2 -10 2 -18.5t9 -16.5q35 -65 71 -129.5t72 -129.5q-38 -63 -75.5 -126t-72.5 -128q-10 -18 -10 -35q4 -17 15.5 -31t29.5 -16q15 -2 25 8t17 22q28 55 61.5 107.5t65.5 105.5q34 -53 65.5 -105.5t63.5 -106.5q7 -12 18 -22t26 -8q17 3 29.5 16t15.5 30z" />
    <glyph glyph-name="Y" unicode="Y" horiz-adv-x="471" 
d="M438 535q-2 18 -3 36.5t-2 36.5q-2 20 -12.5 40t-33.5 23q-11 1 -19.5 -4t-13.5 -13t-7 -18.5t0 -19.5q-1 -11 0 -22.5t2 -22.5l-64 -86l-64 -86q-36 41 -69.5 82.5t-65.5 86.5q0 11 -0.5 22.5t1.5 22.5q1 9 -1 20t-7 19.5t-13 13.5t-20 3q-11 -1 -19.5 -6.5t-14 -14.5
t-8 -19.5t-1.5 -20.5q-2 -18 -2.5 -36.5t-2.5 -36.5q44 -57 87.5 -113t91.5 -110q-2 -67 -4 -133.5t-1 -133.5q-1 -9 1.5 -20t8.5 -20t14.5 -13.5t20.5 -1.5q11 0 19 5.5t13 14.5t7 19.5t2 20.5q-2 67 2.5 133.5t9.5 132.5q44 54 83.5 110t84.5 109z" />
    <glyph glyph-name="Z" unicode="Z" horiz-adv-x="460" 
d="M428 610q-2 14 -1.5 27.5t-1.5 27.5q-45 12 -91 13.5t-92 -1.5t-92 -7.5t-92 -3.5q-20 1 -40 -10t-21 -34q-2 -11 3 -19.5t13.5 -14.5t19 -8.5t19.5 -0.5q65 0 128.5 5.5t128.5 7.5q-75 -137 -149 -273t-162 -266q1 -14 1.5 -26.5t2.5 -26.5q42 -14 85.5 -13.5t86.5 5.5
q24 3 48.5 2.5t48.5 -2.5t48 -3t48 1q21 2 40.5 15.5t19.5 37.5q2 14 -6 25q-9 5 -19 6.5t-20 1.5q-33 -1 -66.5 0.5l-67 3t-67 0.5t-66.5 -8q81 134 159 267.5t154 270.5z" />
    <glyph glyph-name="bracketleft" unicode="[" horiz-adv-x="549" 
d="M473 -57q2 11 -3 19t-13.5 12.5t-18.5 6t-19 -1.5q-40 -2 -79.5 -7t-79.5 -5q4 64 5 144.5t0.5 163.5t-2.5 163t-4 145q39 5 78.5 9t79.5 -1q8 -1 18.5 -0.5t19.5 3.5t14.5 9.5t3.5 18.5q-5 23 -23 39.5t-41 17.5q-40 2 -80 0t-80 -5t-80 -5t-80 -1q-12 -2 -25.5 -5
t-18.5 -17q-5 -11 -7 -24t-2 -26q-3 -63 -3.5 -124.5t5.5 -124.5q-5 -35 -7.5 -85.5t-2.5 -104.5t2 -104.5t5 -85.5q1 -15 4.5 -30t11.5 -28q11 -12 26.5 -14.5t29.5 -5.5q37 -2 75 -5t76 -3.5t76 1.5t75 10q21 2 41.5 15t22.5 36zM170 -28q-12 2 -24 2t-24 1q-1 30 -1.5 75
t-0.5 93q0 49 2 94t5 75q-5 68 -5.5 135.5t0.5 135.5q12 1 23.5 -0.5t23.5 0.5q2 -64 2.5 -143.5t0.5 -162.5q0 -82 -0.5 -161.5t-1.5 -143.5z" />
    <glyph glyph-name="backslash" unicode="\" horiz-adv-x="443" 
d="M419 41q-1 10 -3 19t-7 17q-81 141 -167.5 277.5t-166.5 279.5q-6 12 -17 22t-25 11q-17 -2 -29 -14t-14 -29q-1 -10 2.5 -18.5t8.5 -16.5q33 -75 74.5 -144.5t85.5 -138t88 -136.5t82 -140q5 -13 16 -22t25 -11q17 3 30 15t17 29z" />
    <glyph glyph-name="bracketright" unicode="]" horiz-adv-x="591" 
d="M491 -30q4 31 5.5 77.5t1 96.5t-3.5 96.5t-9 77.5q12 69 9.5 139t-9.5 140q-2 15 -4.5 30t-12.5 27q-12 9 -27 11.5t-29 6.5q-38 6 -76 6q-37 0 -74.5 -1.5t-75.5 -3.5t-75 -1q-21 1 -40.5 -13.5t-20.5 -37.5q-2 -11 3.5 -18.5t13.5 -12t18 -6.5t19 0q40 1 80 -0.5
t80 0.5q2 -61 3 -122t-6 -122q3 -35 5.5 -85t4 -103t1.5 -104q0 -50 -1 -84q-41 -1 -81 2.5t-80 10.5q-9 3 -19.5 2t-19 -5t-14 -12t-3.5 -19q0 -23 18.5 -37t38.5 -17q37 -11 74.5 -14t75.5 -1.5t76 6t75 9.5q15 2 30.5 6t26.5 15q12 12 14.5 28.5t7.5 31.5zM406 -24
q-11 -1 -23 -1.5t-23 -2.5q2 30 2.5 76t-0.5 95t-4 95t-7 76q8 69 7 136.5t-5 136.5q12 -1 23.5 -1.5t23.5 -1.5q4 -60 5 -119t-8 -118q4 -34 7.5 -83.5t4.5 -102t0.5 -102t-3.5 -83.5z" />
    <glyph glyph-name="asciicircum" unicode="^" horiz-adv-x="450" 
d="M411 322q1 15 -7 30q-13 39 -31.5 76t-39.5 72.5t-43 70t-42 70.5q-7 12 -17.5 21t-24.5 10q-15 -2 -25.5 -12t-16.5 -23q-18 -36 -38.5 -71t-41 -69.5t-39 -70t-30.5 -74.5q-9 -14 -9 -30q2 -15 11.5 -28t25.5 -15q11 -2 20 4t16 15q34 47 65 95t66 94
q35 -44 65.5 -90.5t59.5 -94.5q5 -8 13.5 -14.5t19.5 -4.5q17 -1 28.5 11.5t14.5 27.5z" />
    <glyph glyph-name="underscore" unicode="_" horiz-adv-x="581" 
d="M597 -159q-20 16 -42 30.5t-49 12.5q-112 1 -221.5 0t-221.5 -1q-8 -1 -17 -2t-17 -3q-6 -4 -14.5 -7t-15.5 -7t-12 -10t-5 -15q14 -19 35 -31.5t46 -13.5q112 -2 222 0.5t222 0.5q12 1 25.5 4t26 8t22.5 13t16 21z" />
    <glyph glyph-name="grave" unicode="`" horiz-adv-x="218" 
d="M188 578q-3 14 -13 23.5t-20 18.5q-15 9 -30 19l-30 20q-7 5 -15.5 7t-16.5 3q-18 -2 -33 -15t-16 -32q-1 -14 9 -24.5t21 -16.5q17 -8 32.5 -17.5t31.5 -19.5q8 -4 15 -9t16 -4q18 1 34 14t15 33z" />
    <glyph glyph-name="a" unicode="a" horiz-adv-x="574" 
d="M475 48q-2 36 -1 72t2.5 72.5t2 72.5t-3.5 72q-3 27 -16 52t-33 44t-45.5 30t-53.5 11q-33 -1 -65 -7t-65 -2q-18 1 -35 -11t-15 -31q-2 -14 5 -23t17.5 -13.5t23 -6t23.5 -0.5q27 -2 53.5 2t52.5 5q12 1 24 -2t21.5 -10.5t15.5 -18t5 -23.5q2 -11 2 -23v-23
q-11 1 -22 2.5t-22 1.5q-40 -2 -79.5 -4.5t-79.5 0.5q-27 2 -52 -6.5t-47 -24.5q-18 -13 -27.5 -34.5t-8.5 -44.5l3 -57q2 -26 14 -49.5t30.5 -41.5t42 -28.5t49.5 -10.5t50.5 -3.5t50.5 -1.5q8 0 16 2.5t15 6.5q18 8 35 18.5t34 19.5q-2 -16 9.5 -30t28.5 -9q20 2 33 18.5
t12 36.5zM389 124q-24 -14 -48 -26.5t-48 -26.5q-26 -2 -52.5 1.5t-53.5 1.5q-17 1 -31.5 13t-15.5 30q-1 11 -1 22q0 12 -1 23q-3 19 13 31.5t34 9.5q39 -2 77.5 -1t77.5 3q10 2 19 -2t15 -11t9.5 -16.5t3.5 -18.5q-1 -8 0 -16.5t2 -16.5z" />
    <glyph glyph-name="b" unicode="b" horiz-adv-x="569" 
d="M481 140q2 46 3.5 92t7.5 92q-2 25 -14 46t-31 37q-13 11 -26 22.5t-26 22.5q-20 14 -44 20t-48 4q-11 1 -23 1q-11 0 -22 -3q-24 -6 -48 -16t-43 -27q-10 -8 -20 -15.5t-19 -16.5q1 41 2.5 81.5t5.5 81.5q-2 12 0.5 24.5t-2.5 24.5q-3 11 -12.5 16.5t-20.5 5.5
q-10 -2 -19 -5.5t-16 -11.5q-5 -14 -9.5 -27.5t-4.5 -27.5q-15 -61 -17.5 -122.5t2 -123.5t12 -124.5t11.5 -123.5q1 -12 2 -24.5t4 -24.5q13 -17 35 -25q19 -3 32 11.5t10 32.5v13q8 -9 17 -17t17 -17q16 -16 38 -21.5t44 -1.5q11 2 21 3t21 2q23 2 45 5.5t41 17.5
q12 11 24.5 20t25.5 19q18 15 30.5 35.5t13.5 44.5zM395 174q0 -14 -2 -27.5t-12 -24.5q-9 -5 -17 -12t-17 -12q-12 -10 -31 -13q-11 -2 -23 -1.5t-23 -3.5h-22t-20 8q-17 14 -34.5 26.5t-34.5 26.5q-10 9 -17 18q-2 8 -3 16l-2 16q-2 17 -2.5 33.5t-2.5 33.5q-2 8 -2 12
q1 5 1 10v10q6 10 17 18q19 14 36.5 29t35.5 29q11 8 21.5 15t23.5 10q13 2 25 1.5t25 0.5q9 0 17 -4t16 -9q8 -8 18 -13.5t18 -13.5q11 -11 13.5 -25.5t0.5 -28.5q-2 -32 -2 -63q0 -30 -1 -62z" />
    <glyph glyph-name="c" unicode="c" horiz-adv-x="534" 
d="M457 41q0 9 -4 17.5t-10 15.5q-12 8 -25.5 9t-27.5 1q-35 0 -70 -2l-70 -4q-11 2 -22 4.5t-21 9.5q-18 14 -36.5 28t-35.5 29q-10 8 -13.5 19.5t-2.5 23.5q-2 18 0 36t3 36q0 12 3.5 24t13.5 20q17 15 35 30t36 31q17 16 42 19q35 5 71.5 3.5t71.5 -4.5q9 -2 21.5 -2.5
t23 2.5t17.5 11t5 22q-3 11 -8.5 20.5t-13.5 16.5q-13 5 -26 10.5t-27 4.5q-34 5 -67.5 6t-67.5 -4q-23 -3 -46.5 -11t-41.5 -25q-20 -17 -40.5 -35t-40.5 -34q-21 -16 -31.5 -39.5t-12.5 -48.5t-5 -49.5t-2 -49.5q1 -27 14 -52t34 -42t41.5 -33.5t42.5 -33.5
q20 -15 43.5 -20.5t46.5 -7.5q33 2 66.5 4t66.5 4q23 -1 47 5q20 12 23 35z" />
    <glyph glyph-name="d" unicode="d" horiz-adv-x="623" 
d="M497 68q11 125 10.5 247.5t-7.5 247.5q-1 13 -3.5 25.5t-7.5 24.5q-7 11 -16.5 19.5t-22.5 12.5q-9 2 -17 -2t-14 -10q-5 -14 -4.5 -27.5t1.5 -27.5q6 -84 3 -169q-8 10 -17.5 17.5t-17.5 16.5q-17 17 -40 21.5t-46 2.5q-11 0 -22.5 1.5t-22.5 -0.5q-24 1 -47.5 -4
t-42.5 -20q-12 -11 -24.5 -20.5t-25.5 -20.5q-19 -14 -31 -35t-14 -44q2 -47 4 -93.5t4 -93.5q1 -23 13 -44t29 -36q12 -11 23.5 -23t24.5 -23q18 -16 40.5 -24t45.5 -10q11 -2 21 -2.5t21 -1.5q23 5 44 14.5t38 25.5q8 10 18 18t18 18l-1 -10v-4q-2 -9 0.5 -18t7.5 -15.5
t13 -10t18 -0.5q23 5 34 24q8 12 9.5 25.5t3.5 27.5zM419 194q1 -8 -1 -16.5t-3 -16.5q-4 -5 -7.5 -10t-8.5 -9q-19 -14 -35.5 -30t-33.5 -31q-9 -8 -20 -13.5t-22 -7.5q-12 2 -23.5 3.5t-23.5 3.5q-17 0 -32 15l-9 9q-6 6 -12 10t-12 9q-9 11 -12 26t-3 29q0 32 -1 63
t-3 63q-2 14 1 28t14 25q8 7 16.5 14t17.5 13q16 9 34 11q12 -2 24 -2t24 -2q11 2 21.5 0t20.5 -9q17 -13 33 -26.5t32 -27.5q2 -2 5 -3.5t5 -3.5t4 -4.5t3 -4.5v-1q1 0 1 -1q6 -17 6 -33q2 -35 0 -70z" />
    <glyph glyph-name="e" unicode="e" horiz-adv-x="603" 
d="M486 41q2 9 -1.5 18t-10.5 14q-13 5 -26 5h-27l-186 -3q-11 0 -22.5 2.5t-20.5 10.5q-5 8 -12 13t-14 11q-8 7 -11 16t-4 19l-1 10v9q69 1 138.5 3t138.5 0q16 -1 31.5 1.5t29.5 11.5q9 12 11 27.5t1 29.5q-3 17 -4 35t-3 35q-2 26 -12 49t-30 40q-13 11 -26.5 22.5
t-27.5 22.5q-16 14 -35.5 20.5t-39.5 10.5q-20 3 -40 4t-40 -5q-24 -5 -48 -13t-43 -25q-13 -11 -26 -21.5t-26 -21.5q-19 -14 -29 -35t-13 -44q-5 -39 -2 -78.5t9 -77.5q2 -14 3.5 -27t4.5 -26q4 -14 13 -25l18 -22q14 -13 28 -25.5t28 -25.5q18 -11 39 -14.5t42 -3.5
q43 -1 86 2.5t86 3.5q12 0 24.5 2.5t23 8t17.5 14.5t9 22zM408 253q-67 5 -133 2t-133 -5v25t1 25t6 25.5t15 20.5q7 6 13.5 12t14.5 11q8 6 17.5 10.5t20.5 5.5q24 5 48 5t48 -3q11 -2 19.5 -7t16.5 -12q14 -13 29 -23q8 -7 10 -16t4 -19q-1 -14 0.5 -28.5t2.5 -28.5z" />
    <glyph glyph-name="f" unicode="f" horiz-adv-x="406" 
d="M374 590q0 11 -5.5 21t-12.5 18q-12 9 -26 13t-28 6q-15 2 -29.5 3.5t-29.5 0.5q-32 2 -60.5 -12t-49.5 -37.5t-33.5 -54t-12.5 -61.5v-29h-12q-11 1 -23 0.5t-23 -4t-18.5 -11.5t-8.5 -22q0 -14 6.5 -23.5t17 -15.5t23 -8t23.5 0h12q-6 -80 -0.5 -159.5t3.5 -159.5
q0 -12 0.5 -24.5t4.5 -24.5q7 -8 16 -15.5t21 -5.5q11 0 20 6.5t14 15.5q6 13 6.5 27t2.5 28q2 81 -1.5 161.5t0.5 161.5q15 9 31.5 6.5t33.5 -0.5q25 -3 51 3q9 7 15 16.5t5 20.5q0 20 -17 35q-13 7 -26.5 8.5t-27.5 1.5q-16 0 -32 1.5t-32 -5.5v11v18q0 24 12 45
q12 9 26 16t30 5q17 -1 33 -1t33 -2q13 -1 24.5 -3.5t24.5 -0.5q9 4 14 12.5t5 17.5z" />
    <glyph glyph-name="g" unicode="g" horiz-adv-x="617" 
d="M504 -7q-3 100 -3 200t-1 200q-2 13 -2.5 25.5t-6.5 24.5q-7 11 -16.5 19.5t-21.5 10.5t-20 -3t-12.5 -13.5t-6 -19t0.5 -19.5q-21 19 -45 36q-14 14 -33 20t-38 8q-14 -2 -28.5 -5t-28.5 -2q-21 -4 -42 -11t-37 -24q-10 -8 -19.5 -15.5t-19.5 -15.5q-22 -16 -32.5 -41
t-11.5 -51q-1 -36 -0.5 -72.5t-1.5 -72.5q-2 -25 9.5 -46t29.5 -37q12 -11 24.5 -21.5t24.5 -21.5q15 -11 33 -15.5t37 -6.5q16 -2 32 -2h32q22 2 42 10.5t36 24.5q10 9 18.5 19.5t19.5 18.5q-1 -27 0.5 -54t0.5 -54q1 -12 -1.5 -23.5t-9.5 -21.5q-17 -17 -35 -32
q-8 -9 -19 -12.5t-22 -5.5q-39 -8 -78.5 -3t-78.5 8q-8 2 -17.5 0.5t-17 -6t-12 -12t-2.5 -17.5q2 -11 6.5 -21t13.5 -17q12 -7 25.5 -10t27.5 -5q17 -1 34.5 -3.5t34.5 -4.5t34 -1.5t34 5.5q25 3 47 14.5t39 28.5q12 11 24 21.5t24 21.5q12 8 20 20.5t13 26.5q2 14 3 27.5
t0 27.5zM415 227q0 -12 -6.5 -22t-14.5 -18q-17 -14 -33 -28.5t-32 -28.5q-7 -8 -16 -12t-19 -6q-14 -2 -27 -1t-27 0q-20 0 -35 12q-8 8 -15.5 14t-15.5 14q-13 17 -11 42q2 29 0.5 56.5t0.5 56.5q-2 25 12 42q8 6 16 12.5t16 13.5q8 5 16.5 9.5t18.5 4.5q14 -1 26.5 2
t26.5 3q10 -2 19 -5t16 -10q16 -13 32 -25.5t32 -26.5q10 -7 15 -18t5 -23v-58z" />
    <glyph glyph-name="h" unicode="h" horiz-adv-x="562" 
d="M474 49q0 4 0.5 7t0.5 7q5 68 4.5 135t-10.5 134q1 26 -8.5 52t-27.5 46.5t-42.5 31.5t-52.5 8h-24t-24 -1q-22 1 -41 -9.5t-37 -21.5q-20 -14 -40.5 -27.5t-40.5 -26.5q-2 45 0.5 88t5.5 87q-1 13 1 25.5t-2 24.5q-5 10 -14 16t-20 5q-10 0 -19.5 -4t-15.5 -12
q-7 -12 -9.5 -25.5t-4.5 -27.5q-7 -62 -8 -123.5t1 -123t5.5 -123.5t5.5 -123q1 -13 2 -25.5t6 -24.5q6 -11 15.5 -18t20.5 -12q14 -4 22.5 2t13 16.5t5 23t-0.5 22.5q-5 117 -6 234q32 19 62.5 39t58.5 44q10 7 21 11.5t23 5.5q8 0 15 -0.5t15 0.5q13 3 23 -2.5t17 -15
t10.5 -21.5t4.5 -23q5 -65 7.5 -129.5t-2.5 -129.5q1 -12 0.5 -24t1.5 -24q4 -11 13.5 -14.5t19.5 -4.5q11 -1 19.5 3.5t15 11.5t10 16.5t4.5 19.5z" />
    <glyph glyph-name="i" unicode="i" horiz-adv-x="395" 
d="M228 611q0 3 -0.5 6t-0.5 6q0 10 -0.5 20t-4.5 20q-7 10 -15 17q-9 9 -21 8t-22 -7q-4 -2 -8 -3t-7 -3q-25 -3 -39 -25t-14 -45v-12q0 -11 2 -21t12 -17q24 -4 51 2q4 2 7.5 2.5t6.5 2.5q8 3 16 4.5t16 3.5q21 16 21 41zM351 41q3 22 -14 35q-13 5 -26.5 6.5t-27.5 -0.5
q-13 -2 -26 -3t-26 -3q2 81 0.5 162.5t-3.5 162.5q0 15 -1.5 30.5t-12.5 26.5q-12 12 -28.5 10.5t-30.5 -4.5q-22 -5 -44.5 -7.5t-45.5 -1.5q-8 1 -17.5 -0.5t-17 -6t-12.5 -12t-3 -17.5t6 -19.5t12 -16.5q12 -8 26 -10.5t28 -1.5q14 0 27.5 1.5t27.5 3.5q3 -78 1 -154.5
t1 -154.5q-14 1 -29 1q-14 0 -28 1q-13 1 -25 2t-25 0q-9 -4 -13.5 -12.5t-3.5 -18.5q2 -11 7 -20.5t11 -18.5q12 -8 26 -12t28 -5q21 -1 41.5 -2t41.5 -4q26 7 51.5 12.5t51.5 7.5q12 1 24 3l24 4q8 7 16 16t9 20z" />
    <glyph glyph-name="j" unicode="j" horiz-adv-x="449" 
d="M367 620q1 13 -4 23.5t-14.5 17.5t-21.5 11t-23 4q-10 2 -15 2l-16 2t-16 -3q-7 -12 -12 -25t-3 -27v-11q-2 -14 4 -25t15.5 -18.5t22 -11t24.5 -2.5q4 -1 7 -1.5t7 -1.5q13 -1 26.5 3t17.5 18q3 11 2.5 22.5t-1.5 22.5zM370 -31q-2 106 2 212t6 212q0 14 -1.5 29.5
t-12.5 26.5q-13 11 -28.5 13.5t-31.5 4.5q-32 2 -62.5 5t-62.5 5q-20 2 -37 -11t-15 -35q2 -10 5 -19t11 -15q14 -4 28.5 -6.5t28.5 -0.5q23 -1 46 -3.5t46 -3.5l-4 -212t-2 -212q0 -11 0.5 -23.5t-7.5 -22.5q-6 -11 -16.5 -15.5t-22.5 -5.5q-18 1 -36.5 0t-36.5 -2
q-17 0 -28.5 11.5t-15.5 26.5q-4 16 -16.5 27.5t-28.5 14.5q-15 3 -28.5 -7t-12.5 -26q2 -25 13.5 -47t27.5 -40q17 -20 39.5 -33.5t49.5 -14.5q16 0 31.5 3t32.5 0q30 2 56 16.5t44.5 37.5t29 51.5t9.5 58.5z" />
    <glyph glyph-name="k" unicode="k" horiz-adv-x="561" 
d="M472 42q1 16 -10.5 27t-22.5 20q-48 42 -97.5 82t-101.5 77q38 35 76 69.5t82 60.5q14 8 26 19t14 28q0 18 -14 30t-30 17q-14 -2 -25.5 -9t-22.5 -15q-54 -44 -107.5 -87t-105.5 -90q-2 37 -0.5 74.5t4 74.5t4.5 74t2 75q0 13 0.5 26t-3.5 25q-6 8 -15 13t-19 3
q-11 -1 -19 -7t-15 -13q-6 -13 -8.5 -26.5t-4.5 -27.5q-9 -124 -13 -247t12 -247q2 -12 3 -24.5t7 -23.5q7 -10 17.5 -15t21.5 -7q14 -2 21.5 4.5t11 17t3.5 22.5q0 13 -1 22q-2 24 -2.5 47.5t-1.5 47.5q9 8 18 15t17 15q50 -45 104 -83t104 -82q11 -9 22 -17t25 -10
q17 2 29.5 15t14.5 30z" />
    <glyph glyph-name="l" unicode="l" horiz-adv-x="359" 
d="M329 41q0 9 -3.5 18t-11.5 14q-12 6 -25.5 7t-27.5 -1q-13 -2 -26 -3l-26 -2q2 125 4.5 249.5t-4.5 249.5q-1 15 -2 30.5t-12 26.5q-13 8 -27.5 5t-28.5 -1q-17 -1 -34.5 0t-34.5 1q-12 0 -24 -0.5t-23 -5.5q-16 -17 -20 -39q0 -9 4.5 -17t10.5 -15q13 -5 26 -5.5
t26 -1.5q14 -1 27 -1q14 0 28 -1q3 -60 2 -120t-2.5 -120t-2 -120t1.5 -120h-57q-3 0 -5.5 0.5t-5.5 0.5t-5.5 -0.5t-5.5 -0.5q-6 2 -12.5 1.5t-12.5 -0.5q-8 -5 -14 -12t-4 -17q0 -11 5 -21t12 -19q11 -9 24 -12t27 -4q48 -2 94.5 -0.5t93.5 10.5q25 2 47 9q9 7 15.5 16.5
t8.5 20.5z" />
    <glyph glyph-name="m" unicode="m" horiz-adv-x="583" 
d="M474 49q-2 38 1.5 76.5l7 77t3 77t-10.5 76.5q-3 20 -11.5 40.5t-22 36.5t-32 26.5t-40.5 10.5q-16 1 -31.5 -4.5t-26.5 -17.5q-5 -5 -9 -10t-9 -10q-14 17 -34 29.5t-43 11.5q-29 -1 -55 -21q-4 -5 -8.5 -9t-9.5 -9q-3 13 -14 24t-25 8q-20 1 -32.5 -15.5t-11.5 -34.5
q2 -43 0 -86t-4.5 -86t-2 -86t6.5 -86q2 -13 2.5 -25.5t5.5 -24.5q6 -9 15 -16.5t20 -9.5q10 0 19 3t15 11q10 27 5 54q-5 33 -4.5 65.5t2.5 65.5t3.5 66t0.5 66q11 11 23 22t23 22l9 6q2 0 3 0.5t3 0.5q11 -1 17.5 -9t5.5 -19q4 -35 2.5 -70.5t-4 -71t-4 -71t1.5 -70.5v-10
t2 -10q1 -7 1.5 -14t2.5 -14q6 -8 15 -14t20 -7q10 0 19.5 3t15.5 11q5 13 8 27t1 28q-3 33 -1 66.5t5 66.5t5 66t-2 66q9 10 17.5 19.5t18.5 17.5l8 7l8 1q11 -2 16 -11.5t6 -20.5q8 -35 7.5 -69.5t-3 -69l-5 -69t0.5 -68.5q2 -12 1.5 -24t1.5 -23q4 -11 14 -16t21 -2
q20 0 34 15t12 34z" />
    <glyph glyph-name="n" unicode="n" horiz-adv-x="572" 
d="M473 48q0 4 1 7t-1 7q5 68 3.5 135t-5.5 134q-2 26 -12 52t-27 46.5t-41 32.5t-52 11q-11 2 -22.5 1t-22.5 -1q-21 1 -39.5 -9t-34.5 -21q-20 -14 -39.5 -27t-40.5 -25v11q1 9 0 19.5t-5 20t-11 15.5t-19 6q-20 -3 -35 -18q-8 -12 -10 -25.5t-4 -27.5q4 -81 3 -161.5
t-3 -161.5q2 -13 3.5 -25.5t6.5 -24.5q8 -8 17.5 -15.5t21.5 -7.5q9 0 17.5 3t13.5 11q4 14 4 27v27q-2 58 3.5 115.5t-0.5 115.5l60 38t58 41q10 6 21.5 9t22.5 4q7 1 13 1h14q13 1 23.5 -4t17.5 -14.5t10.5 -21t2.5 -23.5q6 -65 5.5 -129t-2.5 -130q-1 -12 0.5 -24.5
t3.5 -24.5q6 -8 15 -14t20 -6q20 -1 33 15.5t12 35.5z" />
    <glyph glyph-name="o" unicode="o" horiz-adv-x="609" 
d="M491 143q7 44 10 87.5t0 87.5q-2 26 -15.5 49t-33.5 40q-10 8 -18 15.5t-18 15.5q-20 15 -43.5 27.5t-49.5 13.5q-44 1 -87 -6q-26 -2 -48 -13t-42 -27q-8 -8 -17.5 -14t-17.5 -14q-20 -17 -33 -39t-15 -48q-3 -44 -3 -88q0 -43 2 -87q2 -26 15 -49t32 -40q9 -7 17.5 -14
t17.5 -14q20 -14 44 -24t49 -9q22 -2 43 -2q22 0 44 -2q25 -2 47 9.5t40 27.5q8 8 16 14.5t17 14.5q20 17 31 40t16 48zM404 152q0 -11 -5 -22t-15 -18q-6 -6 -12.5 -10t-12.5 -10q-11 -8 -23 -12.5t-26 -3.5q-17 2 -33.5 2.5t-33.5 -0.5q-14 0 -27 3.5t-24 11.5
q-7 4 -12.5 9t-12.5 9q-19 14 -19 39q-1 40 0.5 80t2.5 80q2 11 6.5 21.5t13.5 18.5q8 4 13 9.5t12 10.5q11 9 24.5 12.5t27.5 5.5q17 4 34.5 3t34.5 1q28 -2 50 -19q6 -5 12.5 -10t12.5 -10q9 -7 13.5 -18t5.5 -22q2 -41 0 -80.5t-7 -80.5z" />
    <glyph glyph-name="p" unicode="p" horiz-adv-x="594" 
d="M483 167l3 108q1 32 -11.5 62.5t-36.5 51.5q-17 16 -35 31.5t-37 29.5t-39 25.5t-44 10.5h-10t-10 -2q-26 -3 -45 -18.5t-36 -33.5q-8 -8 -16.5 -16t-17.5 -16v9t1 9q3 17 -7 34t-30 12t-34 -20q-7 -12 -10 -25t-5 -27q-5 -59 -5.5 -117.5t9.5 -116.5q-5 -66 -6 -132
t5 -132q2 -13 3.5 -25.5t6.5 -24.5q13 -22 36 -30q9 -1 18 1t14 10q5 13 4.5 26.5t0.5 27.5q-2 39 -2 78v79q8 -8 16.5 -16t16.5 -16q17 -17 39.5 -25.5t45.5 -9.5h10q6 0 11 1q24 3 45.5 14t39.5 26l69 57q24 17 33 44.5t10 55.5zM399 181q-2 -11 -4 -23.5t-11 -20.5
q-19 -17 -37 -34.5t-38 -34.5l-9 -6l-10 -3l-5 -1l-11 -1l-4 -1q-18 1 -33 16q-36 31 -69 66q-8 8 -14 18t-6 21q-2 21 -3 41.5t-2 41.5q0 23 18 39q19 17 36.5 36t36.5 37q8 8 15.5 13.5t17.5 9.5q4 1 7 1q4 0 8 1q7 1 13 -2t11 -7q20 -15 39.5 -31.5t38.5 -33.5
q9 -8 13 -20t3 -24q1 -25 -0.5 -49t-0.5 -49z" />
    <glyph glyph-name="q" unicode="q" horiz-adv-x="516" 
d="M431 -105q1 62 7 124.5t10.5 125t4 124.5t-12.5 124q-2 13 -3.5 26t-8.5 24q-6 11 -16.5 17t-22.5 8q-9 1 -16.5 -3t-12.5 -11.5t-6.5 -16.5t0.5 -17t2 -13q-9 8 -19.5 15.5t-18.5 16.5q-18 15 -40.5 20.5t-45.5 3.5q-11 2 -21 2.5t-21 2.5q-22 2 -44 -2t-39 -20
q-11 -12 -23.5 -21t-22.5 -21q-17 -16 -26.5 -36.5t-10.5 -43.5q-2 -47 -0.5 -93t1.5 -93q-2 -23 7.5 -43.5t23.5 -37.5q11 -10 22.5 -20t22.5 -20q18 -15 41 -18.5t46 -4.5q11 2 22 0.5t22 0.5q23 1 45.5 10t40.5 23q8 10 19 16.5t19 16.5q-5 -42 -6 -83.5t-2 -83.5
q-1 -10 0 -22.5t5.5 -23t13 -17.5t22.5 -5q10 2 18.5 5t13.5 12q8 12 8 26q0 13 2 26zM367 202l-1 -10l-1 -10l-1 -10l-1 -3q-2 -6 -7 -9.5t-10 -7.5q-17 -15 -35 -29l-36 -28q-10 -8 -21 -12.5t-23 -5.5t-24 0.5t-24 0.5q-9 -1 -17 3t-15 9q-8 7 -15 13.5t-15 12.5
q-8 11 -9.5 25t-1.5 28q1 32 -0.5 62.5t-0.5 62.5l2 28t11 25q16 14 32 26q12 9 31 11q12 -2 23.5 -2.5t23.5 -2.5q23 0 43 -12q19 -11 35.5 -25t34.5 -26q5 -4 9 -8t7 -9q3 -8 3.5 -16t1.5 -16q0 -17 1.5 -32.5t-0.5 -32.5z" />
    <glyph glyph-name="r" unicode="r" horiz-adv-x="459" 
d="M424 335q-2 27 -13.5 52t-30.5 44.5t-43.5 31t-52.5 10.5q-9 0 -18.5 1.5t-18.5 -0.5q-23 4 -45 -6t-38 -26q-18 -17 -37 -33t-38 -33v10q0 6 1 11q-2 12 -1.5 24.5t-3.5 24.5q-6 8 -15.5 14t-20.5 4q-21 -2 -32 -19q-6 -12 -7.5 -25.5t-1.5 -27.5q-2 -81 -6 -161.5
t-1 -161.5q-2 -28 10 -50q8 -8 17.5 -15.5t20.5 -9.5q14 -2 21 5.5t10 18.5t3 23v22q-1 51 0 100.5t4 100.5q34 26 66 54t64 57q9 7 20 9t22 3q8 0 17 -1t17 0q20 3 33 -13t13 -34v-10q-2 -18 10.5 -33.5t31.5 -14.5q11 -2 19.5 3t14 13t8 18.5t1.5 19.5z" />
    <glyph glyph-name="s" unicode="s" horiz-adv-x="484" 
d="M432 121q5 36 -13.5 70t-52.5 48q-56 24 -114.5 41.5t-112.5 47.5q-8 6 -17 12t-11 17q0 13 12 20t23 4q38 -5 76 -2t76 7q10 -2 19.5 -2.5t17.5 -7.5q8 -9 18 -16t23 -9q17 -2 30 9t12 28q0 3 -0.5 5.5t-0.5 5.5q-2 2 -3 5t-3 5l-6 9q-2 2 -4 3.5t-4 3.5
q-6 6 -11.5 12.5t-12.5 11.5q-16 14 -36 19t-40 4q-37 -2 -73 -5t-74 0q-23 2 -46 -5.5t-41 -22.5t-29.5 -36t-11.5 -45q-2 -17 3 -31.5t14.5 -27t22.5 -22t27 -15.5q28 -12 55.5 -25.5t55 -26.5t55.5 -25t57 -21q11 -5 21 -14t8 -23q1 -23 -18 -36.5t-40 -13.5
q-34 -9 -68 -9t-69 4q-14 2 -29 5.5t-25 15.5q-16 16 -37 19q-15 3 -29 -9.5t-12 -28.5q2 -13 11.5 -22.5l18.5 -18.5q5 -5 10 -9t10 -9q19 -14 41 -19.5t45 -7.5q38 -8 75 -5t74 11q25 1 48.5 11.5t42.5 27.5t30.5 39.5t11.5 48.5z" />
    <glyph glyph-name="t" unicode="t" horiz-adv-x="452" 
d="M417 112q-2 15 -13.5 27t-27.5 10q-16 -1 -30 -11t-17 -26q-4 -17 -16.5 -28.5t-29.5 -11.5t-32.5 -2.5t-32.5 -2.5q-13 -1 -22 5t-15 16t-8.5 21.5t-1.5 22.5q-2 62 0.5 123t0.5 123q33 -4 66.5 2.5t66.5 3.5q12 2 24.5 1t24.5 3q22 10 22 35q1 11 -4 20t-13 16
q-13 5 -26.5 7t-27.5 3q-33 3 -66.5 -3.5t-66.5 -2.5v75v26t-5 25q-5 11 -15.5 15.5t-21.5 5.5q-14 -1 -22.5 -8.5t-13.5 -18.5t-6.5 -24t-0.5 -24q-1 -18 -0.5 -36.5t-1.5 -36.5h-17t-17 -1q-18 2 -35 -9t-16 -31q1 -21 18 -34q12 -5 25 -7t27 -2h16q5 -60 1 -121t-2 -121
q1 -24 5 -47.5t17 -44.5q17 -28 46 -48t64 -15q16 -1 31.5 0.5t31.5 3.5q30 3 57 16.5t47 36.5q13 16 22.5 34.5t10.5 39.5z" />
    <glyph glyph-name="u" unicode="u" horiz-adv-x="588" 
d="M473 68q5 38 7.5 76.5t8.5 76.5q-1 44 -6 87t-10 87q-4 12 -4.5 24.5t-5.5 24.5q-6 10 -16.5 15.5t-21.5 9.5q-9 0 -18.5 -3.5t-14.5 -11.5q-5 -13 -5 -26t1 -27q4 -59 10.5 -117.5t-5.5 -116.5q-32 -19 -63 -39t-63 -41q-10 -7 -21.5 -9.5t-23.5 -4.5q-15 1 -30 0
q-13 -2 -23 3.5t-17 14.5t-10.5 21t-1.5 23q2 66 0 130t-3 130q0 12 -0.5 24.5t-1.5 24.5q-4 11 -14 14.5t-20 5.5q-19 -2 -32 -16.5t-15 -34.5q-4 -71 -2.5 -141t2.5 -141q1 -27 11 -54t28 -47.5t43 -32.5t54 -9q11 2 23 0.5t23 -0.5q20 -1 38.5 6.5t34.5 18.5q20 14 39 29
t40 27v-7q0 -9 1 -21t5 -21.5t11.5 -16t19.5 -4.5q10 1 18.5 5.5t16.5 11.5q7 12 9.5 25t3.5 27z" />
    <glyph glyph-name="v" unicode="v" horiz-adv-x="529" 
d="M455 355q-1 12 -3 24t-3 24q-1 10 -4 21t-8.5 20t-13.5 15.5t-20 8.5q-19 2 -32 -13q-5 -13 -6 -26.5t1 -27.5q2 -9 1.5 -18t1.5 -18q-23 -75 -55.5 -144.5t-68.5 -138.5q-29 72 -62 142l-66 140v36q0 12 0.5 24.5t-3.5 24.5q-5 10 -14.5 14.5t-20.5 4.5
q-22 -4 -32.5 -24.5t-10.5 -40.5q-1 -6 -1.5 -11.5t-0.5 -11.5q0 -9 -1 -18t0 -18q5 -8 7.5 -16t7.5 -16q34 -70 63 -141t64 -141q7 -14 17.5 -28t28.5 -13q11 0 21 2.5t21 2.5q19 3 28.5 17.5t18.5 28.5q17 34 36.5 67t37.5 66.5t34 68t27 71.5q3 11 7 21t3 21z" />
    <glyph glyph-name="w" unicode="w" horiz-adv-x="569" 
d="M464 415q1 18 -10.5 34.5t-30.5 18.5q-11 1 -22 -2.5t-16 -14.5q-3 -11 -3 -23t-1 -24q2 -53 5 -105.5t-7 -105.5q-8 -20 -15.5 -39t-15.5 -39q-12 18 -22 37.5t-21 38.5q2 17 1.5 34t0.5 34q0 10 -1.5 23t-6.5 23.5t-14 16.5t-23 2q-10 -1 -19.5 -4.5t-14.5 -11.5
q-5 -13 -6.5 -26.5t-1.5 -27.5q1 -17 -0.5 -34.5t-0.5 -34.5q-13 -20 -24 -40.5t-25 -40.5q-6 20 -13 40.5t-13 40.5q-2 54 -3 107.5t-5 107.5q1 13 -0.5 25t-3.5 24q-4 11 -14.5 15.5t-20.5 3.5q-20 -2 -32 -18.5t-11 -35.5q2 -60 1.5 -120.5t4.5 -120.5q11 -35 23.5 -70
t23.5 -70q3 -9 7 -17l8 -16q13 -13 30 -16q5 -1 11 -1h11q9 -2 15.5 1t11.5 9t9 13t9 13q11 17 20 33.5t20 33.5q11 -14 20.5 -29t20.5 -29q7 -13 18.5 -23.5t27.5 -8.5q5 1 10.5 1.5t10.5 0.5q8 0 16 2.5t13 10.5t7.5 15.5t5.5 15.5q13 33 25 66.5t28 65.5q7 27 9 54
t0.5 54.5t-4 55t-2.5 54.5q-1 6 -1 11v12z" />
    <glyph glyph-name="x" unicode="x" horiz-adv-x="599" 
d="M487 44q0 9 -4 17.5t-10 15.5q-3 3 -6 6.5t-6 6.5q-32 38 -67 73t-70 71q32 36 65 71t65 70q3 3 5.5 6.5t6.5 5.5q6 7 11 15t4 18q-1 17 -14.5 31t-30.5 15q-16 1 -27 -10t-21 -22q-31 -35 -60 -70t-60 -70q-29 32 -55 66.5t-52 69.5q-9 11 -20 22t-26 13q-18 -3 -31 -16
t-16 -31q0 -20 13 -32l6 -9l4 -4q27 -38 56 -74t58 -71q-28 -37 -56.5 -72.5t-59.5 -70.5q-7 -10 -13.5 -20t-8.5 -22q5 -17 17 -33t31 -20q16 -1 26 10.5t20 21.5q28 37 55.5 73.5t54.5 73.5q33 -31 62.5 -65t57.5 -69q9 -11 19.5 -22.5t25.5 -14.5q18 2 32.5 15t18.5 31z
" />
    <glyph glyph-name="y" unicode="y" horiz-adv-x="482" 
d="M431 379q1 6 0 12t-1 12q0 10 -2.5 21t-8 20.5t-13.5 15.5t-20 6q-10 3 -18.5 -2t-14.5 -12q-5 -13 -6 -26t-1 -27q2 -9 1.5 -18.5t-0.5 -18.5q-29 -63 -53.5 -126.5t-55.5 -125.5q-11 -1 -14 -0.5t-5 0.5q-28 64 -61 125t-59 127q0 9 0.5 18.5t0.5 18.5q1 12 0.5 24.5
t-2.5 24.5q-4 11 -14 16t-21 3q-23 -3 -33.5 -24t-12.5 -41v-12t-1 -12q0 -9 -0.5 -18t-1.5 -18q5 -8 7.5 -15.5t7.5 -15.5q26 -63 58 -122.5t55 -124.5q5 -14 15 -25t25 -13q3 0 6 0.5t6 0.5q-16 -32 -33 -62.5t-31 -63.5q-17 0 -33 2.5t-33 1.5q-8 3 -17.5 1t-17 -7
t-12 -13t-1.5 -18q4 -19 21 -34q12 -8 26 -10l28 -4q16 -2 31 -3t31 -3q8 -2 15.5 -0.5t15.5 3.5q6 6 10 13t9 14q23 60 51.5 117.5t58 115t57 115.5t47.5 119q5 8 8 15.5t6 15.5q2 9 1 18.5t-1 18.5z" />
    <glyph glyph-name="z" unicode="z" horiz-adv-x="515" 
d="M439 41q-1 9 -3.5 18t-10.5 15q-14 5 -27.5 5.5t-27.5 -0.5q-60 -5 -119 -5t-119 -1q75 71 146.5 144t154.5 135q7 7 11.5 16t3.5 20q-1 3 -0.5 6.5t-1.5 6.5q0 11 -4 22t-9 21q-13 14 -31 19t-35 7q-66 0 -131 -5t-131 -4q-19 2 -36 -10t-19 -32q0 -9 2 -18t10 -15
q12 -8 26 -8h28q56 0 111 2.5t111 4.5q-72 -69 -144.5 -136.5t-144.5 -136.5q-10 -7 -17 -17t-3 -23v-4q2 -15 3.5 -30.5t11.5 -28.5q11 -11 26 -14t29 -5q68 1 134 1q67 0 134 4q12 3 24.5 2.5t23.5 6.5q9 7 15.5 16.5t8.5 20.5z" />
    <glyph glyph-name="braceleft" unicode="{" horiz-adv-x="533" 
d="M464 -57q0 22 -20 31t-38 5q-29 -2 -57 -4t-57 0q0 21 1 50t1.5 59.5t0.5 59.5t-1 50q0 23 -9.5 45.5t-27.5 38.5q17 19 27 42.5t10 49.5q0 21 0.5 50.5t0.5 60.5v60q0 30 -1 51q29 4 57 2t57 -4q9 -3 19.5 -2t19.5 5t14 11.5t4 19.5q-1 23 -20 36.5t-39 16.5
q-28 5 -56.5 6.5t-56.5 -3.5q-16 -5 -31 -14t-27 -21.5t-19.5 -28t-7.5 -33.5v-48t-0.5 -57.5t-1.5 -57.5t-1 -48q1 -10 -2.5 -20t-10.5 -18t-17 -12t-20 -2q-17 1 -34 1t-34 2q-10 1 -20.5 -1.5t-19.5 -7.5t-14.5 -13.5t-5.5 -19.5t6 -20t14.5 -15t19 -9t20.5 -2
q17 -3 34 -1.5t34 -0.5q20 2 35 -11.5t15 -33.5v-213q0 -18 7.5 -33.5t20.5 -27.5t29 -19t33 -9q28 -4 55.5 -0.5t55.5 6.5q20 2 39 14.5t19 36.5z" />
    <glyph glyph-name="bar" unicode="|" horiz-adv-x="197" 
d="M133 -161q2 228 2 452q0 225 -2 453q-6 15 -17 18.5t-23 0.5t-23.5 -10t-20.5 -13q-3 -227 -3.5 -451t3.5 -451q5 -9 14.5 -14.5t18.5 0.5q10 10 25 10t26 5z" />
    <glyph glyph-name="braceright" unicode="}" horiz-adv-x="482" 
d="M450 282q-5 24 -26.5 34.5t-44.5 10.5h-70q-21 0 -38.5 15t-14.5 38v49t0.5 58t1 58.5t-0.5 49.5q0 17 -7 34.5t-18.5 31t-28 21t-35.5 3.5q-28 -6 -56 -7t-57 -5q-20 -2 -39 -14t-20 -35q-2 -11 3 -19.5t13.5 -13.5t19 -6.5t19.5 0.5q29 5 59 5t59 5q0 -21 -0.5 -50.5
t-1.5 -60.5t-1.5 -60.5t-0.5 -50.5q0 -51 38 -86q-34 -37 -34 -89q1 -21 1 -50t-0.5 -60t-1 -60t-0.5 -50q-29 0 -58 1l-58 2q-9 2 -19.5 0.5t-19 -6.5t-14 -13t-4.5 -19q3 -23 21.5 -35.5t39.5 -13.5q29 -1 56.5 -3t56.5 -3q17 -1 32.5 6t27.5 19.5t19.5 28.5t7.5 33
q0 21 1 49.5t1.5 58.5t1.5 58.5t1 49.5q-2 10 2.5 19t12 15.5t17.5 9t20 1.5q17 1 35 2t35 1q10 0 21.5 2t21.5 7.5t16.5 13.5t7.5 20z" />
    <glyph glyph-name="asciitilde" unicode="~" 
 />
    <glyph glyph-name="quotesinglbase" unicode="&#x201a;" 
 />
    <glyph glyph-name="florin" unicode="&#x192;" horiz-adv-x="625" 
d="M596 597q-2 11 -7.5 21t-15.5 15q-10 6 -20.5 7.5t-21.5 3.5q-14 1 -29 2.5t-29 1.5q-32 3 -63 -7.5t-55.5 -30.5t-40 -48.5t-17.5 -61.5q-1 -8 -1.5 -15t-2.5 -15q-8 1 -15.5 -1t-15.5 -1q-22 -1 -42 -15.5t-18 -39.5q0 -17 15 -26.5t31 -5.5h16t16 1q-3 -51 -14 -100
t-24.5 -97.5t-26.5 -97t-19 -98.5q0 -15 -7 -26.5t-18.5 -19.5t-25.5 -11.5t-27 -0.5q-17 3 -33.5 3.5t-33.5 4.5l-28 2t-27 -6q-15 -14 -14 -32q2 -11 9 -20t15 -17q10 -5 21 -6.5t22 -4.5q14 -2 29 -3.5t29 -3.5q44 -7 86 12.5t65 57.5q5 10 10.5 19.5t7.5 20.5
q6 26 11 51.5t10 51.5q9 40 20 80.5t21.5 81t18 81t9.5 82.5q17 1 32 1q16 0 33 1q16 0 32 2t30 12q7 8 11.5 16.5t4.5 19.5q-1 10 -7.5 19t-15.5 13q-11 3 -22 3h-22q-16 -1 -32 -1q-15 0 -31 -1q1 8 1.5 14.5t1.5 14.5q0 14 6.5 26.5t17.5 21t24.5 13t27.5 2.5q17 1 33 0
t33 -2q14 1 29 -1.5t28 5.5q7 7 12 14.5t3 17.5z" />
    <glyph glyph-name="quotedblbase" unicode="&#x201e;" horiz-adv-x="418" 
d="M366 220q-6 26 -30.5 38t-48.5 14q-5 1 -9 1h-8q-10 3 -20 0.5t-18 -9t-12.5 -15.5t-2.5 -20t2.5 -22t3.5 -22q11 -40 14 -80.5t9 -81.5q1 -16 13 -28.5t28 -10.5q17 2 29.5 15.5t14.5 30.5q5 38 18.5 74.5t16.5 75.5q-1 10 0.5 20t-0.5 20zM170 226q0 14 -7 22.5t-18 13
t-24 5.5t-23 0q-5 -1 -9 -1h-8q-20 -1 -39.5 -12t-20.5 -33q-1 -11 -1 -21t4 -20q13 -37 16 -76t12 -76q4 -17 16.5 -29.5t30.5 -12.5q17 0 27 12.5t12 28.5q4 40 14.5 78t12.5 78q0 11 2.5 21.5t2.5 21.5z" />
    <glyph glyph-name="ellipsis" unicode="&#x2026;" 
 />
    <glyph glyph-name="dagger" unicode="&#x2020;" horiz-adv-x="405" 
d="M375 455q0 25 -20 37t-41 15q-20 2 -40.5 5t-41.5 2q1 29 -0.5 57.5t-3.5 57.5q0 10 -2.5 21t-8.5 20t-14.5 15t-20.5 5q-23 -5 -33.5 -25.5t-7.5 -41.5q0 -29 1 -58.5t0 -58.5q-43 -5 -83 -6q-10 0 -21 -2.5t-20 -8t-14.5 -14t-4.5 -20.5q-2 -12 3.5 -20.5t14.5 -13.5
t19.5 -7.5t20.5 -1.5q21 2 41 2q21 0 42 2q-5 -47 -5.5 -94.5t1 -94.5t3.5 -94.5t2 -94.5q0 -10 2 -21t7 -20t13 -14.5t20 -5.5q23 8 34.5 29t9.5 44q1 47 -0.5 94t-3 93.5t-0.5 93t7 93.5q21 2 41.5 0t41.5 -3q9 -3 20 -2.5t20.5 4.5t15.5 12t6 20z" />
    <glyph glyph-name="daggerdbl" unicode="&#x2021;" horiz-adv-x="434" 
d="M393 277q-1 23 -21.5 33t-40.5 8q-21 -2 -42 -3l-42 -2l-3 96q21 1 42 2.5t42 2.5q9 -1 20 1t20 7t14.5 13.5t3.5 20.5q0 12 -6 20.5t-15.5 14.5t-20.5 8.5t-21 1.5q-20 0 -41 -1.5t-41 -1.5q-2 29 -1.5 57t-1.5 57q1 10 -1.5 21t-8.5 20t-14.5 14.5t-19.5 4.5
q-11 0 -19 -5.5t-13 -14.5t-7.5 -19.5t-2.5 -20.5v-114q-20 -1 -41 -1.5t-41 -1.5q-9 1 -20 -1t-20 -7t-14.5 -13t-5.5 -19q-1 -12 4 -21t14 -15.5t20 -9.5t21 -1q21 -2 42 -0.5t42 1.5q1 -24 1.5 -48.5t1.5 -48.5q-44 -3 -86 0q-9 0 -20 -1t-20 -5t-15 -11t-6 -19t5 -21.5
t13.5 -16.5t19.5 -10t22 -2q22 -2 43 -1.5t43 0.5q-2 -46 -3 -91t-1 -91q-1 -21 10.5 -41t33.5 -25q23 4 33 25t11 42l4 90t4 91q21 2 41 4t42 3q10 0 21 2.5t20.5 8t15.5 14t6 20.5z" />
    <glyph glyph-name="circumflex" unicode="&#x2c6;" horiz-adv-x="355" 
d="M319 578q2 14 -7.5 24.5t-21.5 16.5q-16 10 -32 18.5t-32 19.5q-8 5 -16.5 10t-18.5 3q-14 0 -28 1t-28 -2q-9 -2 -18.5 -5.5t-18.5 -8.5q-15 -10 -30 -19.5t-31 -18.5q-9 -8 -18 -17t-11 -23q2 -20 18 -32t34 -16q9 -2 17 2.5t14 9.5q13 11 27 18.5t28 17.5
q9 2 18.5 1.5t18.5 -0.5q14 -10 28 -17t28 -17q7 -4 13.5 -8t14.5 -4q18 2 35.5 13.5t16.5 32.5z" />
    <glyph glyph-name="perthousand" unicode="&#x2030;" horiz-adv-x="664" 
d="M215 525q-2 62 -1.5 123t6.5 122q1 8 -2 16.5t-8.5 15t-13 10.5t-16.5 3q-23 -2 -45 -4.5t-44 -2.5q-19 -2 -32.5 -16t-18.5 -32q-8 -60 -12 -119t-2 -119q1 -17 14 -30.5t31 -11.5q25 1 49 1t49 1q17 1 30.5 13.5t15.5 29.5zM610 40q2 59 8.5 116.5t12.5 115.5
q2 18 -11.5 31.5t-30.5 13.5q-24 -1 -48 0t-48 1q-18 0 -32.5 -13t-16.5 -32q-5 -60 -9 -119.5t-3 -119.5q0 -17 13 -31t30 -12q23 1 45 2t45 3q17 2 30 14.5t15 29.5zM468 786q1 9 -4.5 16.5t-15.5 8.5q-15 -1 -24 -11.5t-16 -21.5q-104 -177 -207 -351.5t-206 -352.5
q-7 -11 -10.5 -24t-1.5 -27q2 -10 9 -19t18 -11q12 3 19 12.5t11 20.5q48 91 99.5 179t104 176t105 175.5t101.5 177.5q9 11 12.5 24.5t5.5 27.5zM402 30q-1 61 1.5 121.5t8.5 121.5q2 19 -12.5 31.5t-31.5 13.5q-24 0 -48.5 -1.5t-48.5 0.5q-19 1 -33.5 -12.5t-15.5 -31.5
q-3 -61 -4.5 -121.5t4.5 -121.5q2 -19 15 -33.5t32 -17.5q23 -7 45.5 -2.5t45.5 7.5q17 2 28.5 15.5t13.5 30.5zM165 529q-23 -1 -45 -1.5t-45 -0.5q-2 59 2 117t11 117q21 1 42.5 2t42.5 3q-5 -60 -7.5 -118.5t-0.5 -118.5zM563 43q-21 -2 -42 -2.5t-42 -2.5
q0 59 4.5 116.5t9.5 115.5q23 2 44.5 1t44.5 1q-5 -57 -11.5 -114t-7.5 -115zM355 32q-21 -2 -42.5 -6.5t-42.5 1.5q-4 61 -2 121t4 121q23 -2 45 -1t45 2q-3 -60 -6 -119t-1 -119z" />
    <glyph glyph-name="Scaron" unicode="&#x160;" horiz-adv-x="566" 
d="M411 631q-2 18 -15 32t-32 16q-9 -1 -17 -4.5t-16 -8.5q-12 -11 -26 -17.5t-27 -16.5q-9 -1 -18 1.5t-19 0.5q-14 9 -27 18t-27 17q-15 12 -33 12q-19 -5 -31.5 -19.5t-14.5 -33.5q-1 -14 8.5 -23.5t20.5 -15.5q16 -8 30.5 -17t29.5 -17q8 -5 17 -9t19 -2q14 1 29 -0.5
t29 -3.5q22 0 37 11q15 8 29 18l28 20q11 7 19.5 17.5t6.5 24.5zM481 97q2 19 -6.5 37.5t-24.5 29.5q-44 25 -82.5 56.5t-75.5 64.5t-74.5 66t-79.5 60q-2 4 -5 6.5t-3 7.5q1 3 2 5.5t2 5.5q3 1 5.5 2t5.5 1h4q54 5 108 2t108 -4q11 0 22 -6.5t10 -19.5q0 -17 10 -33.5
t30 -14.5q20 -1 34.5 13t13.5 34q2 23 -8.5 43t-26.5 36q-17 16 -38.5 26t-45.5 10q-54 -1 -108 4t-108 -2q-22 1 -42 -7.5t-35.5 -23.5t-24 -35.5t-6.5 -42.5q2 -17 9 -34t21 -28q78 -64 155 -126.5t155 -125.5q7 -8 10 -15q-2 -2 -3 -5t-3 -5q-2 -1 -5 -1.5t-5 -1.5
q-1 0 -1.5 -0.5t-1.5 -0.5q-55 -1 -109 4.5t-109 -1.5q-11 1 -19 8t-11 17q0 17 -12 32t-30 17q-18 1 -33.5 -12.5t-10.5 -32.5q1 -23 12.5 -42.5t26.5 -35.5q35 -35 84 -40q23 1 47 1t47 5q29 -7 59 -9.5t59 1.5q20 3 38.5 13t33 24.5t24 33t11.5 39.5z" />
    <glyph glyph-name="guilsinglleft" unicode="&#x2039;" horiz-adv-x="426" 
d="M393 63q1 14 -7.5 24t-19.5 17q-75 44 -148 88t-145 91q76 39 144.5 88t142.5 93q11 7 19 17.5t9 23.5q-2 17 -14.5 29.5t-29.5 14.5q-10 3 -18.5 -2t-16.5 -8q-64 -46 -128.5 -89t-131.5 -84q-9 -7 -18.5 -13.5t-17.5 -15.5q-5 -10 -6.5 -20.5t-2.5 -21.5
q-2 -6 -1.5 -12.5t-1.5 -12.5q1 -11 0.5 -21.5t4.5 -20.5q7 -10 17 -15.5t18 -14.5q68 -43 136.5 -82.5t132.5 -87.5q8 -5 16.5 -8.5t17.5 -2.5q18 1 31 15t18 31z" />
    <glyph glyph-name="OE" unicode="&#x152;" horiz-adv-x="652" 
d="M567 43q2 11 -2.5 19t-12.5 13t-18 6.5t-19 -0.5q-38 -2 -76.5 -1.5t-76.5 -1.5q2 54 4.5 106t2.5 106q32 1 63 0t63 -1q10 -1 21.5 1t20.5 7t15 13.5t6 20.5q-4 23 -25 34t-42 11q-32 0 -62.5 1t-62.5 1q-2 54 -4.5 107.5t-3.5 107.5q38 -2 77 -4.5t77 -4.5q9 -2 19 0
t18.5 7t13 13t2.5 19q1 22 -17 34.5t-38 12.5q-30 0 -59 3.5t-58.5 7t-58.5 5t-59 -1.5q-35 -4 -64 -25t-44 -53q-25 -48 -51 -96t-51 -96q-11 -19 -18.5 -39.5t-10.5 -42.5q2 -24 9 -47.5t20 -44.5q26 -45 52 -90.5t50 -92.5q15 -29 41 -52.5t61 -22.5q60 1 120 6.5
t121 6.5q21 -2 38.5 12t18.5 36zM273 73q-21 2 -31 21q-23 44 -44 88t-47 86q-7 15 -14 29.5t-8 31.5q2 17 9 32.5t15 29.5q24 45 47 90.5t44 92.5q3 9 11 12.5t16 7.5q1 -131 2.5 -260.5t-0.5 -260.5z" />
    <glyph glyph-name="quoteleft" unicode="&#x2018;" horiz-adv-x="203" 
d="M166 435q0 10 -1 20l-2 20q0 40 -10.5 78t-16.5 77q-2 16 -14 29.5t-29 9.5q-18 2 -28 -12.5t-14 -29.5q-8 -38 -13.5 -76t-12.5 -76l-2 -20l-2 -20q2 -25 21 -41q13 -5 26 -5.5t26 -1.5h8q4 0 9 1q10 -2 20.5 1t18.5 10t12.5 16t3.5 20z" />
    <glyph glyph-name="quoteright" unicode="&#x2019;" horiz-adv-x="197" 
d="M165 621q-1 13 -8.5 23.5t-18.5 17.5t-24 9t-25 -2h-17q-10 0 -20 -3.5t-18 -9.5t-13 -15t-4 -20q1 -5 1 -9v-9q2 -45 11.5 -88t17.5 -87q4 -17 14.5 -31.5t28.5 -14.5q17 5 28 19t13 31q5 38 14 74.5t17 74.5l2 20t1 20z" />
    <glyph glyph-name="quotedblleft" unicode="&#x201c;" horiz-adv-x="415" 
d="M362 435q1 10 -1 20t-1 20q2 39 -6 77t-20 75q-5 17 -16.5 31.5t-30.5 13.5q-18 2 -27.5 -13t-11.5 -30q-3 -39 -11 -77.5t-16 -76.5q-2 -11 -3 -20.5t-3 -20.5q0 -14 7.5 -23.5t18 -15.5t23 -8t23.5 -1q4 1 8 1h8q21 -2 39 12t20 36zM168 433v11q-2 7 -2.5 14t-2.5 14
q-8 38 -13.5 77t-9.5 77q-2 17 -13 29t-28 11q-17 -2 -29 -14.5t-17 -28.5q-11 -37 -19 -74t-10 -75q0 -10 -1.5 -19.5t-1.5 -19.5q5 -27 29 -39.5t49 -10.5q5 0 8.5 0.5t8.5 0.5q10 -2 20 1.5t18 10t12 15.5t2 20z" />
    <glyph glyph-name="quotedblright" unicode="&#x201d;" horiz-adv-x="436" 
d="M376 619q-3 14 -11.5 24t-20 16t-25 9t-26.5 3h-17q-10 1 -20 -2t-17.5 -9.5t-11.5 -16t-2 -20.5t2.5 -21t3.5 -21q8 -39 15 -77.5t9 -78.5q-1 -16 10 -29t28 -11q18 3 30 16t17 30q12 37 18.5 75t17.5 76q1 9 1.5 18.5t-1.5 18.5zM177 622q0 13 -7 23t-18 15.5t-24 7.5
t-24 -1h-9q-3 0 -8 -1q-20 2 -39 -11t-22 -34v-21t3 -20q14 -37 18.5 -75.5t12.5 -76.5q5 -17 15.5 -30t28.5 -14t29 13.5t14 29.5q8 38 14 77t11 77q2 11 3.5 20.5t1.5 20.5z" />
    <glyph glyph-name="bullet" unicode="&#x2022;" horiz-adv-x="279" 
d="M186 298q0 15 -4.5 23.5t-12 13t-17 5.5t-19.5 1q-11 0 -22 -1t-19.5 -5.5t-14 -13t-5.5 -24.5q0 -17 5.5 -25.5t14 -13t19.5 -5t22 -0.5q10 0 19.5 0.5t17 4.5t12 13.5t4.5 26.5z" />
    <glyph glyph-name="endash" unicode="&#x2013;" horiz-adv-x="579" 
d="M492 336q-10 22 -32.5 33t-45.5 11q-73 2 -145.5 1t-145.5 -2q-24 0 -45 -11.5t-34 -31.5q16 -17 35 -32.5t45 -12.5q73 2 145 1.5t145 -0.5q11 1 24 3t24.5 6.5t20 12.5t9.5 22z" />
    <glyph glyph-name="emdash" unicode="&#x2014;" horiz-adv-x="684" 
d="M637 336q6 4 6 8q0 5 -3 9t-8 7t-9 4q-28 12 -59 15q-128 2 -253.5 1.5t-253.5 -1.5q-8 -2 -17 -3t-17 -3q-5 -2 -12.5 -6t-13 -8.5t-7 -10.5t5.5 -13q-5 -6 -6.5 -14t5.5 -14q31 -14 63 -14q128 -1 253 -2.5t253 1.5q22 1 44.5 10.5t28.5 33.5z" />
    <glyph glyph-name="tilde" unicode="&#x2dc;" horiz-adv-x="411" 
d="M371 629q-2 20 -18.5 28.5t-33.5 10.5q-15 2 -24 -9.5t-12 -24.5q-2 -8 -10 -12.5t-16 -6.5q-17 3 -35 14q-6 4 -12.5 7t-12.5 8q-17 10 -35.5 18t-38.5 7t-39.5 -8.5t-35.5 -20t-26.5 -29.5t-12.5 -38q3 -17 17.5 -27.5t31.5 -11.5q14 0 25.5 9.5t13.5 23.5q2 8 7.5 13
t13.5 7q11 0 20.5 -4t18.5 -9l9 -5l6 -4l18 -9q15 -8 30.5 -15.5t32.5 -6.5q22 1 43.5 7.5t37.5 20.5q7 6 12 11.5t8 13.5q5 11 10 21t7 21z" />
    <glyph glyph-name="trademark" unicode="&#x2122;" 
 />
    <glyph glyph-name="scaron" unicode="&#x161;" horiz-adv-x="470" 
d="M368 631q-2 18 -14.5 33.5t-32.5 16.5q-17 1 -31 -13q-14 -8 -27 -17t-27 -15q-9 2 -19 2h-18q-13 11 -27 18.5t-28 18.5q-15 12 -32 12q-19 -5 -31.5 -20.5t-14.5 -34.5q1 -13 9.5 -22.5t18.5 -16.5q15 -8 28.5 -18t28.5 -18q18 -11 38 -12q14 1 29 0t29 -2
q10 -2 18.5 2t16.5 8q15 9 30 18.5t29 19.5q12 5 18.5 16.5t8.5 23.5zM426 122q4 37 -18 68t-57 43q-57 21 -113 44t-111 49q-9 5 -17 11.5t-11 17.5q1 14 13 20.5t24 4.5q40 0 79 -0.5t78 2.5l10 -1q13 -2 18.5 -4.5t10.5 -5.5q8 -9 18.5 -15.5t22.5 -6.5q17 -1 31 10.5
t16 28.5q-2 22 -20 37q-5 6 -12.5 11t-12.5 11q-17 13 -38 16.5t-42 3.5q-39 0 -78 0.5t-78 0.5q-23 0 -46.5 -7.5t-42.5 -21.5t-30.5 -34.5t-11.5 -45.5q-2 -17 3 -32t15 -28t23 -23.5t27 -17.5q56 -28 113 -54t116 -46q12 -4 21.5 -13t9.5 -23q1 -23 -17.5 -37.5
t-39.5 -15.5q-35 -5 -69.5 -8t-69.5 1q-14 3 -29.5 6t-25.5 16q-6 10 -16 16t-21 9q-15 4 -28 -7t-12 -27q5 -14 12 -26t18 -21q7 -11 20 -21q19 -15 41 -22.5t45 -11.5q38 -6 75 0t75 11q25 4 49 16t42.5 30t29.5 41.5t11 50.5z" />
    <glyph glyph-name="guilsinglright" unicode="&#x203a;" horiz-adv-x="421" 
d="M387 272q1 6 1.5 12.5t0.5 12.5q0 11 -1 21t-3 20q-3 8 -9.5 11.5t-12.5 8.5q-4 2 -8 4.5t-7 5.5q-69 40 -136 82t-134 86q-9 4 -17.5 7t-18.5 4q-16 -2 -28 -13.5t-14 -28.5q0 -14 8.5 -25t19.5 -19q70 -48 143 -90t145 -87q-73 -46 -142 -95.5t-145 -90.5
q-11 -4 -18.5 -14t-9.5 -22q2 -17 12.5 -31t27.5 -19q8 -1 16 1.5t15 6.5q36 19 70 42t67 47t66 48.5t68 45.5q11 5 20 11.5t17 14.5q4 11 5 21.5t2 21.5z" />
    <glyph glyph-name="oe" unicode="&#x153;" horiz-adv-x="693" 
d="M605 42q4 9 0 17.5t-9 15.5q-13 5 -26.5 6t-27.5 0l-90 -3q-9 1 -18.5 3.5t-15.5 9.5l-10 12t-11 11q-5 8 -9.5 16t-2.5 18v20q42 2 83.5 1.5t83.5 1.5q16 1 32 1t30 11q11 11 13.5 26.5t1.5 29.5q-3 17 -4.5 34.5t-3.5 34.5q-2 28 -15.5 52t-33.5 42q-11 11 -23.5 21.5
t-24.5 21.5q-14 14 -34 19.5t-40 5.5h-7q-22 -2 -45.5 -7t-35.5 -26q-6 -8 -10.5 -17t-12.5 -17q-9 8 -18 15t-19 15q-18 16 -40.5 26t-47.5 10h-22q-26 0 -49.5 -11t-45.5 -25q-10 -7 -19 -14t-19 -15q-20 -15 -35 -38t-13 -49q-1 -20 2 -38.5t8 -37.5q-1 -25 -2 -49.5
t1 -49.5q2 -26 15 -48.5t33 -38.5q8 -9 17.5 -15.5t17.5 -14.5q20 -15 41.5 -27t47.5 -13q10 -2 21 0q26 -2 49.5 9.5t43.5 27.5q8 11 19 17t19 16q8 -11 14.5 -23t13.5 -24q14 -14 32 -15t35 0q22 1 43 1.5t43 1.5q12 0 25 2.5t24 7.5t19.5 13.5t11.5 22.5zM538 256
q-38 0 -76 -1.5t-76 -2.5q-1 13 -3 25.5t-3 25.5q-2 12 1 24t10 22q5 5 10 10.5t10 10.5q6 8 15.5 10t17.5 4q6 -1 12.5 0t12.5 1q8 -2 14.5 -6.5t12.5 -9.5q5 -6 11.5 -10.5t11.5 -10.5q12 -13 12 -35q2 -14 3.5 -28.5t3.5 -28.5zM296 146q0 -24 -19 -40q-7 -5 -12.5 -10
t-12.5 -10q-10 -10 -23 -12t-25 -4q-14 1 -27 5t-24 13q-6 5 -12 10.5t-14 9.5q-8 8 -13.5 18t-6.5 22q0 19 1 38t3 38q-3 21 -7 42t-4 43q0 11 5.5 21.5t13.5 17.5q7 5 12.5 10t12.5 9q11 9 24 12t27 3q26 0 50 -16q5 -6 12.5 -9.5t12.5 -9.5q10 -7 14 -18t6 -22
q7 -40 9 -80t-3 -81z" />
    <glyph glyph-name="Ydieresis" unicode="&#x178;" horiz-adv-x="554" 
d="M408 600q-1 5 -1 9v10q0 10 -3 21t-9 20.5t-14.5 15t-20.5 5.5q-12 1 -20.5 -5t-13 -15t-6.5 -20t0 -21v-12q0 -2 0.5 -3.5t0.5 -3.5q-1 -10 1.5 -21t8 -20t14.5 -14t21 -4q11 0 19.5 5t13.5 13.5t7.5 19t1.5 20.5zM196 592v19q0 10 -2.5 20.5t-8 19.5t-13.5 15t-20 5
q-12 0 -20.5 -5.5t-14 -14.5t-7.5 -19.5t-1 -20.5v-18q-2 -10 0.5 -20.5t8 -19.5t14 -14.5t20.5 -4.5q12 -1 20 4.5t13.5 14t8 19t2.5 20.5zM480 390q-1 18 -0.5 36t-1.5 36q2 21 -9.5 40t-34.5 22q-11 1 -19.5 -4t-14 -13.5t-8 -19t-1.5 -19.5v-46q-35 -44 -66.5 -89
t-62.5 -92q-38 42 -73.5 84t-65.5 90v22q0 12 2 23q1 10 -1 20.5t-7 19.5t-13 14.5t-20 5.5q-23 0 -34.5 -19.5t-11.5 -39.5q-2 -18 -2.5 -36.5t-3.5 -36.5q42 -62 91 -118.5t93 -117.5q0 -29 0.5 -59t-1.5 -59q0 -9 1.5 -20.5t6.5 -20.5t13.5 -14.5t20.5 -3.5q23 4 34 24
t11 41q0 30 2.5 59.5t2.5 59.5q45 57 86.5 115.5t86.5 115.5z" />
    <glyph glyph-name="exclamdown" unicode="&#xa1;" horiz-adv-x="205" 
d="M158 429v13q1 12 -4 24.5t-14 21.5t-21.5 13t-25.5 0h-15q-14 -6 -25.5 -14.5t-19.5 -22.5q-3 -12 -2.5 -24t-0.5 -24q0 -11 2 -21t12 -16q12 -2 24.5 -1.5t24.5 -0.5q4 1 7 1q4 0 8 2q10 -1 20.5 -0.5t19.5 6.5q10 23 10 43zM155 -131q1 6 0.5 12.5t-1.5 12.5
q-2 70 -6 139t-9 138q0 10 -2 23.5t-7 24.5t-14 17t-24 2q-14 1 -23 -6t-14 -18t-7 -23.5t-3 -23.5q-5 -68 -8 -135t-5 -136q-2 -6 -1 -12t1 -12q-2 -14 3 -24t14.5 -17.5t21.5 -11.5t23 -5q4 0 7 0.5t7 0.5q21 0 34.5 17t12.5 37z" />
    <glyph glyph-name="cent" unicode="&#xa2;" horiz-adv-x="465" 
d="M425 141q-2 9 -5.5 18t-11.5 14q-12 8 -26 7t-28 -1q-20 -2 -39 -3.5t-38 -5.5q-3 78 1.5 156t1.5 156q20 3 39 2t39 1q12 1 24.5 0t24.5 3q8 4 14.5 12.5t4.5 18.5q-2 22 -19 35q-25 14 -54 14q-20 1 -39 1q-18 0 -38 -2v50q0 9 -2 20.5t-7.5 20.5t-13.5 13.5t-20 1.5
q-22 -3 -34 -22.5t-10 -40.5v-51q-17 -3 -33.5 -8.5t-30.5 -16.5q-19 -17 -39 -33.5t-40 -33.5q-20 -16 -29.5 -39.5t-10.5 -48.5q2 -25 1 -49.5t-3 -49.5q-2 -26 10 -51t32 -42q20 -18 40 -35.5t40 -36.5q13 -13 30 -20.5t34 -12.5q-1 -11 0 -23t1 -23q0 -9 2 -20
t6.5 -20.5t13 -15.5t20.5 -5q23 1 34.5 22t9.5 42q-1 11 0 23t1 23q19 3 38 5l38 4q12 3 25 4t24 7q9 6 15.5 15.5t6.5 20.5zM189 169q-20 20 -42 38.5t-44 37.5q-9 8 -12 20.5t-2 23.5q1 18 2 36.5t0 36.5q0 12 2 24t12 20q21 17 42.5 33.5t43.5 33.5q3 -77 -0.5 -152.5
t-1.5 -151.5z" />
    <glyph glyph-name="sterling" unicode="&#xa3;" horiz-adv-x="529" 
d="M505 43q1 11 -4 19.5t-13 13.5t-18.5 6.5t-19.5 -1.5q-36 -3 -72.5 -7.5t-73.5 -7t-73.5 -1.5t-72.5 9q-3 56 -2 111.5t4 111.5q43 -2 85 -5.5t85 2.5q21 -1 40.5 13t17.5 37q1 11 -4 19.5t-13.5 13.5t-19.5 7t-20 1q-42 -6 -84.5 -2.5t-84.5 3.5v49t1 49q0 3 -0.5 5.5
t-0.5 5.5q0 8 5 14t11 11q16 15 33 28.5t33 28.5q19 14 41 14q35 -1 70 2t70 1q9 -1 22 -1t23.5 3.5t17.5 11t4 21.5q-2 11 -6.5 21.5t-13.5 15.5q-12 8 -25.5 10.5t-27.5 3.5q-34 2 -67.5 0t-66.5 -1q-23 0 -46 -4.5t-42 -19.5q-20 -19 -40 -37t-42 -35q-20 -19 -32.5 -43
t-12.5 -52q-2 -26 -0.5 -51.5t0.5 -51.5q-8 1 -14.5 0.5t-14.5 -0.5q-19 2 -38.5 -8.5t-17.5 -33.5q-2 -11 3 -20t13 -15t18 -9t20 -1q8 0 15.5 0.5t15.5 -0.5q-8 -78 -4.5 -155.5t14.5 -154.5q44 -4 87 -6t86 -11q49 2 97 8.5t97 13.5q10 1 20.5 4.5t19 10t13.5 15t5 20.5z
" />
    <glyph glyph-name="yen" unicode="&#xa5;" horiz-adv-x="561" 
d="M479 536q0 18 -1.5 36.5t-2.5 36.5q-1 20 -11 40t-33 22t-34.5 -16.5t-7.5 -38.5q-1 -11 0 -22t1 -22q-32 -42 -63.5 -83.5t-63.5 -83.5q-74 75 -135 159q1 11 1.5 22t1.5 22q2 19 -7 38.5t-32 17.5q-11 1 -20 -4t-15 -13.5t-8.5 -18.5t-2.5 -20q-2 -18 -3.5 -36.5
t-3.5 -36.5q41 -60 88 -115.5t95 -109.5v-5q-21 0 -42.5 -0.5t-42.5 1.5q-10 1 -21 -0.5t-20 -6t-15 -13t-5 -20.5q2 -23 21.5 -36.5t40.5 -11.5q21 -2 42 -2.5t42 0.5q-1 -45 -1 -89q0 -43 -2 -88q0 -9 2 -20t7.5 -20t13.5 -14t20 -3q23 3 33.5 23.5t8.5 40.5q2 45 4 88
t4 88q21 1 42 1.5t42 -1.5q10 -1 21.5 1.5t21 8t15.5 14.5t6 21q1 12 -4 21t-14 14.5t-20.5 7.5t-21.5 1q-22 0 -42.5 1.5t-42.5 -0.5v5q42 54 81.5 109.5t82.5 109.5z" />
    <glyph glyph-name="section" unicode="&#xa7;" horiz-adv-x="505" 
d="M450 326q-4 38 -28.5 70.5t-59.5 47.5q-56 23 -110.5 47.5t-112.5 40.5q-9 5 -17.5 10.5t-10.5 16.5q2 13 13 20t23 6q18 3 36 4.5t36 6.5q20 0 40.5 -1.5t40.5 -0.5q12 2 21.5 -3.5t18.5 -13t18 -14t21 -6.5q15 -2 29.5 8.5t13.5 27.5q-1 12 -8 21t-15 17
q-7 5 -12.5 11.5t-12.5 11.5q-15 15 -36 19t-41 6q-17 -1 -34 -0.5t-34 3.5q-20 -4 -39.5 -7.5t-39.5 -5.5q-23 0 -45 -7.5t-40 -21.5t-30 -34t-13 -44q-1 -19 5.5 -36.5t18.5 -32t27.5 -24.5t33.5 -15q-21 -2 -38 -13t-29 -26.5t-18 -35.5t-4 -40q-3 -18 0 -36t11.5 -34.5
t21.5 -29t30 -19.5q57 -23 113 -45t113 -45q8 -5 17 -10.5t12 -16.5q-2 -14 -13 -20.5t-24 -5.5q-38 -2 -76.5 -1.5t-76.5 -1.5q-11 0 -21 1t-18 9q-8 9 -19 16t-24 8q-16 4 -28 -8t-12 -28q2 -11 8.5 -21t14.5 -18q5 -7 11.5 -12.5t12.5 -10.5q17 -11 36.5 -17t39.5 -3
q37 0 74 -0.5t74 2.5q23 0 45.5 8.5t40.5 23.5t29.5 35.5t13.5 44.5q3 19 -3 35.5t-18 30t-28 23t-32 15.5q21 4 39.5 15t32.5 26.5t23.5 35.5t11.5 41zM358 335q-1 -12 -7.5 -21t-15.5 -15t-20 -9t-22 -2q-33 -1 -67 -1.5t-67 -4.5q-8 5 -17.5 8t-17.5 8t-11.5 13.5
t-1.5 17.5q-5 23 13.5 36t38.5 13q66 6 132 6q7 -2 12.5 -5.5t12.5 -5.5q13 -5 24.5 -14.5t13.5 -23.5z" />
    <glyph glyph-name="dieresis" unicode="&#xa8;" horiz-adv-x="412" 
d="M348 592q0 10 -4 18q-8 19 -20 38t-36 21q-11 1 -19.5 -5t-13 -15t-5.5 -19.5t4 -19.5q1 -3 2 -5.5t2 -5.5v-7q0 -8 0.5 -18.5t3 -19.5t8.5 -14.5t18 -5.5q23 1 41 18t19 40zM127 590l-1 10l-3 8q-2 9 -4 19.5t-6 19.5t-11.5 15t-19.5 5q-11 -1 -20.5 -6t-16.5 -13
t-10 -18t-1 -21q5 -11 4 -18q-2 -10 0.5 -20.5t8 -19t14.5 -13.5t20 -5q12 -1 20.5 4.5t14 13.5t8.5 18.5t3 20.5z" />
    <glyph glyph-name="ordfeminine" unicode="&#xaa;" horiz-adv-x="410" 
d="M333 386q-3 25 -3 49q0 25 1.5 49.5t2 49t-2.5 49.5q-3 19 -12 35.5t-22.5 29t-30.5 19.5t-36 6q-20 -1 -38.5 -3t-38.5 -3q-15 2 -31 -4t-17 -24q-1 -9 3.5 -15t12 -9t16 -4.5t15.5 -1.5q19 1 37 3l36 4q16 2 30.5 -8t15.5 -27q-1 -8 0 -15t1 -15q-8 1 -15 1.5t-15 0.5
q-28 -2 -55 -4.5t-55 -1.5q-17 0 -33.5 -5t-30 -15t-22 -25t-7.5 -33q0 -19 3 -38q1 -18 9 -34t20.5 -28.5t29.5 -19t35 -4.5t36 3t36 3q12 2 22 7q11 8 22.5 13.5t22.5 11.5q-1 -12 8.5 -21.5t21.5 -8.5q14 -2 22 9.5t6 23.5zM355 269q2 17 -13 26.5t-29 8.5
q-31 1 -61.5 -1t-61.5 -5t-61.5 -5t-61.5 0q-13 2 -28.5 -2t-13.5 -22q2 -17 15 -29t30 -14q30 -2 59.5 0t59.5 5t59.5 5.5t59.5 1.5q16 -3 30.5 5.5t16.5 25.5zM271 444q-17 -8 -32.5 -17t-31.5 -19q-19 -3 -37.5 -4t-37.5 -2q-12 0 -22 7t-11 20q-2 8 -2 16v16
q-1 14 10.5 22t23.5 7q27 -1 53.5 2t53.5 5q14 1 24.5 -9t8.5 -24q-2 -5 -1 -10t1 -10z" />
    <glyph glyph-name="guillemotleft" unicode="&#xab;" horiz-adv-x="633" 
d="M596 60q2 13 -5.5 23.5t-18.5 17.5q-72 47 -147.5 87t-151.5 81q74 43 144 92t143 94q11 6 19.5 15.5t7.5 22.5q-1 17 -13 30t-29 18q-10 -1 -18.5 -4.5t-16.5 -8.5q-66 -44 -128 -89.5t-131 -85.5q-9 -5 -18.5 -11t-17.5 -14q-2 -7 -5 -13.5t-4 -14.5q0 -11 -1 -21.5
t2 -21.5t5 -21.5t7 -20.5q8 -8 18.5 -14t20.5 -12q66 -38 129.5 -77t125.5 -83q8 -4 15.5 -8.5t16.5 -5.5q18 3 31.5 15.5t19.5 29.5zM386 49q0 14 -8.5 25t-19.5 18q-75 48 -151.5 90t-151.5 90q74 45 147.5 89t144.5 92q12 8 21.5 19t9.5 26q0 16 -10.5 28.5t-27.5 11.5
q-10 -1 -18.5 -6t-17.5 -10q-69 -42 -135.5 -86t-137.5 -83q-19 -8 -38 -24q-3 -10 -3.5 -20t-1.5 -21q0 -6 0.5 -12.5t1.5 -12.5q2 -11 3.5 -21t5.5 -20q9 -8 19 -14.5t20 -13.5q68 -43 135.5 -86t133.5 -87q8 -5 16 -9.5t18 -6.5q17 2 29.5 14.5t15.5 29.5z" />
    <glyph glyph-name="logicalnot" unicode="&#xac;" 
 />
    <glyph glyph-name="registered" unicode="&#xae;" 
 />
    <glyph glyph-name="macron" unicode="&#xaf;" 
 />
    <glyph glyph-name="degree" unicode="&#xb0;" 
 />
    <glyph glyph-name="plusminus" unicode="&#xb1;" horiz-adv-x="565" 
d="M490 331q-1 24 -21.5 35.5t-41.5 12.5q-30 2 -60 1t-60 -1q0 29 -1.5 59t-2.5 59q0 10 -3 21t-9 19.5t-14.5 14t-20.5 5.5q-23 -5 -33.5 -26t-7.5 -42v-118q-30 -2 -60.5 -1.5t-60.5 1.5q-20 4 -40.5 -6.5t-21.5 -33.5q-2 -11 3 -19.5t13 -14.5t18.5 -9t20.5 -3
q32 -1 62.5 -3t61.5 0q-1 -29 1 -58t-1 -58q-1 -10 1.5 -21t8.5 -19.5t14.5 -13t20.5 -1.5q24 0 35.5 21t11.5 42q2 29 1.5 58t-0.5 58q31 0 62 2.5t61 0.5q10 0 21 1t21 5t16 12t5 20zM470 43q3 11 -2 19.5t-13.5 13.5t-19 7.5t-19.5 1.5q-40 -3 -80.5 -7t-81 -6t-81 -1
t-80.5 8q-9 3 -20 2t-20 -5.5t-13.5 -12.5t-1.5 -20q3 -23 23 -35.5t41 -14.5q38 -9 76.5 -11t77.5 0.5t77.5 7t77.5 8.5q10 0 20.5 3t19 8.5t14 14t5.5 19.5z" />
    <glyph glyph-name="twosuperior" unicode="&#xb2;" horiz-adv-x="583" 
d="M474 49q-2 38 1.5 76.5l7 77t3 77t-10.5 76.5q-3 20 -11.5 40.5t-22 36.5t-32 26.5t-40.5 10.5q-16 1 -31.5 -4.5t-26.5 -17.5q-5 -5 -9 -10t-9 -10q-14 17 -34 29.5t-43 11.5q-29 -1 -55 -21q-4 -5 -8.5 -9t-9.5 -9q-3 13 -14 24t-25 8q-20 1 -32.5 -15.5t-11.5 -34.5
q2 -43 0 -86t-4.5 -86t-2 -86t6.5 -86q2 -13 2.5 -25.5t5.5 -24.5q6 -9 15 -16.5t20 -9.5q10 0 19 3t15 11q10 27 5 54q-5 33 -4.5 65.5t2.5 65.5t3.5 66t0.5 66q11 11 23 22t23 22l9 6q2 0 3 0.5t3 0.5q11 -1 17.5 -9t5.5 -19q4 -35 2.5 -70.5t-4 -71t-4 -71t1.5 -70.5v-10
t2 -10q1 -7 1.5 -14t2.5 -14q6 -8 15 -14t20 -7q10 0 19.5 3t15.5 11q5 13 8 27t1 28q-3 33 -1 66.5t5 66.5t5 66t-2 66q9 10 17.5 19.5t18.5 17.5l8 7l8 1q11 -2 16 -11.5t6 -20.5q8 -35 7.5 -69.5t-3 -69l-5 -69t0.5 -68.5q2 -12 1.5 -24t1.5 -23q4 -11 14 -16t21 -2
q20 0 34 15t12 34zM547 500l-1 10l-3 8q-2 9 -4 19.5t-6 19.5t-11.5 15t-19.5 5q-11 -1 -20.5 -6t-16.5 -13t-10 -18t-1 -21q5 -11 4 -18q-2 -10 0.5 -20.5t8 -19t14.5 -13.5t20 -5q12 -1 20.5 4.5t14 13.5t8.5 18.5t3 20.5z" />
    <glyph glyph-name="threesuperior" unicode="&#xb3;" horiz-adv-x="561" 
d="M472 42q1 16 -10.5 27t-22.5 20q-48 42 -97.5 82t-101.5 77q38 35 76 69.5t82 60.5q14 8 26 19t14 28q0 18 -14 30t-30 17q-14 -2 -25.5 -9t-22.5 -15q-54 -44 -107.5 -87t-105.5 -90q-2 37 -0.5 74.5t4 74.5t4.5 74t2 75q0 13 0.5 26t-3.5 25q-6 8 -15 13t-19 3
q-11 -1 -19 -7t-15 -13q-6 -13 -8.5 -26.5t-4.5 -27.5q-9 -124 -13 -247t12 -247q2 -12 3 -24.5t7 -23.5q7 -10 17.5 -15t21.5 -7q14 -2 22 4.5t11.5 17t3 23t-1.5 21.5q-2 24 -2.5 47.5t-1.5 47.5q9 8 18 15t17 15q50 -45 104 -83t104 -82q11 -9 22 -17t25 -10
q17 2 29.5 15t14.5 30zM547 500l-1 10l-3 8q-2 9 -4 19.5t-6 19.5t-11.5 15t-19.5 5q-11 -1 -20.5 -6t-16.5 -13t-10 -18t-1 -21q5 -11 4 -18q-2 -10 0.5 -20.5t8 -19t14.5 -13.5t20 -5q12 -1 20.5 4.5t14 13.5t8.5 18.5t3 20.5z" />
    <glyph glyph-name="acute" unicode="&#xb4;" horiz-adv-x="211" 
d="M180 622q-2 17 -14 32t-31 16q-10 0 -18 -4t-17 -9q-14 -9 -29 -19.5t-30 -19.5q-19 -16 -27 -40q2 -17 13.5 -33t30.5 -18q18 0 35 15q14 10 29 20t29 20q9 8 18 17.5t11 22.5z" />
    <glyph glyph-name="mu" unicode="&#xb5;" 
 />
    <glyph glyph-name="paragraph" unicode="&#xb6;" horiz-adv-x="603" 
d="M531 628q0 18 -14.5 31t-31.5 12q-50 5 -99.5 10.5t-100.5 7.5q-39 -14 -79 -23t-77 -29q-46 -24 -71.5 -70t-30.5 -97q-4 -43 13.5 -82.5t49 -67t72 -40.5t82.5 -3q-5 -104 -3 -206.5t4 -206.5q-2 -9 0.5 -18.5t9 -17t15 -10.5t18.5 2q10 -2 18.5 1.5t14.5 11t9.5 17
t2.5 18.5q2 186 2 369q0 184 -7 370q17 -2 33 -2.5t33 -2.5q11 -184 9.5 -366t-6.5 -366q-2 -9 0 -18.5t7.5 -16.5t14 -11t18.5 -2q20 4 34 20.5t12 36.5q11 180 12.5 358t-13.5 358q2 0 3 -0.5t3 -0.5q16 -5 31 5.5t12 28.5z" />
    <glyph glyph-name="periodcentered" unicode="&#xb7;" 
 />
    <glyph glyph-name="periodcentered" unicode="&#x2219;" 
 />
    <glyph glyph-name="periodcentered" unicode="&#x2219;" 
 />
    <glyph glyph-name="cedilla" unicode="&#xb8;" horiz-adv-x="211" 
d="M180 -83q-2 17 -13.5 32t-29.5 18q-18 0 -35 -15q-15 -10 -29 -20.5t-29 -19.5q-9 -8 -18 -17.5t-12 -22.5q4 -17 15.5 -32t30.5 -16q10 -1 18.5 3.5t16.5 10.5q16 9 31 18t29 20q11 6 16.5 17.5t8.5 23.5z" />
    <glyph glyph-name="ordmasculine" unicode="&#xba;" horiz-adv-x="414" 
d="M339 450q-2 31 -3.5 61.5t-4.5 61.5q-1 17 -8 34t-21 28q-5 5 -11 9.5t-11 9.5q-13 11 -29 16.5t-33 3.5q-30 -5 -59 0q-17 -1 -32.5 -7t-27.5 -19q-5 -5 -11 -10t-11 -10q-15 -9 -21 -25.5t-8 -33.5q-5 -62 6 -122q-3 -17 3 -33.5t18 -27.5q5 -5 11 -9t11 -9
q13 -12 30 -17.5t34 -7.5q16 1 31.5 0.5t30.5 3.5q17 1 32.5 8.5t29.5 17.5q2 2 4.5 3.5t4.5 3.5l9 6l5 5q16 9 21.5 25.5t9.5 33.5zM357 269q2 17 -13 24t-29 5q-62 -1 -123.5 -7t-123.5 5q-7 1 -14.5 0t-14.5 -4t-11 -8.5t-3 -14.5q2 -17 16 -26.5t29 -12.5q30 -7 60 -8
t60 1t59.5 4.5t59.5 3.5q17 0 31.5 10.5t16.5 27.5zM282 457q-1 -2 -1 -5q0 -2 -1 -4l-7 -8l-6 -8q-5 -4 -8.5 -7.5t-8.5 -7.5q-8 -6 -16.5 -8.5t-17.5 -4.5q-11 -2 -23 -2.5t-23 0.5q-20 0 -35 12q-3 3 -7 6.5t-7 7.5q-5 5 -7 11.5t-4 13.5q-5 28 -5 55v56q0 8 4 15.5
t9 12.5q4 3 7.5 6.5t7.5 6.5q6 8 15.5 8.5t17.5 2.5q25 -5 45 -1q18 3 35 -7q7 -7 16 -13q12 -12 12 -26q0 -28 3 -56t5 -56z" />
    <glyph glyph-name="guillemotright" unicode="&#xbb;" horiz-adv-x="661" 
d="M609 265q4 12 1 25q-4 11 -6.5 21.5t-8.5 20.5q-8 8 -18 14t-20 13q-71 40 -138 83.5t-130 95.5q-8 5 -17 6.5t-17 3.5q-18 -2 -28.5 -17t-14.5 -31q2 -14 11 -24t20 -16q39 -20 76 -44t73.5 -49t73.5 -48t77 -42q-77 -44 -154.5 -86t-146.5 -97q-11 -8 -20.5 -18.5
t-10.5 -24.5q2 -17 14.5 -29.5t29.5 -12.5q10 4 18 10.5t16 11.5q66 44 132.5 84.5t133.5 82.5q11 6 20.5 12.5t18.5 14.5q7 9 10 19t5 21zM389 267q4 14 1 26q-1 21 -11 42q-16 16 -37 29q-32 21 -65 40t-66.5 37.5t-66.5 38t-63 42.5q-8 5 -15.5 9t-16.5 6
q-17 -2 -29.5 -14t-15.5 -29q0 -14 9.5 -24.5t19.5 -17.5q70 -47 141.5 -89.5t147.5 -78.5q-72 -51 -145 -96.5t-148 -89.5q-11 -5 -20 -14.5t-8 -23.5q5 -17 17.5 -30.5t30.5 -15.5q8 2 16.5 3.5t15.5 7.5q34 20 66 42.5t63.5 45.5t63.5 45t66 42q9 7 19 12.5t18 13.5
q9 19 12 41z" />
    <glyph glyph-name="onequarter" unicode="&#xbc;" horiz-adv-x="667" 
d="M263 332q-4 31 -3 61.5t1 61.5q2 14 -7.5 26.5t-24.5 8.5q-16 1 -24.5 -13t-7.5 -28q0 -23 0.5 -47t1.5 -47h-47q-6 89 0 176.5t8 176.5q-31 -2 -61 -3.5t-61 -3.5q-13 -1 -25.5 -8.5t-13.5 -22.5q-3 -14 10 -20.5t24 -5.5q17 1 33 1.5t33 0.5q-5 -73 -10 -145.5
t1 -145.5q-17 0 -34.5 0.5t-34.5 0.5q-13 2 -25.5 -5t-10.5 -23t16 -22.5t28 -6.5q52 -2 103.5 -3t103.5 1l10 3l9 5l6 9l3 10zM573 665q-4 14 -13.5 26t-24.5 13q-14 -1 -22.5 -11.5t-13.5 -22.5q-48 -90 -100 -177t-105 -173.5t-105.5 -173.5t-101.5 -176q-7 -11 -9 -23
t-2 -25q0 -14 10 -22.5t23 -10.5q14 0 25.5 9.5t16.5 22.5q45 92 98.5 179.5t108.5 173.5t108.5 173.5t98.5 179.5q5 8 6.5 18t1.5 20zM633 55q1 11 -7 19t-19 7q2 34 2.5 67.5t2.5 67.5q1 6 -0.5 13t-5.5 12.5t-9.5 8.5t-12.5 1q-15 0 -24 -13t-9 -27q0 -35 -2.5 -68.5
t-2.5 -68.5q-48 -4 -97 -6q1 92 6 184q2 14 -5.5 27t-22.5 13q-15 2 -25 -10t-9 -26q-4 -62 -4 -123t-1 -123q39 -2 78 -0.5t78 6.5q-1 -23 -2 -47t-2 -47q-2 -11 5 -24t21 -9q16 2 23.5 15.5t9.5 27.5q2 23 3 45.5t2 45.5q11 3 19 12t10 20z" />
    <glyph glyph-name="onehalf" unicode="&#xbd;" horiz-adv-x="667" 
d="M260 331q-1 31 -2.5 61.5t-3.5 61.5q-2 14 -9.5 26.5t-23.5 10.5q-16 1 -23 -12.5t-6 -27.5q2 -24 3 -47.5t3 -47.5q-11 0 -22.5 0.5t-22.5 -1.5q-6 89 -10.5 177.5t8.5 177.5q-30 -2 -60.5 -5t-60.5 -4q-14 -1 -27.5 -8t-16.5 -22t10 -22.5t25 -5.5q16 2 32 1.5t32 1.5
q-8 -73 -3.5 -145.5t10.5 -144.5q-17 0 -33.5 -0.5t-33.5 0.5q-12 0 -25.5 -5.5t-11.5 -21.5t15.5 -23t27.5 -7q51 -1 101 -2.5t101 1.5q14 -2 21.5 9.5t5.5 23.5zM552 670q-2 14 -11 25.5t-23 15.5q-14 0 -24.5 -10t-16.5 -21q-97 -180 -193 -358.5t-207 -350.5
q-7 -11 -11 -22.5t-3 -24.5q-1 -13 8 -22.5t22 -10.5q15 -2 25 8t18 22q104 177 207.5 352.5t197.5 359.5q1 2 2 4.5t2 4.5q2 7 4 13.5t3 14.5zM612 -71q1 15 -11.5 21t-24.5 4q-42 -4 -83 -6t-83 -4q2 29 2.5 59t2.5 59q38 1 75 2t75 3q23 1 40.5 18t19.5 40q2 29 4 59
t3 59q0 23 -17 40t-40 17q-44 1 -87.5 0.5t-87.5 1.5q-14 0 -26 -6.5t-12 -22.5q-1 -16 12 -24.5t27 -6.5q43 1 85.5 -0.5t85.5 0.5q-1 -29 -3 -58t-3 -58q-38 -2 -76 -2q-37 0 -75 -1q-23 0 -41.5 -17t-18.5 -41q-2 -46 -3.5 -91t-1.5 -91q57 -1 112 4t112 10q14 1 25 9
t13 23z" />
    <glyph glyph-name="threequarters" unicode="&#xbe;" horiz-adv-x="660" 
d="M250 354q1 25 1.5 49t1.5 49q1 15 -4.5 29.5t-15.5 25.5q8 10 14.5 20.5t6.5 24.5q-1 29 0.5 57.5t0.5 57.5q-1 21 -18.5 35t-37.5 12q-42 0 -84 -2t-84 -7q-14 -2 -26 -10.5t-13 -23.5q-3 -14 10.5 -20.5t24.5 -3.5q42 5 83.5 6t83.5 1q-1 -23 -1.5 -45.5t-1.5 -45.5
q1 -11 -6.5 -20t-18.5 -8q-24 -1 -48 -1t-48 -2q-14 2 -27 -6.5t-13 -23.5q-3 -17 11 -22t26 -6q24 1 48 1q25 0 49 1q11 0 18.5 -8.5t6.5 -19.5q-2 -23 -1 -45t-1 -45h-86t-86 -2q-14 2 -25.5 -5.5t-11.5 -22.5q2 -14 15 -22t27 -8q43 2 85.5 1.5t85.5 -0.5q23 0 40.5 16
t18.5 39zM565 666q-3 14 -12.5 25t-23.5 13q-14 -2 -24 -12t-14 -23q-48 -90 -101 -176.5t-106.5 -173t-105.5 -173.5t-98 -178q-6 -11 -8.5 -24t-3.5 -26q0 -13 10 -22.5t22 -9.5q16 2 26.5 12.5t17.5 23.5q97 180 204 353.5t208 351.5q4 9 7 18.5t2 20.5zM632 56
q0 11 -8 19t-19 9q-2 34 -3.5 67.5t-5.5 66.5q0 14 -9 26t-24 11q-15 0 -22 -13t-5 -26q3 -34 4.5 -67.5t3.5 -67.5q-25 -1 -49.5 -2.5t-49.5 -3.5q-2 45 -4.5 91t-4.5 91q0 14 -8 26.5t-23 10.5q-16 0 -23 -13t-6 -27q2 -61 6 -120.5t4 -120.5q40 3 79 6t79 5l-2 -46
t-4 -46q-3 -11 2 -25t20 -11q15 1 25 13t12 26q4 23 5.5 46t2.5 46q11 2 18 10t9 19z" />
    <glyph glyph-name="questiondown" unicode="&#xbf;" horiz-adv-x="483" 
d="M351 458q-2 17 -14.5 32t-31.5 17q-17 1 -30 -12.5t-11 -29.5q0 -18 13.5 -31.5t31.5 -15.5q17 -2 30.5 10.5t11.5 29.5zM446 84q1 18 -13 29.5t-31 12.5q-23 -1 -43 -18q-29 -23 -56.5 -47.5t-54.5 -49.5t-55 -49.5t-58 -45.5l-22 20t-22 19q-2 8 -1.5 16t0.5 16
q33 24 64 51t61 55t60.5 55t62.5 53q8 6 13 14t5 18v61q0 21 -12 40.5t-35 20.5t-35.5 -18.5t-10.5 -39.5q0 -10 0.5 -19.5t0.5 -19.5q-60 -56 -122 -108t-124 -106q-8 -6 -13 -15t-4 -19q0 -17 0.5 -33t1.5 -33q2 -10 5 -19t11 -16q22 -22 44.5 -42t45.5 -41q7 -3 13 -7
t14 -5q8 0 15 1t14 6q66 52 126.5 110.5t127.5 109.5q9 9 17.5 19t9.5 24z" />
    <glyph glyph-name="Agrave" unicode="&#xc0;" horiz-adv-x="461" 
d="M257 584q0 13 -9 22.5t-20 14.5q-17 5 -29 18.5t-26 22.5q-14 13 -32 14q-19 -2 -32.5 -17t-14.5 -34q-1 -13 7.5 -23t19.5 -15q15 -10 29.5 -20t28.5 -21q8 -5 16.5 -10t18.5 -6q18 5 31 20t12 34zM426 42q0 8 -2 15.5t-4 15.5q-14 55 -34 108.5t-43 105.5t-47 104
t-45 105q-5 12 -17.5 17.5t-25.5 2.5q-13 2 -24 -4.5t-16 -18.5q-23 -51 -43 -104t-38.5 -106t-38 -106t-41.5 -105q-2 -8 -3.5 -15t-3.5 -15q0 -18 13 -31t30 -18q17 -1 27.5 12t16.5 27q7 17 13.5 33t12.5 33q23 -1 44.5 -2.5t44.5 -3.5q28 6 56 11t57 6q6 -17 12 -33
t11 -33q5 -14 14.5 -28.5t26.5 -14.5q18 0 31 12.5t16 29.5zM284 192q-34 -7 -68 -10t-68 2q18 41 30.5 82.5t29.5 83.5q18 -41 39.5 -78.5t36.5 -79.5z" />
    <glyph glyph-name="Aacute" unicode="&#xc1;" horiz-adv-x="464" 
d="M330 636q-1 19 -14.5 33.5t-31.5 18.5q-8 -1 -16 -4.5t-15 -8.5q-15 -9 -30 -18.5t-26 -23.5q-11 -8 -19.5 -20.5t-9.5 -26.5q1 -17 15 -30t31 -11q8 4 16.5 6t16.5 8q15 8 28.5 18t28.5 18q12 5 19.5 16.5t6.5 24.5zM431 43q1 8 -0.5 15t-3.5 15q-43 108 -87.5 214
t-79.5 217q-5 13 -17 21.5t-26 7.5q-14 -3 -25 -12.5t-15 -23.5q-23 -53 -48 -104.5t-48.5 -103.5t-44 -105.5t-34.5 -109.5q0 -8 -2 -16t-2 -16q4 -18 17 -32t31 -16q16 -2 25.5 10.5t14.5 26.5q6 17 11 33.5t12 33.5q53 -4 105 -1.5t104 6.5q7 -17 12 -33t12 -32
q2 -7 5 -14.5t7.5 -13.5t11 -9.5t15.5 -2.5q18 2 32.5 14t17.5 31zM280 189q-35 -1 -70.5 -3.5t-70.5 -2.5l34 90t37 89q12 -45 32.5 -87t37.5 -86z" />
    <glyph glyph-name="Acircumflex" unicode="&#xc2;" horiz-adv-x="463" 
d="M362 587q-2 14 -10.5 25.5t-19.5 19.5q-14 11 -28 21.5t-28 21.5q-8 6 -17 9t-19 5q-14 -1 -27.5 -2.5t-27.5 -4.5q-10 -1 -18 -7t-16 -11q-14 -11 -28.5 -21.5t-28.5 -21.5q-11 -7 -19.5 -18t-9.5 -25q0 -17 13 -31t30 -13q9 2 17 5.5t16 9.5q14 11 27.5 21.5t26.5 22.5
q9 1 17.5 2t17.5 1q14 -9 27.5 -17.5t27.5 -18.5q7 -7 15.5 -10t17.5 -5q17 -2 31 11.5t13 30.5zM426 42q-2 19 -7 32q-41 109 -82.5 215.5t-83.5 215.5q-5 13 -16 20.5t-25 5.5t-24 -11t-15 -22q-19 -54 -41 -107t-44 -105.5t-42.5 -105.5t-37.5 -108l-6 -30q2 -17 14 -31
t29 -17q17 -1 27.5 12.5t16.5 27.5q7 16 11.5 33t11.5 33q51 -4 101.5 -3.5t100.5 9.5q6 -17 12 -33t13 -33q5 -14 15 -27.5t27 -12.5t30 13t15 29zM278 191q-34 -5 -67.5 -5.5t-67.5 0.5q16 45 33.5 87.5t34.5 87.5q16 -43 32.5 -85.5t34.5 -84.5z" />
    <glyph glyph-name="Atilde" unicode="&#xc3;" horiz-adv-x="489" 
d="M396 631q0 17 -12.5 29.5t-29.5 13.5q-14 3 -27.5 -5t-16.5 -23q-2 -8 -7.5 -13.5t-13.5 -5.5q-11 1 -20.5 7t-18.5 12q-5 4 -10 8.5t-11 7.5q-17 10 -35 14.5t-38 2.5t-39 -11t-34 -23t-25 -32t-11 -39q-2 -17 11.5 -27.5t29.5 -8.5q16 1 29 11t18 26q2 7 6.5 13t12.5 8
q10 0 19 -3.5t18 -7.5q4 -2 7 -4t8 -3q3 -3 6.5 -6t8.5 -4q14 -12 32 -18t36 -6q20 -1 40.5 4.5t35.5 19.5q31 23 31 63zM441 42q1 8 -1 15.5t-4 15.5q-37 109 -78 216t-92 211q-5 14 -17 22t-26 7t-25 -10.5t-15 -22.5q-18 -54 -39.5 -106.5t-43.5 -105t-43 -105
t-39 -106.5q-3 -8 -5 -15.5t-1 -15.5q1 -18 14.5 -31t30.5 -15t27 10t16 25q7 16 12.5 32.5t12.5 32.5q25 -8 51 -8t51.5 3t51 7.5t51.5 6.5q5 -17 11.5 -33.5t11.5 -33.5q3 -14 12.5 -27t26.5 -14q17 3 31.5 15t17.5 30zM296 189q-35 -4 -69 -9t-69 1q17 45 36.5 88
t33.5 88q19 -42 35 -84t33 -84z" />
    <glyph glyph-name="Adieresis" unicode="&#xc4;" horiz-adv-x="573" 
d="M482 565q-1 11 -1 21q0 11 -2 22q0 10 -3 20.5t-8.5 19.5t-14 15t-19.5 7t-19.5 -4t-14 -13.5t-7.5 -19.5t0 -20q2 -11 1 -22t1 -22q0 -10 3 -21t9 -20t15 -14t21 -4q11 -2 19.5 3t14 13.5t7 19t-1.5 19.5zM132 571q2 11 1 22t1 22q1 9 -1 19.5t-7 19t-13 13.5t-19 3
q-22 -3 -34 -22.5t-10 -39.5q-2 -11 -2 -22q0 -10 -1 -21q-2 -9 0 -19.5t7 -19t13 -13.5t19 -3q12 0 20.5 5.5t14.5 14.5t9 20t2 21zM481 43q2 8 0 15.5t-5 14.5q-46 104 -85 209.5t-83 209.5q-6 14 -18 22t-27 10q-14 1 -24.5 -8.5t-15.5 -21.5q-19 -54 -41.5 -106
t-45.5 -104t-44.5 -104.5t-39.5 -106.5q-2 -8 -3.5 -15t-0.5 -15q2 -19 16.5 -31.5t31.5 -17.5q17 -2 26 11.5t14 27.5q6 16 11 32.5t12 32.5q53 -5 105 -5.5t105 3.5q7 -16 12 -31.5t10 -32.5q5 -14 14.5 -27.5t26.5 -11.5q18 5 32.5 18t16.5 32zM332 182q-35 -1 -69 -1.5
t-69 1.5q16 45 36 87t37 87q15 -44 31 -87.5t34 -86.5z" />
    <glyph glyph-name="Aring" unicode="&#xc5;" horiz-adv-x="566" 
d="M476 40q-1 7 -1.5 13.5t-2.5 12.5q-27 94 -56.5 186t-52.5 188q15 3 29.5 10t26 18t18 25t4.5 31q1 16 0 31.5t-2 31.5q-1 18 -9 35.5t-20.5 30.5t-29.5 20.5t-35 5.5q-42 -4 -84.5 -7.5t-84.5 -4.5q-18 0 -33.5 -8t-27.5 -20.5t-19.5 -28.5t-8.5 -34q-1 -17 -2 -32.5
t-1 -32.5q-2 -15 3.5 -29.5t15.5 -26t23.5 -19t28.5 -10.5q-32 -88 -53.5 -179t-49.5 -181q0 -7 -1.5 -13t-2.5 -13q4 -17 14.5 -33t28.5 -20q17 -6 29 8t14 29q7 26 14 51t14 51q22 -2 44 -1.5t44 -0.5q27 5 54.5 9t55.5 6q8 -25 14.5 -49.5t13.5 -50.5q4 -16 14.5 -29.5
t28.5 -13.5q17 2 30 14.5t15 29.5zM351 527q-45 -7 -89 -11t-89 -2q1 16 1 32t1 32q44 1 87.5 3.5t87.5 9.5q1 -16 1 -32v-32zM331 224q-36 -7 -72 -11t-73 -1q13 54 29 107t34 107q11 0 22 3q14 -52 28.5 -103t31.5 -102z" />
    <glyph glyph-name="AE" unicode="&#xc6;" horiz-adv-x="598" 
d="M529 43q2 11 -3 19t-13.5 13t-19 7t-19.5 1q-26 -3 -51.5 -2.5t-51.5 -1.5q-2 53 -6.5 104.5t-8.5 104.5q24 0 48 -0.5t48 1.5q10 -2 21 0.5t20 8t14.5 14t4.5 20.5t-7 20t-15.5 13.5t-20.5 7.5t-21 2q-26 -1 -51 -1q-24 0 -50 2q-5 54 -6.5 107t-3.5 107q33 -4 66 -5
t66 -3q9 -1 20 1t19.5 7.5t13.5 13.5t4 20q-1 22 -20 33.5t-39 10.5q-45 2 -90 5.5t-90 11.5q-16 2 -27.5 -9.5t-17.5 -25.5q-29 -72 -59 -143.5t-58.5 -143.5t-53.5 -145t-44 -148q-2 -8 -3.5 -15t-0.5 -15q2 -17 13.5 -29.5t28.5 -14.5q8 -1 16 1t13 8q5 8 9 15t6 15
q9 26 18.5 51.5t17.5 51.5q34 -2 67.5 -4t67.5 -3q2 -26 2.5 -53t2.5 -53q-2 -11 2.5 -19.5t13 -14t18.5 -6.5t19 2q32 5 64.5 5.5t64.5 3.5q21 0 40.5 12t21.5 35zM272 221q-25 0 -50 1l-50 2q18 63 39.5 124t44.5 122q0 -63 4.5 -124.5t11.5 -124.5z" />
    <glyph glyph-name="Ccedilla" unicode="&#xc7;" horiz-adv-x="539" 
d="M475 44q0 11 -5.5 19t-14 13t-19 7t-19.5 1q-37 1 -73 2t-73 3q-15 1 -29.5 6.5t-22.5 20.5q-22 42 -47.5 81.5t-46.5 82.5q-12 24 -12 53q1 14 4 28.5t11 27.5q22 48 46.5 92.5t45.5 92.5q6 14 19 20.5t27 5.5q37 -2 73.5 -5t73.5 -8q9 -2 19.5 -0.5t19 6t13 13
t2.5 19.5q-4 22 -21.5 36t-38.5 16q-36 3 -72.5 6t-72.5 7q-21 2 -39 -4.5t-33.5 -18.5t-28 -28t-20.5 -33q-23 -49 -48 -96t-49 -95q-9 -20 -16 -40t-5 -42q-1 -22 4.5 -43t14.5 -41q23 -47 48.5 -92t49.5 -91q17 -32 50 -51.5t70 -13.5q39 0 78 -1.5t78 -2.5q10 0 21 3
t19.5 9t14 14.5t4.5 20.5zM404 -88q2 19 -12 32.5t-31 15.5q-10 0 -18.5 -3.5t-16.5 -8.5q-14 -9 -29.5 -17.5t-29.5 -19.5q-11 -7 -19.5 -18.5t-9.5 -25.5q0 -17 12.5 -31.5t29.5 -14.5q9 0 17 3.5t16 8.5q16 8 30 18t29 19q11 7 21 17.5t11 24.5z" />
    <glyph glyph-name="Egrave" unicode="&#xc8;" horiz-adv-x="541" 
d="M300 583q0 13 -8.5 23.5t-20.5 15.5q-14 9 -29 17.5t-29 19.5q-8 5 -16 9.5t-18 4.5q-19 1 -31.5 -13.5t-14.5 -32.5q1 -14 9 -24.5t19 -18.5q14 -10 29 -19.5t30 -18.5l16 -8t18 -3q19 2 33 15.5t13 32.5zM469 44q2 11 -2.5 20t-13 14.5t-19 7.5t-19.5 1q-74 1 -148 -6
t-148 -4q1 34 0 67.5t1 67.5q30 -2 61 -2t61 4q10 0 21 3t20 8.5t15 14.5t5 21q1 12 -4 20t-14 13.5t-19.5 7t-20.5 -0.5q-30 -3 -61 -3t-61 1q3 35 -3 68t-5 68q38 -3 75.5 -1.5t75.5 4t75.5 4.5t75.5 0q9 0 20 0.5t20.5 4t15 11t4.5 19.5q-1 23 -21 36.5t-41 12.5
q-98 -2 -195 -3.5t-195 -3.5q-4 -31 -2 -61.5t5 -60.5t5.5 -60.5t0.5 -61.5q-4 -69 -3 -138.5t8 -138.5q46 -9 92 -9.5t91.5 2.5t91.5 6.5t92 2.5q10 0 21 2t20 7.5t15.5 14t6.5 20.5z" />
    <glyph glyph-name="Eacute" unicode="&#xc9;" horiz-adv-x="545" 
d="M368 630q-2 18 -15 32.5t-32 14.5q-17 -3 -33 -14q-29 -27 -57 -47q-26 -15 -28 -43q1 -19 14 -32t32 -14q21 3 35 19l28 22t29 20q10 8 18 18t9 24zM466 43q1 23 -18.5 32t-38.5 6q-36 1 -73 -4.5t-73.5 -10t-73.5 -4.5q-36 0 -72 12q-2 34 -4 67t-1 67q31 -4 61.5 -7.5
t61.5 -2.5q23 1 42.5 16.5t19.5 39.5q0 17 -10 28q-12 4 -24 4.5t-24 0.5q-31 0 -62 2.5t-62 5.5q5 34 5 67v67q37 -5 75 -3.5t75.5 5t75 6.5t75.5 0q9 -1 20 0.5t20 6t14.5 13t4.5 20.5q-1 23 -21 34.5t-41 11.5q-49 0 -97.5 -2.5l-97 -5t-97 -3t-97.5 5.5q2 -65 -0.5 -130
t-4 -130t0.5 -130t13 -129q44 -5 86 -13.5t86 -11.5q49 2 97 11.5t98 8.5q21 0 40 13t21 36z" />
    <glyph glyph-name="Ecircumflex" unicode="&#xca;" horiz-adv-x="553" 
d="M414 583q-2 14 -11 25.5t-20 19.5q-15 11 -29.5 22t-29.5 22q-7 8 -16 11.5t-18 5.5q-14 3 -28 3.5t-28 -4.5q-10 -3 -19 -7t-16 -12q-17 -10 -31 -24t-30 -24q-12 -8 -20.5 -19t-10.5 -25q-2 -18 12 -31t31 -12l10 4l10 5l9 6l5 4q14 12 29 22.5t29 23.5q9 2 18 2
q10 0 20 -2q14 -11 27 -20.5t27 -20.5q15 -12 36 -17q17 -2 31.5 11t12.5 31zM478 44q0 12 -5 20t-13.5 12.5t-19 6t-19.5 0.5q-74 4 -147 1.5t-147 -8.5q-2 34 -3 67.5t-3 67.5q31 1 61.5 4t61.5 7q9 0 20 2t20.5 7t15 13t4.5 20q-2 23 -22 36.5t-42 9.5q-31 -5 -62 -8
t-62 -5q-5 35 0 68.5t5 68.5q75 14 151 13.5t151 -9.5q9 -1 20.5 0t20.5 5.5t15 13t5 20.5q0 12 -5.5 20.5t-14.5 14.5t-20 9t-21 3q-46 3 -90.5 9t-90.5 4q-51 -9 -102 -15.5t-103 -4.5q-8 -65 -9 -129.5t2 -129.5t8.5 -130t11.5 -129q46 -8 92 -8.5t91.5 2t91.5 5t92 -0.5
q10 -1 20.5 2t19.5 9.5t14.5 15.5t6.5 20z" />
    <glyph glyph-name="Edieresis" unicode="&#xcb;" horiz-adv-x="553" 
d="M404 595q-1 5 -1.5 9.5t0.5 9.5q0 10 -2.5 20.5t-7.5 19.5t-13 15t-19 7q-12 1 -20.5 -4t-14 -13.5t-8 -19t-1.5 -20.5v-18q-1 -10 1.5 -21t8 -20t14.5 -15t21 -5q11 -2 19.5 3t14 13.5t7.5 19t1 19.5zM193 600q-1 5 -0.5 9.5t1.5 9.5q1 9 -0.5 20t-6.5 19.5t-13 13.5
t-20 4q-23 -3 -35.5 -23.5t-10.5 -42.5q-1 -5 -1 -9v-9q-2 -9 0.5 -20t7.5 -20t14 -13.5t21 -1.5q23 2 33.5 22.5t9.5 40.5zM474 43q2 12 -3 19.5t-13.5 11.5t-18.5 5.5t-19 0.5q-34 -2 -68 -1t-68 3q-39 -5 -78 -11t-79 -3q-1 34 -2.5 68t-2.5 68q61 0 123 9q10 1 21 4
t20 8t14.5 13.5t5.5 21.5q-1 23 -20 34t-39 8q-31 -5 -61.5 -7t-61.5 -3q5 35 3 69.5t-1 69.5q74 8 147 10t147 -5q9 -1 20 1t19.5 7.5t13.5 13.5t3 20q-2 22 -21.5 32.5t-38.5 9.5q-47 6 -94 6.5t-94 -1.5t-94.5 -4.5t-94.5 -2.5q1 -65 -0.5 -130t-2.5 -130t0.5 -130
t9.5 -129q41 -17 84.5 -20t86.5 5q24 7 48.5 8.5t49 1t49 -1.5t49.5 1q21 2 40 14.5t21 35.5z" />
    <glyph glyph-name="Igrave" unicode="&#xcc;" horiz-adv-x="478" 
d="M269 590q-1 14 -10 24t-19 19q-13 11 -28 17.5t-29 15.5q-8 5 -16.5 8t-17.5 3q-18 -3 -31.5 -17t-12.5 -33q0 -14 9 -24t20 -16l57 -33q8 -6 17 -6t17 -2q18 -2 32 12t12 32zM439 43q1 11 -4 19t-13.5 12.5t-19 6t-19.5 0.5q-29 -5 -57.5 -6t-57.5 0q-2 92 -5.5 183
t3.5 183q30 -2 59.5 -1.5t59.5 -1.5q9 -1 20 0.5t20 6t14.5 13t4.5 20.5q-2 23 -21.5 36.5t-40.5 11.5q-38 1 -75.5 1.5t-75.5 5.5q-43 -8 -85.5 -10t-86.5 0q-10 0 -20.5 -2.5t-19.5 -8t-15 -14t-6 -20.5q-2 -11 3 -19.5t13.5 -14t19.5 -8t20 -0.5q30 -3 60.5 -2.5
t60.5 3.5q-5 -46 -4.5 -92t2.5 -91.5t4.5 -91.5t3.5 -92q-29 -4 -57.5 -1t-57.5 8q-9 2 -19 1t-19 -5t-14.5 -12t-3.5 -19q-1 -23 18 -36.5t39 -15.5q36 -7 73 -9t72 8q42 -3 82.5 -2t81.5 7q21 0 41.5 12.5t21.5 36.5z" />
    <glyph glyph-name="Iacute" unicode="&#xcd;" horiz-adv-x="549" 
d="M371 631q-2 19 -15 32.5t-31 16.5q-19 -2 -34 -13q-14 -11 -28.5 -20.5t-28.5 -20.5q-11 -8 -19.5 -18.5t-9.5 -24.5q-2 -19 12 -33t33 -13q10 2 18 6t17 9q14 9 29 19t30 19q10 8 18.5 17.5t8.5 23.5zM468 43q1 11 -4 19.5t-13.5 14t-19 8t-19.5 2.5q-29 -1 -57.5 -2
t-57.5 -6q2 91 -2 180t3 180q30 2 59.5 2.5t59.5 -1.5q9 -1 20 0.5t20.5 5.5t15 11.5t4.5 19.5q0 22 -19.5 35.5t-39.5 12.5q-41 3 -82 2t-82 -2.5l-82 -3t-82 0.5q-10 0 -20.5 -2.5t-19 -8.5t-14 -14.5t-5.5 -19.5q-1 -11 4.5 -19t14 -13.5t19 -7.5t19.5 -2q30 2 60 0.5
t60 -0.5q-5 -46 -5 -92q0 -45 1.5 -91t3 -91.5t0.5 -91.5q-29 2 -57.5 2.5t-57.5 3.5q-9 3 -19.5 2t-19 -5t-13.5 -11.5t-2 -18.5q3 -23 20 -38.5t40 -16.5q39 -9 77.5 -8t77.5 5.5t77.5 10t77.5 6.5q9 0 19.5 2.5t19.5 7.5t14.5 13t5.5 19z" />
    <glyph glyph-name="Icircumflex" unicode="&#xce;" horiz-adv-x="515" 
d="M386 587q-2 14 -11 26t-20 20q-15 10 -29 21t-29 21q-8 6 -16.5 9t-17.5 5q-14 1 -28 -1.5t-28 -7.5q-10 -2 -19 -6.5t-17 -9.5q-14 -11 -29 -21t-29 -21q-12 -5 -19.5 -17t-9.5 -25q-1 -19 12 -32.5t31 -14.5q9 2 18 5.5t16 9.5q14 10 28 20.5t27 22.5q10 2 19 5t19 2
q14 -11 27.5 -19.5t27.5 -19.5q8 -5 16.5 -9.5t18.5 -5.5q17 -1 30.5 12t11.5 31zM455 44q3 11 -2 19t-13.5 12.5t-19 5.5t-19.5 -1q-59 -5 -118 0q3 46 2 91.5t-2.5 91.5t-1.5 91q0 46 3 92q29 -2 59 -3t60 -3q9 -2 20 -0.5t20.5 6t15 12.5t3.5 20q-2 23 -22 35.5t-41 13.5
q-41 9 -81.5 8.5t-81 -4.5l-81 -8t-81.5 -2q-20 1 -39.5 -10t-20.5 -34q0 -23 19.5 -34.5t39.5 -8.5q30 -2 60 -1t60 5q-6 -91 -2.5 -180.5t3.5 -180.5q-30 -4 -60 -6.5t-60 2.5q-8 1 -19 1q-10 0 -18.5 -3.5t-13.5 -10.5t-2 -19q2 -23 19.5 -39.5t40.5 -18.5q37 -5 73.5 0
t72.5 10q41 -3 81.5 -4.5t81.5 3.5q22 2 42 15t23 37z" />
    <glyph glyph-name="Idieresis" unicode="&#xcf;" horiz-adv-x="568" 
d="M407 600q0 3 -0.5 5.5t-0.5 5.5v8q0 10 -2.5 20.5t-8 19.5t-14 15t-19.5 6q-12 1 -20.5 -4t-14 -14t-8 -19.5t-0.5 -20.5q1 -5 1 -10v-9q0 -10 2.5 -21t8 -20t14.5 -14t21 -4q11 -2 19.5 3.5t14 14t7.5 19t0 19.5zM196 597v19q1 9 -1 20t-7 19.5t-13 14t-20 4.5
q-23 -2 -34 -22.5t-11 -40.5v-18q-1 -10 1.5 -20t8 -18t14 -13t19.5 -5q22 1 34 20.5t9 39.5zM471 44q0 11 -5 19t-13.5 13t-19 7t-19.5 2q-29 -1 -57 -0.5t-57 -1.5q-3 45 -1 90t5 90.5t5 90.5t0 90q29 1 58.5 0t58.5 -5q9 -1 20 0.5t20 6t14 12t3 19.5q0 12 -6 20.5
t-15 14t-20 8.5t-21 4q-40 4 -80.5 3.5t-80.5 -2.5t-80.5 -4t-80.5 -1q-9 0 -20 -2.5t-19.5 -7.5t-14 -13.5t-4.5 -20.5q0 -11 5.5 -19.5t14.5 -14t19.5 -7.5t20.5 -1q29 0 59 -0.5t59 1.5q2 -45 -0.5 -90.5t-5.5 -91t-4 -91t4 -90.5q-29 -2 -57 1.5t-57 8.5q-9 2 -19.5 0.5
t-19 -6.5t-13 -13.5t-2.5 -19.5q1 -12 7 -20.5t15 -15t19.5 -10t20.5 -4.5q38 -11 76.5 -10t76.5 5.5t76.5 9t77.5 0.5q20 -2 39.5 10.5t17.5 35.5z" />
    <glyph glyph-name="Eth" unicode="&#xd0;" horiz-adv-x="580" 
d="M491 336q2 23 -4.5 44t-17.5 41q-25 45 -48 90t-48 91q-17 34 -48.5 60.5t-72.5 28.5q-38 -5 -74.5 -10t-74.5 -9q-20 -2 -38 -14.5t-19 -34.5q-2 -11 3 -19t13.5 -13t18.5 -6.5t19 1.5q8 1 14.5 0.5t14.5 1.5q-4 -53 -6 -105t-2 -105q-5 0 -9 0.5t-9 -0.5q-9 0 -20 -2.5
t-20 -7.5t-14 -13.5t-3 -20.5q0 -11 6 -20t14.5 -15t19 -8.5t21.5 -0.5q5 -1 9 -1h10q2 -54 2 -107v-107q-8 -1 -14.5 0t-14.5 1q-8 1 -18 0.5t-18.5 -4.5t-14 -11t-3.5 -18q1 -23 19 -37.5t39 -16.5q36 -3 71 -2t70 -7q19 -2 37.5 4t34 17t28.5 26t21 32q23 48 49 93t51 91
q24 44 26 93zM399 332q-2 -13 -4.5 -25.5t-9.5 -24.5q-23 -47 -47 -92t-47 -92q-6 -13 -18 -22.5t-27 -4.5l-30 3q0 55 1.5 109t0.5 109q14 1 28.5 0t28.5 -1q10 0 21.5 2.5t20.5 8t14.5 14.5t4.5 21q1 12 -5 21t-15.5 15t-21 8.5t-21.5 1.5q-14 2 -28.5 0.5t-28.5 -1.5
q1 54 1 107q0 54 2 108q7 2 14 1.5t14 1.5q15 2 27 -8t18 -23q22 -45 44.5 -88t45.5 -88q15 -29 17 -61z" />
    <glyph glyph-name="Ntilde" unicode="&#xd1;" horiz-adv-x="591" 
d="M438 633q0 18 -13.5 29.5t-29.5 13.5q-15 2 -28 -8t-15 -25q-3 -17 -20 -19q-11 0 -20.5 5t-18.5 10q-6 3 -12 5.5t-11 7.5q-16 10 -33 19.5t-37 7.5q-21 -2 -40.5 -11t-34.5 -23.5t-25 -33t-13 -39.5q-2 -17 12.5 -27t30.5 -8q15 2 28.5 11.5t17.5 25.5q2 17 21 22
q10 0 19 -4t17 -10q2 -2 5 -2.5t5 -2.5q2 -1 2.5 -2t2.5 -2q5 -3 9 -6t8 -7q16 -8 33 -12.5t35 -4.5q21 1 41 6.5t37 18.5q14 12 20.5 29.5t6.5 35.5zM478 1q0 58 5.5 115.5t10.5 115t7 115t-4 115.5q-2 21 -14.5 41t-35.5 20q-11 2 -19.5 -3t-13.5 -13.5t-7 -19t0 -19.5
q7 -42 6.5 -84t-4.5 -84l-8 -84t-2 -84q-58 100 -115 199t-126 192q-28 -3 -55.5 -5t-55.5 0q6 -58 5 -115.5t-3.5 -115.5t-3 -115.5t6.5 -115.5q1 -10 4 -20.5t8 -19.5t13 -16t19 -8q11 -2 19.5 2.5t13.5 13t7 19t1 19.5q-9 84 -4 166.5t7 166.5q57 -97 115 -193t118 -193
q26 3 52.5 4t52.5 4z" />
    <glyph glyph-name="Ograve" unicode="&#xd2;" horiz-adv-x="559" 
d="M300 589q-2 14 -11 22.5t-20 16.5q-17 6 -29 18t-27 20q-15 14 -32 15q-19 -2 -32 -17.5t-14 -33.5q-1 -14 8 -24t20 -16q16 -9 30.5 -19t28.5 -21q8 -5 16 -9t18 -4q19 2 31.5 17.5t12.5 34.5zM486 257q2 17 -3 32t-14 29q-27 40 -53.5 80.5t-54.5 80.5q-9 13 -21 24.5
t-26 19.5t-30 11.5t-32 -0.5q-33 4 -62 -14t-45 -46q-23 -41 -46.5 -80t-47.5 -78q-17 -28 -20 -59q0 -20 7 -37t16 -34q24 -34 46.5 -68.5t45.5 -69.5q18 -27 46 -45t61 -15q29 3 54 17t42 38q27 38 55.5 75t56.5 75q22 30 25 64zM396 255q-2 -4 -2.5 -7.5t-3.5 -6.5
q-28 -37 -56 -73.5t-54 -75.5q-5 -8 -12.5 -11t-15.5 -5q-17 -1 -29 16q-23 36 -47.5 72.5t-48.5 72.5l-3 10l-2 8q2 6 4 11t5 10q25 38 48 77t47 77q5 7 13 12.5t16 4.5q9 0 17.5 -3t13.5 -11q28 -38 53 -77t50 -80q2 -2 2.5 -5t2.5 -5l2 -10v-1z" />
    <glyph glyph-name="Oacute" unicode="&#xd3;" horiz-adv-x="568" 
d="M375 627q-2 18 -14.5 32.5t-31.5 13.5q-9 -1 -16.5 -5t-15.5 -9q-14 -10 -28.5 -19t-27.5 -20q-12 -5 -18.5 -17t-8.5 -24q0 -18 13.5 -31.5t31.5 -15.5q20 3 32 14q16 9 30.5 19t28.5 21q10 8 18 17.5t7 23.5zM487 257q-2 17 -8.5 32.5t-18.5 28.5q-26 38 -46 77.5
t-46 77.5q-17 26 -45.5 41.5t-59.5 15.5q-32 -1 -61 -17t-46 -44q-23 -39 -49.5 -76.5t-51.5 -76.5q-17 -26 -17 -59q0 -20 8.5 -37t16.5 -34q25 -35 47 -71.5t46 -71.5q7 -14 18 -27t24 -22t28.5 -13.5t32.5 0.5q31 1 57 18.5t43 41.5q28 38 56 75.5t54 77.5q18 28 18 63z
M398 252q-1 -4 -1.5 -8t-3.5 -7q-23 -40 -49 -77.5t-52 -75.5q-5 -8 -13 -11t-16 -4q-18 -3 -28 12q-26 38 -50.5 75t-50.5 75q-2 5 -3.5 9t-3.5 9q2 13 7 21q22 41 48.5 78t49.5 76q6 7 13.5 12.5t16.5 6.5q9 0 16.5 -5.5t12.5 -12.5q23 -39 45 -78t53 -73q7 -9 9 -22z" />
    <glyph glyph-name="Ocircumflex" unicode="&#xd4;" horiz-adv-x="560" 
d="M408 582q-3 14 -11 25t-21 16q-15 11 -29.5 21t-29.5 21q-9 5 -17.5 9.5t-19.5 6.5q-14 2 -27.5 4.5t-27.5 0.5q-10 0 -18 -4t-16 -9q-14 -12 -30 -22t-30 -24q-26 -16 -31 -45q-2 -18 11.5 -31.5t31.5 -11.5q20 5 34 16t29 19t29 18q9 1 18 -1t18 -2q14 -12 29.5 -21
t29.5 -20q2 -2 4.5 -3.5t4.5 -2.5q3 -1 5.5 -2t5.5 -2q2 -1 5 -1.5t5 -1.5h5q17 0 31 14.5t12 32.5zM487 257q-3 17 -7 33t-17 29q-26 38 -50.5 76.5t-50.5 76.5q-18 28 -47 45t-61 21q-34 4 -63.5 -14.5t-47.5 -47.5q-24 -39 -43.5 -80t-43.5 -81q-8 -14 -16 -27.5
t-10 -30.5q-1 -20 5.5 -37.5t14.5 -34.5q23 -35 48.5 -68t48.5 -68q20 -29 48 -49t60 -30q31 4 57 22.5t43 43.5q28 41 56.5 79.5t54.5 79.5q11 13 16 29t5 33zM396 252l-3 -10v-1l-2 -4q-26 -40 -52.5 -79t-53.5 -79q-5 -8 -13 -12t-17 -5q-10 2 -16.5 9t-12.5 15
q-23 39 -49.5 76.5t-51.5 75.5q-2 4 -4 7.5t-2 8.5q3 12 10 22q15 18 27 37t22.5 39.5t21 40.5t23.5 39q5 7 13 12t17 3q18 -3 30 -20l52 -78t53 -77q7 -10 8 -20z" />
    <glyph glyph-name="Otilde" unicode="&#xd5;" horiz-adv-x="556" 
d="M430 630q0 17 -12 29.5t-29 14.5q-15 1 -28.5 -8t-16.5 -24q-3 -17 -20 -20q-11 0 -20 4t-19 7q-5 4 -11 6t-11 5q-16 9 -33.5 16t-37.5 6t-39 -9t-34.5 -21t-26 -30.5t-11.5 -38.5q-4 -16 10 -27.5t29 -9.5q16 0 30 10t18 26q3 7 8 12t13 6q10 0 18.5 -4t17.5 -8l8 -6
l7 -3q4 -3 7.5 -5.5t7.5 -5.5q35 -14 69 -13q21 1 41 7t37 20q15 11 21.5 28.5t6.5 35.5zM477 257q-2 16 -6.5 31t-13.5 29q-24 39 -45.5 78.5t-46.5 77.5q-9 13 -20.5 24.5t-25.5 19t-29.5 10t-31.5 -1.5q-33 2 -62.5 -16t-46.5 -45q-24 -38 -48 -75t-47 -76
q-8 -13 -13 -27.5t-4 -29.5q1 -20 7.5 -38t16.5 -35q20 -36 44 -70t48 -69q19 -27 47 -45.5t61 -22.5q29 0 55.5 16t40.5 41q24 41 49.5 80.5t49.5 79.5q9 15 14.5 31t6.5 33zM390 250l-3 -10l-3 -5q-23 -39 -48 -78t-50 -77q-9 -13 -27 -15q-9 2 -16.5 7.5t-13.5 12.5
q-25 36 -49.5 72.5t-50.5 72.5l-4 8t-2 9q1 2 1 5t1 5l5 9l1 2q20 41 44.5 78t50.5 75l8 7l9 7l10 2l4 1q9 2 16 -2.5t13 -10.5q26 -38 48 -77.5t48 -77.5q7 -10 8 -20z" />
    <glyph glyph-name="Odieresis" unicode="&#xd6;" horiz-adv-x="582" 
d="M492 563l-3 45q-1 10 -4 21.5t-9 21t-14.5 15.5t-20.5 7q-12 3 -20 -2t-12.5 -14t-5.5 -19.5t1 -19.5q1 -11 1.5 -23t0.5 -23q0 -10 3 -20.5t8.5 -19.5t14 -14.5t20.5 -5.5q10 -2 18.5 2t14 12t7.5 18t0 19zM142 574v46q0 9 -2 19.5t-7 19t-12.5 13t-19.5 2.5
q-23 -5 -34 -24.5t-9 -40.5q1 -11 0 -22.5t-1 -22.5q-2 -9 0.5 -19.5t8 -18.5t14 -12.5t19.5 -1.5q11 0 19.5 6t14 15t8 20t1.5 21zM492 257q0 17 -6 32.5t-16 29.5q-25 38 -45 78.5t-45 79.5q-17 27 -44 46.5t-60 21.5q-34 -2 -63.5 -21t-46.5 -48q-25 -42 -54.5 -79
t-55.5 -79q-6 -14 -9.5 -29.5t-2.5 -31.5q1 -19 8.5 -37t18.5 -33q24 -35 47.5 -69.5t47.5 -69.5q16 -28 44 -48t62 -12q30 -7 56.5 10t42.5 41l52 78t51 79q19 29 18 61zM403 255q-1 -4 -1.5 -7.5t-2.5 -6.5q-24 -38 -48 -77t-50 -76q-5 -6 -12.5 -8.5t-15.5 -1.5
q-18 -4 -30 13q-26 37 -51.5 73.5t-51.5 74.5l-6 9q-1 2 -1 4t-1 4q2 13 7 21q7 22 19.5 42t27 39t29.5 37.5t27 38.5q6 8 13 14t17 7q9 -2 16.5 -7.5t12.5 -13.5q22 -41 43 -82t51 -76l5 -9v-1l3 -10v-1z" />
    <glyph glyph-name="Oslash" unicode="&#xd8;" horiz-adv-x="587" 
d="M490 333q-1 23 -7 45.5t-17 43.5q-11 23 -22 45.5t-22 45.5q11 20 23 40l24 40q5 8 7.5 16.5t4.5 17.5q-2 17 -14 30t-29 16q-14 5 -25 -4.5t-17 -20.5q-5 -10 -10.5 -19.5t-11.5 -19.5q-14 32 -42.5 56t-65.5 20q-34 3 -59.5 -18t-39.5 -50q-23 -49 -45.5 -98.5
t-47.5 -98.5q-9 -20 -15.5 -41t-6.5 -43q0 -23 6 -45.5t16 -43.5q11 -23 21.5 -45.5t21.5 -45.5q-12 -20 -23 -40.5t-24 -40.5q-9 -15 -12 -34q2 -17 13 -31t28 -18q15 0 27 10t18 23q6 9 10 19t9 19q14 -32 42.5 -53.5t63.5 -23.5q17 -3 33 2t29.5 14.5t24 23t16.5 28.5
q23 51 47.5 99t49.5 97q11 19 17 40t4 43zM322 518q-38 -68 -76.5 -135.5t-76.5 -135.5q-4 5 -6 11.5t-5 11.5q-16 32 -19 63q-1 17 6 32t12 31l87 183q4 7 10 12t14 4q8 0 13.5 -5t10.5 -11q8 -15 15 -30.5t15 -30.5zM403 338q-1 -30 -17 -60q-22 -48 -44.5 -93.5
t-44.5 -93.5q-3 -8 -10 -12.5t-15 -3.5q-19 5 -27 23q-17 29 -29 56q41 68 79 136t76 137l4 -10q2 -3 2.5 -6t2.5 -5q2 -3 2.5 -6t2.5 -5q0 -1 0.5 -1.5t0.5 -1.5q5 -14 10.5 -27t6.5 -27z" />
    <glyph glyph-name="Ugrave" unicode="&#xd9;" horiz-adv-x="574" 
d="M313 598q0 14 -8 25t-19 19q-14 10 -27.5 18.5t-28.5 15.5q-8 5 -15.5 8t-16.5 1q-20 -4 -32 -19.5t-15 -34.5q-1 -13 7 -22.5t19 -14.5q31 -14 58 -31q8 -5 16 -6.5t16 -3.5q18 -1 31.5 13t14.5 32zM494 134q3 42 0.5 83t-6 82.5t-6 82.5t1.5 83q1 10 -1.5 21t-8.5 20
t-15 15t-20 7q-11 3 -19.5 -1.5t-14.5 -12.5t-9 -18.5t-1 -19.5q-4 -42 -2 -83.5t5.5 -83t6.5 -83t0 -83.5q-1 -11 -2.5 -21.5t-9.5 -18.5q-24 -13 -48 -13q-38 1 -74.5 -2.5t-74.5 -5.5q-11 0 -21.5 3.5t-18.5 10t-13 16t-4 20.5q0 42 -3.5 84l-7 84t-4.5 84t4 84
q1 9 -1 19.5t-7.5 19t-14 13t-19.5 2.5q-11 0 -20 -5.5t-15.5 -14t-9.5 -19t-2 -20.5q-5 -41 -4 -82.5t4 -82.5t6.5 -82.5t4.5 -82.5q1 -27 12 -52t30 -45q19 -19 43 -29.5t50 -11.5q43 -2 85.5 1.5t85.5 4.5q26 0 49.5 10t41.5 28q20 19 32.5 43t14.5 52z" />
    <glyph glyph-name="Uacute" unicode="&#xda;" horiz-adv-x="592" 
d="M388 629q-2 19 -15.5 33.5t-32.5 19.5q-19 2 -32 -8q-14 -8 -28.5 -16.5t-25.5 -19.5q-11 -10 -20 -20.5t-9 -24.5q-1 -18 13 -31t34 -11q8 2 17 4t17 7q14 8 28.5 14.5t28.5 15.5q11 5 18.5 15t6.5 22zM499 133q4 83 9 165t-3 165q-2 20 -14 39.5t-35 18.5
q-11 1 -20 -3.5t-14.5 -12.5t-7.5 -18t0 -20q4 -42 4 -84q0 -41 -2 -82t-5 -82.5t-4 -83.5q-1 -11 -2.5 -22.5t-9.5 -19.5q-2 -2 -5 -3.5t-5 -3.5q-3 -1 -5.5 -1.5t-5.5 -0.5q-3 -1 -6 -0.5t-6 -1.5h-11q-2 0 -3 0.5t-3 0.5q-20 4 -39 3t-38.5 -4.5t-39 -8t-38.5 -7.5
q-11 -2 -22 1.5t-19.5 10.5t-13.5 16.5t-4 21.5q-2 43 0.5 86t6 86.5t5.5 86.5t-1 86q1 10 -1.5 20.5t-8.5 19t-14.5 13.5t-20.5 4q-22 2 -35.5 -17t-9.5 -39q3 -41 0 -82t-6.5 -82.5t-6 -82.5t1.5 -82q2 -30 14.5 -57.5t31.5 -50.5q17 -22 42 -35.5t54 -13.5q22 3 43.5 6.5
t41.5 14.5q43 0 88 -3q26 -2 50.5 9.5t43.5 29.5q20 20 32.5 46t16.5 54z" />
    <glyph glyph-name="Ucircumflex" unicode="&#xdb;" horiz-adv-x="586" 
d="M419 587q-2 14 -11 24t-20 18q-15 9 -29 19t-28 21q-15 10 -36 13q-14 2 -28 2q-13 0 -27 -2q-10 -1 -18.5 -5.5t-16.5 -10.5q-17 -8 -30 -21t-29 -23q-11 -8 -20 -18.5t-10 -24.5q-2 -17 11.5 -31t30.5 -13q10 1 18.5 6t16.5 12q15 10 29.5 19.5t28.5 21.5q9 2 17.5 1.5
t17.5 -1.5q13 -11 28 -19.5t29 -19.5q8 -6 16.5 -9t17.5 -5q17 2 30.5 15t11.5 31zM493 132q4 41 4 82q0 42 -1.5 83.5t-3.5 83t0 82.5q0 22 -12 41t-35 23q-12 1 -20.5 -3.5t-14 -12.5t-8 -18t-0.5 -20q-1 -42 0.5 -83.5l3 -83t2 -83t-2.5 -83.5q2 -12 -3 -23.5t-14 -19.5
t-21 -11.5t-24 -1.5q-38 -1 -75.5 -2.5t-75.5 -4.5q-11 -3 -21.5 -1t-18.5 8.5t-13 16.5t-4 21q0 86 -0.5 170.5t-1.5 170.5q1 9 -1.5 20t-8 19.5t-14 13.5t-19.5 3q-22 0 -35 -18.5t-10 -38.5q2 -83 0 -165t3 -165q1 -29 11.5 -55.5t29.5 -48.5q17 -20 41.5 -31t50.5 -9
q43 5 86 6.5t87 2.5q26 1 49 13t42 29q20 18 32 42.5t16 50.5z" />
    <glyph glyph-name="Udieresis" unicode="&#xdc;" horiz-adv-x="585" 
d="M407 569q1 11 -1.5 22.5t-2.5 22.5q-1 10 -4.5 20.5t-9.5 19t-15 14t-21 4.5q-12 1 -19.5 -5t-12 -15t-6 -19.5t0.5 -19.5q1 -11 2 -22.5t1 -22.5q-1 -10 2 -20.5t9 -19.5t15 -14.5t21 -3.5q22 1 34 20t7 39zM230 570q0 11 -0.5 23t-1.5 23q0 10 -2.5 20.5t-8.5 19.5
t-14.5 14.5t-20.5 5.5t-20 -5.5t-13.5 -14.5t-7.5 -19.5t-1 -20.5q-1 -11 0 -22.5t1 -22.5q-1 -10 1.5 -21t8 -20t14.5 -14t21 -4q12 -1 21 4t14.5 13.5t8 19.5t0.5 21zM490 135q-2 82 0 164t10 164q1 10 -2 20.5t-9 18.5t-15 13t-20 5q-11 1 -19.5 -3.5t-14.5 -12.5t-9 -18
t-1 -20q-9 -82 -11 -164t3 -165q1 -11 -2.5 -21.5t-8.5 -20.5q-21 -12 -48 -15q-38 -3 -75.5 -4.5t-75.5 3.5q-21 -3 -40 11.5t-17 37.5q-5 85 -6.5 168.5t10.5 168.5q1 10 -1 20.5t-7.5 19.5t-13.5 14t-20 3q-23 -2 -35.5 -21t-11.5 -40q-12 -82 -9 -164t8 -164
q1 -28 12 -53.5t28 -46.5q17 -20 41.5 -30.5t50.5 -11.5q21 -1 42.5 -2t42.5 -5q22 4 43.5 5.5t44.5 2.5q26 1 49.5 13t42.5 31q20 20 32 45.5t12 53.5z" />
    <glyph glyph-name="Yacute" unicode="&#xdd;" horiz-adv-x="571" 
d="M378 634q-1 20 -14 34t-32 18q-9 3 -16.5 -2t-15.5 -9q-15 -10 -29.5 -20.5t-28.5 -22.5q-11 -10 -19 -22t-10 -27q0 -17 14 -29.5t31 -9.5q10 2 18.5 6t16.5 9q14 9 28.5 18.5t28.5 17.5q11 5 20 15.5t8 23.5zM495 390q-2 18 -3 36.5t-2 36.5q-1 21 -13 40t-35 21
q-11 2 -19.5 -2.5t-14.5 -12.5t-8.5 -18.5t-0.5 -19.5q0 -11 0.5 -22t1.5 -22q-33 -46 -70 -88t-72 -87q-35 38 -67 79t-65 81q0 11 -0.5 22.5t1.5 22.5q1 10 -1.5 20.5t-8 19.5t-14 14.5t-20.5 4.5q-11 1 -20 -3.5t-15.5 -12.5t-10 -18t-1.5 -20q-2 -18 -2 -37
q0 -18 -2 -36q42 -61 86 -119.5t95 -112.5q2 -30 3.5 -59.5t1.5 -59.5q0 -9 2 -20t7.5 -20t13.5 -13.5t20 -1.5q23 3 34.5 24t10.5 42q-1 30 -1 59q0 30 -1 60q19 31 43 59t49 54.5l50 53t48 55.5z" />
    <glyph glyph-name="Thorn" unicode="&#xde;" horiz-adv-x="557" 
d="M476 292q-4 18 -3.5 35t2.5 34.5t4.5 34.5t2.5 35q-1 28 -12.5 55.5t-30.5 48.5t-44.5 34.5t-54.5 14.5q-28 1 -55.5 -1.5t-54.5 -6t-54.5 -7t-55.5 -4.5q0 11 -0.5 21.5t1.5 21.5q1 9 -0.5 19.5t-6 19.5t-12 14.5t-19.5 4.5q-23 -2 -36.5 -20t-12.5 -39q1 -138 4 -275
t1 -275q0 -10 2.5 -21t7.5 -20t13.5 -14.5t20.5 -5.5q12 -2 20 3t13 13.5t7.5 19.5t2.5 20v96q52 0 104 6.5t104 -0.5q28 -3 56 7t49 29t32 45.5t5 56.5zM389 297q2 -11 -1 -21.5t-10 -19t-16.5 -12.5t-21.5 -2q-54 4 -106.5 -3t-106.5 -7q-1 63 0 124.5t-3 123.5
q54 2 106.5 8.5t106.5 7.5q23 0 40.5 -16.5t15.5 -39.5q1 -18 -0.5 -36t-3.5 -35.5t-2.5 -35.5t2.5 -36z" />
    <glyph glyph-name="germandbls" unicode="&#xdf;" horiz-adv-x="558" 
d="M446 79q2 45 2 90q0 46 1 91q1 23 -6.5 44t-23.5 38q14 12 23 29.5t9 36.5q3 77 -3 155q-5 30 -28 54t-55 26q-16 -2 -31.5 0t-31.5 3.5t-32 1.5t-32 -4q-17 -5 -35.5 -8.5t-36.5 -10.5q-42 -15 -67 -53.5t-25 -82.5q0 -65 -3 -130t-5 -130t-1 -130t9 -130q2 -13 4 -25
t5 -24q8 -9 17 -17t21 -10q8 -3 17 -0.5t15 9.5q5 13 4.5 26t-0.5 27q-7 66 -7.5 132.5t1.5 133.5t5 133.5t3 133.5q-3 17 4 29.5t19 21t27 13t29 5.5q18 8 37 5t38 -4q12 -1 23.5 -3t22.5 -8q7 -11 8.5 -23t1.5 -24q2 -17 1 -34l-2 -34q1 -9 -1.5 -18.5t-8 -17t-14 -12
t-18.5 -3.5l-42 3q-21 5 -37.5 -10.5t-17.5 -35.5q1 -8 2.5 -15.5t8.5 -12.5q11 -1 20.5 -5t20.5 -5t20.5 -0.5t20.5 -0.5q20 3 33 -13t11 -35q-2 -37 -2.5 -74t-0.5 -74q0 -19 -16 -28t-33 -8q-17 -2 -34 0t-34 0q-9 -2 -19 -5t-18 -8t-13 -13t-4 -19q0 -11 5 -19.5
t13 -13.5t18.5 -6.5t19.5 1.5q29 2 58 0t58 3q17 1 31.5 9.5t26 21.5t18 28.5t6.5 32.5z" />
    <glyph glyph-name="agrave" unicode="&#xe0;" horiz-adv-x="485" 
d="M276 589q-1 14 -10 24t-19 18q-14 11 -29 18.5t-29 16.5q-7 6 -15.5 8t-17.5 2q-19 -4 -31 -19t-12 -34q2 -12 8 -22.5t17 -15.5q15 -7 29 -16t29 -17q8 -5 17 -6.5t18 -2.5q18 1 32 14t13 32zM432 47q1 73 -3 145t-1 145q1 27 -10.5 51.5t-31 42.5t-45 28.5t-52.5 9.5
q-35 3 -69.5 1t-69.5 -7q-18 0 -35.5 -11.5t-15.5 -32.5q-1 -15 6 -23.5t18.5 -13t24 -5t23.5 1.5q26 4 53 6.5t54 0.5q12 1 23.5 -2.5t20.5 -11t15 -18t6 -22.5q-1 -11 -1.5 -22.5t0.5 -22.5q-11 2 -20.5 3t-20.5 2q-39 3 -77 -2.5t-77 -6.5q-25 -1 -49 -9t-44 -22
q-19 -12 -28 -32.5t-9 -42.5v-29q0 -14 2 -28q1 -26 12 -50t29 -43t41.5 -31t50.5 -12q26 0 50.5 4t50.5 6q16 1 31 9q17 8 33 17.5t33 16.5q-2 -17 10 -30.5t30 -11.5q19 2 31.5 17.5t10.5 34.5zM346 127q-23 -14 -47 -24t-47 -24q-26 -2 -52 -6.5t-52 -3.5q-17 1 -31 13.5
t-14 29.5q0 11 -1 22.5t0 22.5q-3 19 12.5 30t33.5 11q38 0 74.5 6t74.5 4q20 1 33 -14.5t14 -34.5q2 -8 1 -16t1 -16z" />
    <glyph glyph-name="aacute" unicode="&#xe1;" horiz-adv-x="565" 
d="M384 634q-2 18 -15.5 33t-32.5 18q-9 2 -17 -1.5t-15 -8.5q-15 -8 -29 -18t-26 -22q-9 -10 -18.5 -21t-10.5 -26q0 -18 14 -30t31 -10q17 1 35 13q16 8 30.5 16.5t28.5 17.5q11 6 19 16.5t6 22.5zM469 47q0 73 -0.5 145.5t1.5 145.5q4 28 -6.5 53t-30.5 43.5t-46 29
t-52 9.5q-35 7 -70 2t-71 -9q-9 -1 -19 -3.5t-18 -8t-13 -13.5t-4 -19q-1 -15 6.5 -23.5t19 -12t24.5 -4t24 1.5q56 11 108 5q12 1 23.5 -2.5t21 -11t14.5 -18t4 -23.5q0 -11 -1 -22.5t0 -22.5q-11 1 -21 3.5t-21 1.5q-38 5 -77 1t-79 -7q-26 -2 -51 -10t-46 -25
q-17 -14 -28.5 -33.5t-10.5 -42.5q1 -14 1 -28t1 -28q2 -26 13.5 -50t30 -42t42.5 -29t50 -10t51 2t51 3q8 0 16 2.5t15 5.5q17 8 33 17t33 16q-2 -17 11 -30.5t30 -10.5q20 2 31 18t10 34zM383 127q-23 -13 -47.5 -23t-47.5 -24q-26 -1 -52.5 -2t-53.5 -3q-18 -1 -31.5 12
t-15.5 30q-1 11 -0.5 22t-0.5 22q-1 20 14.5 32t33.5 10q38 2 76 6t76 -1q20 3 34.5 -13.5t13.5 -35.5q2 -8 1.5 -16t-0.5 -16z" />
    <glyph glyph-name="acircumflex" unicode="&#xe2;" horiz-adv-x="557" 
d="M415 582q-2 14 -12 24t-21 16q-16 9 -30.5 19t-30.5 19q-8 5 -17 7.5t-18 2.5q-14 0 -27.5 -0.5t-27.5 4.5q-10 2 -19 -2t-17 -9q-15 -11 -29 -22l-28 -22q-10 -8 -19.5 -18t-10.5 -24q-1 -19 13.5 -32t32.5 -11q9 1 17.5 5t16.5 9q14 9 27 18t28 16q9 0 18.5 -2t18.5 0
q14 -9 29.5 -16t29.5 -15l9 -5q11 -5 16 -6t9 -2q17 2 30.5 15t11.5 31zM464 49q2 73 0.5 145.5t8.5 144.5q1 28 -11 52.5t-32.5 42t-46.5 26t-53 4.5q-35 -5 -69.5 -2t-69.5 2q-19 2 -37 -10.5t-16 -33.5q-1 -15 6.5 -23t18.5 -12t24 -4.5t24 -0.5q27 -1 54.5 -2.5
t54.5 3.5q11 2 23 -0.5t21.5 -8.5t14.5 -16t4 -23q1 -11 -2 -22t-1 -22q-11 0 -21.5 1.5t-21.5 -0.5q-39 -5 -78.5 -5.5t-79.5 1.5q-26 1 -51.5 -7.5t-46.5 -24.5q-19 -13 -29.5 -33.5t-8.5 -43.5q1 -14 1.5 -28.5t2.5 -28.5q3 -25 15 -48t30.5 -41t42 -28.5t49.5 -11.5
q25 -1 50 -2.5t50 3.5q8 1 15.5 4.5t15.5 6.5q17 10 33.5 20.5t33.5 18.5q-3 -17 9.5 -29.5t29.5 -10.5q19 -2 30.5 13.5t12.5 33.5zM379 131q-24 -14 -48 -27.5t-47 -27.5q-26 -5 -52 -3.5t-52 1.5q-17 0 -31.5 13t-15.5 31q-1 11 -1.5 22t-0.5 22q-2 19 13.5 31t32.5 10
q38 -2 76.5 -3t76.5 6q20 4 34 -11t13 -34q2 -8 1 -15t1 -15z" />
    <glyph glyph-name="atilde" unicode="&#xe3;" horiz-adv-x="575" 
d="M440 630q-1 18 -14.5 29t-30.5 15q-14 3 -27.5 -5.5t-15.5 -22.5q-2 -7 -7 -12t-13 -4q-21 4 -38 20q-7 4 -13 7.5t-11 9.5q-17 7 -34.5 13t-35.5 2q-21 -2 -40.5 -10.5t-35 -22.5t-26.5 -33t-14 -40q-2 -18 12 -27t29 -7q16 0 29.5 9.5t18.5 25.5q5 17 22 22
q11 3 19.5 -2t17.5 -9q4 -2 7.5 -3.5t7.5 -3.5q5 -2 9 -4t8 -5q17 -8 33.5 -15.5t35.5 -8.5q20 -1 41 2.5t38 16.5q14 11 21.5 28t6.5 35zM473 48q2 72 3 144.5t4 144.5q1 29 -11.5 53t-33.5 42t-48 28.5t-54 12.5q-36 2 -71.5 -2t-71.5 -4q-9 0 -19 -2.5t-18 -7.5t-13 -13
t-5 -19q-2 -15 5.5 -24t19 -13.5t25 -5.5t24.5 1q28 0 56 3t56 3q12 2 24 -1.5t22 -11t15.5 -18t5.5 -23.5q0 -11 -1 -22.5t0 -22.5q-11 1 -21.5 4t-21.5 1q-41 -2 -81.5 -6t-81.5 -2q-26 1 -50.5 -6.5t-44.5 -24.5q-17 -15 -26.5 -35.5t-7.5 -43.5q2 -14 2 -29q0 -14 2 -28
q2 -26 13.5 -49t29.5 -41t41.5 -29.5t49.5 -13.5t51 -5t50 5q8 3 15.5 6t15.5 8q17 11 34 21l34 20q-4 -17 9 -31t30 -11q19 0 31 15t13 33zM389 131q-25 -14 -49.5 -27t-47.5 -30q-26 -8 -53 -5t-53 4q-18 0 -31 14t-15 31q-1 11 -1.5 22.5t-0.5 22.5q-3 19 13 30t33 9
q38 -6 77 -0.5t77 6.5q10 2 19.5 -1t16 -10t10.5 -16t3 -19q2 -8 1 -15.5t1 -15.5z" />
    <glyph glyph-name="adieresis" unicode="&#xe4;" horiz-adv-x="559" 
d="M408 600v18q0 21 -11.5 42t-36.5 22q-12 0 -20 -6t-13 -15.5t-7 -20.5t0 -21v-11v-8q-1 -10 1.5 -21t8.5 -19.5t15 -13.5t21 -3q11 -1 20 4.5t14.5 13.5t7.5 18.5t0 20.5zM193 589q1 5 1 9v10q1 9 -0.5 19.5t-6 19.5t-12.5 14.5t-20 4.5q-23 0 -36.5 -19.5t-11.5 -40.5
q-1 -5 -1 -9t-1 -9q-2 -10 0.5 -20.5t8 -19.5t14.5 -14.5t21 -3.5q23 0 34.5 19.5t9.5 39.5zM464 49q5 72 4.5 144.5t2.5 144.5q-3 27 -16 51.5t-33.5 42.5t-46.5 27t-54 5q-35 -5 -69.5 -7.5t-69.5 -0.5q-18 1 -36.5 -9.5t-15.5 -31.5q0 -14 7 -23t18 -13.5t24 -6t24 -0.5
q27 -1 54.5 -0.5t54.5 6.5q12 3 24 0.5t22 -8.5t16.5 -16t7.5 -23q1 -11 0 -23t-1 -23q-11 0 -21.5 0.5t-21.5 -0.5q-41 -5 -80.5 -6.5t-80.5 0.5q-51 3 -96 -28q-18 -12 -27.5 -32.5t-7.5 -42.5q2 -14 2 -28t2 -28q2 -26 13.5 -49.5t29 -42t40.5 -30.5t49 -15t50 -3
q25 0 51 -1q8 0 16 2.5t16 6.5q18 9 33.5 21t33.5 22q-2 -8 0.5 -15.5t8.5 -13t13.5 -7.5t15.5 1q19 2 32 18t12 35zM381 123q-23 -16 -46.5 -30.5t-48.5 -27.5q-26 1 -52.5 0.5t-52.5 2.5q-17 2 -30.5 14.5t-15.5 29.5q-1 11 -0.5 22.5t-1.5 22.5q-3 20 13 30t33 8
q38 -3 76.5 -1.5t76.5 4.5q10 3 19 0t15.5 -10t10.5 -16.5t3 -18.5q-1 -8 0.5 -15t0.5 -15z" />
    <glyph glyph-name="aring" unicode="&#xe5;" horiz-adv-x="565" 
d="M472 48q3 73 2.5 145.5t-7.5 145.5q2 21 -4 41.5t-18 38t-29.5 29.5t-38.5 16q11 4 23 10t21 14.5t15 19t5 24.5q1 15 -0.5 30.5t-1.5 30.5q-4 34 -28 62t-60 31q-37 3 -73 -0.5t-72 -11.5q-33 -4 -56 -30.5t-25 -58.5q-1 -15 -1.5 -30.5t-2.5 -30.5q-2 -23 12.5 -39.5
t34.5 -24.5q-11 -1 -22.5 -3t-22 -6.5t-18 -12.5t-9.5 -21q-2 -14 5.5 -23.5t18.5 -14t24.5 -5.5t24.5 2q38 3 74.5 7t73.5 6q11 1 22.5 0t22.5 -6q11 -8 13.5 -20.5t3.5 -24.5q3 -11 3 -23t1 -23q-11 1 -22 3t-22 0q-39 -2 -78.5 -6t-78.5 -6q-26 -2 -49.5 -11t-45.5 -22
q-17 -13 -27.5 -31.5t-9.5 -40.5l3 -57q3 -26 15 -51t30 -45t42.5 -30.5t50.5 -7.5q26 2 51.5 0t49.5 3q9 2 16.5 4.5t14.5 7.5q17 10 33 20t33 19q-1 -8 2 -16.5t9 -14.5t13.5 -9t16.5 -1q20 -2 30.5 14.5t11.5 33.5zM356 542q-38 2 -76 -2t-76 -10q1 15 1.5 30t0.5 30
q38 5 75 10t75 1v-59zM388 131q-25 -13 -49.5 -26t-47.5 -29q-26 -5 -52.5 -3.5t-54.5 -0.5q-17 -2 -30 10t-15 29v22q0 12 -2 23q-2 19 14 31t33 13q39 1 77.5 3t76.5 7q21 2 36.5 -12.5t12.5 -34.5q-1 -8 0.5 -16t0.5 -16z" />
    <glyph glyph-name="ae" unicode="&#xe6;" horiz-adv-x="654" 
d="M567 41q5 19 -11 32q-13 5 -26 5.5t-26 0.5q-23 -1 -45 -2t-45 -2q-10 1 -19.5 3t-16.5 10q-2 2 -3.5 4t-3.5 4t-3.5 4t-3.5 4t-2.5 4t-2.5 4t-4 4.5t-3 4.5t-2 5t-2 5t-1 5t-1 5v7v20q42 0 84.5 -0.5t84.5 1.5q16 1 31.5 2.5t29.5 11.5q10 12 11 27t-1 29
q-4 17 -6.5 34.5t-4.5 35.5q-3 26 -14 49.5t-28 41.5q-11 12 -23 22t-21 23q-15 13 -34 19t-39 6h-7q-22 0 -44.5 -4t-36.5 -23q-2 -2 -4 -4.5t-4 -4.5t-3.5 -4t-3.5 -4q-1 -1 -1.5 -2t-1.5 -2q-5 7 -11.5 12t-11.5 12q-14 15 -33.5 19t-39.5 3h-28q-13 0 -27 -2
q-12 -1 -25 -0.5t-24 -4.5q-21 -14 -26 -39q-3 -14 3.5 -23t17 -13.5t23.5 -5.5t23 0q8 2 16.5 1.5t16.5 -0.5q13 1 26 -0.5t25 -6.5q11 -7 13.5 -19t2.5 -24q-1 -11 0 -22.5t1 -22.5q-12 0 -24 1.5t-24 0.5q-32 -2 -64 0q-23 1 -45 -7t-39.5 -23.5t-27.5 -36t-8 -44.5
q1 -29 6 -57q3 -23 13.5 -46t27 -41t38 -29.5t46.5 -12.5q13 0 26 -1t26 -1q23 -2 46.5 4.5t38.5 25.5q4 7 9 12.5t9 12.5q8 -11 15.5 -20t14.5 -20q14 -13 33 -13.5t36 -1.5q22 2 43.5 3t43.5 3q12 0 24.5 2t23 7.5t18 14t9.5 22.5zM494 254q-38 0 -76 -1t-76 1
q-2 13 -1.5 26t-1.5 26q0 12 2 24.5t11 20.5q5 6 10.5 11t10.5 11q7 6 15.5 8t16.5 3h25q15 -3 26 -16q5 -6 10.5 -12t10.5 -11q5 -8 8 -16.5t3 -17.5q2 -14 3 -28.5t3 -28.5zM258 121l-2 -5q-2 -2 -2 -4t-1 -4q-6 -8 -13.5 -14.5t-13.5 -14.5q-3 -2 -6 -3.5t-7 -2.5
q-15 2 -30 2t-30 1q-18 -2 -28.5 12t-11.5 30q-1 11 -2.5 22.5t-1.5 22.5q-2 9 1 16.5t9 13.5t14.5 9t16.5 2q14 0 28.5 -0.5t28.5 0.5q17 -1 34 -11.5t17 -30.5v-41z" />
    <glyph glyph-name="ccedilla" unicode="&#xe7;" horiz-adv-x="460" 
d="M429 40q2 10 -3 19t-12 16q-12 8 -26 9.5t-28 1.5q-75 2 -144 -16q-23 3 -43 18q-17 17 -36 31t-38 29q-10 8 -13 19.5t-4 23.5q1 19 1.5 37.5t-1.5 37.5q1 12 3.5 24.5t11.5 21.5q16 17 35 30.5t36 30.5q9 5 19.5 9t21.5 1q35 5 70.5 7t70.5 0q9 -1 21 -1.5t22.5 1.5
t17 8.5t5.5 20.5q-3 22 -19 38q-26 15 -52 16q-65 4 -135 -5q-23 5 -47 -1t-41 -23q-20 -20 -40 -38t-41 -36q-20 -17 -31 -40.5t-12 -49.5q-2 -25 -1.5 -50t0.5 -50q-1 -27 12 -52t34 -42t40.5 -35t40.5 -34q20 -15 43.5 -23.5t48.5 -11.5q34 11 69.5 13.5t70.5 4.5
q13 1 25.5 1.5t24.5 3.5q9 6 16 15t7 20zM320 -85q2 17 -11.5 30.5t-30.5 12.5q-11 -1 -19 -7.5t-16 -12.5q-15 -12 -29 -24t-31 -20q-12 -4 -21.5 -14t-8.5 -24q0 -19 13 -34t32 -18q11 -2 18 5t15 13q14 13 27.5 26t29.5 24q11 8 20.5 18.5t11.5 24.5z" />
    <glyph glyph-name="egrave" unicode="&#xe8;" horiz-adv-x="566" 
d="M307 587q-1 14 -9.5 23.5t-19.5 17.5q-17 8 -30.5 19.5t-27.5 21.5q-8 5 -15.5 8.5t-16.5 4.5q-18 -4 -30.5 -18.5t-13.5 -32.5q2 -13 9.5 -22.5t17.5 -17.5q16 -8 29 -19t29 -19q14 -15 34 -16q18 2 31.5 16.5t12.5 33.5zM461 42q0 9 -3 17.5t-11 13.5q-13 5 -26 5
t-27 -1q-23 2 -45.5 -1t-44.5 -7t-44.5 -6.5t-44.5 0.5q-11 2 -22.5 4.5t-19.5 11.5q-6 7 -12 14.5t-13 13.5q-6 8 -10.5 16.5t-4.5 19.5v20q32 -2 62.5 -5t62.5 -4q35 8 70 11.5t70 2.5q15 0 31 2t28 13q11 11 13.5 27t4.5 30q2 17 3 34.5t4 34.5q4 26 -8.5 50t-32.5 40
q-14 11 -28.5 22.5t-28.5 22.5q-17 13 -37.5 17.5t-40.5 4.5q-21 -2 -42.5 -2.5t-42.5 0.5q-25 1 -50.5 -4.5t-44.5 -22.5q-13 -11 -25.5 -21t-24.5 -21q-18 -14 -27.5 -35.5t-7.5 -44.5q3 -39 4.5 -78.5t3.5 -78.5q2 -14 2.5 -28t5.5 -28t13.5 -25.5t17.5 -22.5
q14 -13 26.5 -26t26.5 -26q16 -14 37 -19.5t42 -7.5q22 -2 43.5 1.5t42.5 7.5t42.5 7.5t43.5 1.5q11 -1 23.5 1.5t22.5 8.5t16.5 15.5t6.5 23.5zM388 252q-65 -2 -129 -8t-128 3v52q0 13 3 26t14 21l27 21q9 5 18.5 8.5t20.5 2.5q25 -2 49.5 -0.5t49.5 4.5q11 0 20.5 -4.5
t17.5 -10.5q13 -11 28 -22q9 -6 10 -16t3 -19q-2 -14 -2 -29t-2 -29z" />
    <glyph glyph-name="eacute" unicode="&#xe9;" horiz-adv-x="561" 
d="M369 629q0 19 -13 33t-31 17q-9 -1 -18 -4t-16 -10q-15 -11 -29 -23t-28 -22q-12 -8 -20.5 -19t-10.5 -25q0 -18 13.5 -32t31.5 -12q18 4 34 17q14 11 29 20.5t31 18.5q11 7 18.5 17t8.5 24zM460 43q1 9 -1.5 19t-10.5 15q-13 5 -26 5h-26q-45 -5 -90.5 -9t-90.5 -8
q-11 1 -23 3t-20 11q-7 7 -13.5 13t-11.5 13q-7 8 -9.5 17t-3.5 19q-1 5 -1 10v10q34 -5 68 -4.5t68 3.5t67.5 6t67.5 5q15 1 30.5 2.5t28.5 10.5q11 11 13 26t4 29q1 17 1 35t2 35q1 28 -13.5 51.5t-34.5 39.5q-14 11 -28 21.5t-28 21.5q-17 13 -37.5 18t-41.5 4t-42 -3
t-42 -3q-25 -1 -50 -7t-45 -22q-12 -9 -24 -18.5t-24 -18.5q-18 -14 -28 -34.5t-8 -43.5q7 -78 12 -156q0 -14 1 -28t6 -28q4 -14 12 -25.5t17 -22.5q11 -14 25.5 -27t25.5 -27q17 -14 38 -17.5t41 -4.5q43 5 86.5 8t85.5 12q11 0 23.5 2t23 7t18 13.5t8.5 21.5zM392 254
q-33 0 -65.5 -3.5t-65 -6t-65 -3.5t-65.5 3l-2 26l-2 26q-2 12 1.5 24t14.5 19q8 5 14.5 11t14.5 11t17.5 8.5t20.5 3.5q25 0 49.5 3.5t49.5 4.5q11 0 20 -4.5t18 -9.5q8 -6 15.5 -11t15.5 -11q9 -5 11 -15t4 -19q-1 -14 -1 -29v-28z" />
    <glyph glyph-name="ecircumflex" unicode="&#xea;" horiz-adv-x="486" 
d="M371 586q-2 15 -11 26t-20 19q-15 11 -30.5 21t-29.5 21q-9 3 -17 8.5t-18 3.5q-26 1 -55 -5q-20 -5 -36 -18q-14 -11 -28.5 -22t-29.5 -21q-11 -8 -21.5 -18.5t-11.5 -24.5q-2 -19 12.5 -32t31.5 -15q18 3 36 16q13 12 28 21.5t28 22.5q10 -1 18.5 1.5t18.5 1.5
q14 -10 28.5 -18t28.5 -19q17 -11 34 -15q18 1 32 14t12 32zM423 41q0 9 -3 17.5t-11 13.5q-13 5 -26 4t-27 -2q-45 -3 -89.5 -5t-89.5 -7q-11 1 -22.5 3t-19.5 11q-5 7 -12 12.5t-12 12.5q-6 8 -10 17t-3 20v9t-1 9q33 -2 66 -1t65.5 3.5t65.5 5t66 2.5q15 2 31 3.5
t28 12.5q11 12 12 27.5t3 29.5q0 17 2.5 35t2.5 35q5 27 -8 51t-33 41q-14 11 -28 21.5t-28 21.5q-17 13 -36.5 20t-39.5 5q-22 1 -43 -1.5t-42 -6.5q-24 -4 -48.5 -10.5t-44.5 -21.5q-11 -11 -23 -20t-23 -19q-17 -14 -25.5 -34.5t-6.5 -42.5q2 -39 2.5 -77.5t2.5 -77.5
q0 -14 0.5 -28t4.5 -28t12 -27t17 -25l51 -54q15 -16 37 -18.5t42 -2.5q43 5 85.5 7t85.5 6q12 1 24.5 4.5t23 9.5t17.5 15.5t8 23.5zM349 251q-32 1 -63.5 -1.5l-63 -5t-63 -4t-62.5 0.5q1 14 -0.5 26t-0.5 26q0 12 3.5 24.5t13.5 20.5q7 5 13 11t14 11q8 6 16.5 10.5
t19.5 4.5l48 6t48 2q11 2 20.5 -3.5t17.5 -11.5q7 -7 15 -12t15 -11q8 -7 9.5 -16.5t1.5 -19.5q-1 -14 -1.5 -29t-0.5 -29z" />
    <glyph glyph-name="edieresis" unicode="&#xeb;" horiz-adv-x="560" 
d="M409 599v19q-1 10 -4 21t-9 20t-14.5 15t-20.5 5q-12 0 -20 -6t-13 -15t-6.5 -20t0.5 -21v-19q0 -10 3 -21t9 -19t15 -13t21 -3q11 -1 19.5 4.5t13.5 13.5t6.5 18.5t-0.5 20.5zM197 601v18q0 10 -2.5 20.5t-7.5 19.5t-13 15t-20 5t-20 -7t-13.5 -15t-8 -19.5t-2.5 -20.5
v-19q-2 -9 0 -20t7 -20t13.5 -14t20.5 -3q12 -1 20.5 4.5t14.5 14.5t8.5 20t2.5 21zM459 42q-1 9 -3 17.5t-10 13.5q-12 5 -25.5 4.5t-26.5 -0.5q-45 -1 -90 -5.5t-90 0.5q-11 2 -22.5 3.5t-19.5 11.5q-13 12 -25 25q-8 6 -12 15.5t-4 19.5v18q68 -2 135 -2q68 0 136 6
q15 2 30 3.5t29 9.5q11 11 14 26.5t5 30.5q1 17 2 35t1 35q0 26 -10.5 51t-30.5 42q-14 11 -27.5 21t-27.5 21q-17 14 -37.5 17.5t-40.5 3.5q-22 -3 -44 -3.5t-44 3.5q-26 2 -52 -4.5t-46 -23.5q-14 -11 -26 -21.5t-25 -21.5q-17 -15 -28 -36.5t-8 -44.5q4 -39 6.5 -77.5
t4.5 -77.5q0 -14 2 -28.5t5 -28.5q5 -14 13.5 -25t18.5 -22q11 -13 25.5 -24t26.5 -24q17 -13 38.5 -15t41.5 -4q44 -4 86.5 0.5t86.5 5.5q11 0 23 2.5t22 8.5t16.5 15.5t6.5 22.5zM392 252q-66 -5 -131.5 -4.5t-131.5 1.5q-1 13 -1.5 26t-2.5 26q0 13 3.5 26t14.5 21
q8 4 14 10t14 11q9 5 19 8.5t21 3.5q26 -2 51 -2.5t50 2.5q20 0 38 -13q7 -6 14 -11t14 -11q8 -7 11 -16.5t4 -19.5q1 -14 -0.5 -29t-0.5 -29z" />
    <glyph glyph-name="igrave" unicode="&#xec;" horiz-adv-x="368" 
d="M224 591q0 14 -10.5 22t-21.5 13q-19 -1 -31.5 11t-26.5 23q-7 5 -15.5 10t-17.5 7q-20 -2 -32 -17.5t-14 -33.5q0 -13 8 -23t19 -17q16 -10 30 -21t30 -21q8 -5 16.5 -9.5t18.5 -3.5q18 8 32.5 23.5t14.5 36.5zM337 41v10q-1 2 -2 4.5t-2 4.5q-3 3 -4.5 6t-6.5 5
q-13 5 -26.5 3.5t-27.5 -0.5q-13 -2 -25 -1.5t-25 -1.5q-2 82 -1.5 163.5t3.5 163.5q-1 14 -1.5 29.5t-11.5 26.5l-9 4h-10h-1q-10 0 -20 0.5t-20 0.5q-19 1 -37 1.5t-37 1.5q-13 -2 -25.5 -1t-24.5 -5q-10 -5 -16 -14.5t-5 -20.5q3 -19 18 -34q14 -5 27.5 -8t27.5 -2
q14 -1 28.5 -1.5t28.5 -0.5q-1 -78 -3 -155t3 -155q-27 -3 -57 2q-12 2 -24 3t-24 1q-10 -3 -13.5 -12.5t-4.5 -18.5q2 -11 7 -20t11 -17q10 -11 24 -15.5t28 -6.5q42 -8 83 3q26 2 52 1t52 2q12 0 24.5 3.5t23 10t17 16.5t6.5 24z" />
    <glyph glyph-name="iacute" unicode="&#xed;" horiz-adv-x="373" 
d="M291 628q0 19 -13.5 33t-31.5 18q-9 0 -16.5 -3.5t-15.5 -8.5q-15 -6 -29 -14.5t-28 -19.5q-11 -9 -19.5 -20t-10.5 -25q-1 -18 13 -31t32 -13q9 -2 17.5 2t16.5 8q15 8 29.5 17t28.5 17q11 7 19.5 16.5t7.5 23.5zM338 41q0 8 -3 16.5t-11 13.5q-13 5 -27 5h-26
q-13 -2 -26 -2q-12 0 -25 -2q6 81 3.5 162t-2.5 162q0 15 -0.5 31t-11.5 28q-12 11 -28 13t-31 1q-18 -2 -36.5 -4t-36.5 -1q-12 -2 -24.5 -2.5t-23.5 -5.5q-21 -12 -23 -35q0 -10 3 -19t11 -15q13 -6 26.5 -6.5t27.5 -0.5q15 -1 29.5 1t29.5 2q-2 -78 2.5 -155.5
t-0.5 -155.5q-14 0 -27.5 1t-27.5 2l-24 2t-24 -3q-10 -4 -14.5 -13.5t-5.5 -19.5q2 -10 6 -19t12 -15q11 -8 24.5 -11t26.5 -5q47 -9 93.5 -7t93.5 8q11 -1 23.5 1.5t23 8.5t17 15.5t6.5 23.5z" />
    <glyph glyph-name="icircumflex" unicode="&#xee;" horiz-adv-x="386" 
d="M334 579q-2 14 -10 25.5t-19 20.5q-14 13 -29.5 23.5t-29.5 22.5q-17 12 -35 7q-14 -3 -27.5 -8t-27.5 -1q-18 -1 -35 -11q-15 -8 -29 -18.5t-29 -19.5q-11 -8 -20 -17.5t-11 -23.5q-2 -18 11 -32t30 -15q9 0 17.5 3.5t16.5 8.5q14 9 28.5 17t28.5 18q10 1 19.5 2t17.5 6
q32 -11 58 -30q8 -5 16 -9t17 -7q16 -3 29.5 9t12.5 29zM346 41q0 9 -3.5 18t-11.5 14q-12 8 -25.5 8.5t-27.5 1.5h-25t-25 -2q-2 81 0.5 161t0.5 161q-1 14 -3 28.5t-12 25.5q-14 7 -29 3t-30 -2q-18 -2 -36 -1t-36 3q-13 -1 -26 1t-25 -3q-9 -7 -15 -17t-6 -21
q0 -10 4.5 -18t11.5 -15q27 -11 57 -12q14 0 28.5 -2t28.5 -1q2 -78 1.5 -154t1.5 -154q-14 0 -27.5 -0.5t-27.5 2.5q-12 1 -24 3.5t-24 0.5q-9 -5 -13.5 -13t-5.5 -17q3 -20 17 -37q11 -9 24.5 -13.5t27.5 -7.5q41 -8 82 8q26 5 52 8t52 2q10 0 22 1t22.5 5.5t17.5 13
t7 21.5z" />
    <glyph glyph-name="idieresis" unicode="&#xef;" horiz-adv-x="373" 
d="M309 594v11v6q0 20 -9.5 40.5t-32.5 24.5q-11 1 -19.5 -4t-14.5 -13.5t-8.5 -19t-0.5 -19.5q-1 -5 -1 -9v-9q-1 -10 1.5 -21t8 -20t14 -14.5t20.5 -4.5q11 -2 19.5 2t14 12t7.5 18.5t1 19.5zM126 595v18q0 9 -2 19.5t-6.5 19.5t-12 14.5t-19.5 3.5q-12 0 -20.5 -5.5
t-14.5 -14.5t-8.5 -19.5t-2.5 -20.5q-1 -5 -1 -9v-8q-2 -9 0.5 -20t7.5 -20t13.5 -14.5t20.5 -3.5q12 0 20.5 5.5t14 14t8 19.5t2.5 21zM340 41q2 10 -2.5 18.5t-11.5 14.5q-13 5 -26 4t-27 -1q-28 -5 -51 -5q-1 81 2 162.5t-4 162.5q-2 15 -3 30.5t-12 27.5q-13 9 -29 9
q-15 0 -30 -2q-18 -2 -36 -2h-35h-25q-12 0 -24 -4q-8 -7 -14 -16t-7 -20q3 -22 18 -35q24 -10 55 -10q28 -1 56 0q6 -77 3.5 -153.5t-1.5 -153.5q-14 -1 -27.5 -0.5t-27.5 1.5q-12 -2 -24 2t-24 -1q-20 -8 -20 -30q3 -20 17 -37q11 -8 24.5 -13t27.5 -5q47 -1 93.5 0
t93.5 8q11 1 23 4t22.5 8.5t17.5 14t8 21.5z" />
    <glyph glyph-name="eth" unicode="&#xf0;" horiz-adv-x="571" 
d="M479 142q1 45 -1 89t-11 89q-4 19 -6 38.5t-12 36.5q-21 40 -43.5 78.5t-43.5 78.5q17 10 35.5 19t35.5 19q11 6 21.5 13.5t9.5 21.5q-2 17 -13.5 31.5t-28.5 17.5q-17 1 -33 -9q-19 -9 -35.5 -21t-33.5 -24l-6 12t-7 11q-5 15 -20.5 22.5t-29.5 0.5q-8 1 -14.5 0
t-14.5 -1q-12 -2 -24.5 0t-23.5 -3q-8 -7 -15 -16t-7 -20q-2 -14 4 -23t16.5 -14.5t23 -7t23.5 -0.5q3 0 6.5 0.5t6.5 0.5q5 -9 10 -16q-18 -13 -37 -23.5t-39 -20.5q-12 -8 -22.5 -18.5t-11.5 -25.5q1 -16 12.5 -28.5t27.5 -12.5q11 0 20 4.5t17 9.5q39 22 74 53
q16 -26 31.5 -51.5t30.5 -51.5q-35 1 -70.5 -4.5t-70.5 -6.5q-25 0 -48 -9.5t-43 -23.5q-8 -7 -16 -13l-16 -12q-18 -15 -28 -36.5t-10 -44.5v-108q0 -26 12 -51.5t32 -42.5q2 -2 4 -4.5t4 -4.5q7 -5 13 -10.5t14 -10.5q18 -16 42 -23.5t48 -4.5q22 3 44 2.5t44 -0.5
q26 -1 48 10.5t42 26.5q9 8 17.5 15.5t18.5 13.5q20 15 33 36.5t14 46.5zM391 152q0 -11 -4.5 -21.5t-14.5 -16.5q-5 -6 -11.5 -10.5t-12.5 -9.5q-11 -9 -24 -13t-27 -4q-17 1 -34 0.5t-34 -3.5q-26 -2 -50 11q-7 5 -12 10t-13 8q-8 8 -13 18t-5 21q1 23 0.5 45.5t-1.5 45.5
q0 11 4 21.5t13 16.5q6 5 12 9.5t12 9.5q11 9 23.5 11.5t25.5 4.5q39 4 78.5 8t79.5 3q7 -41 7.5 -82t0.5 -83z" />
    <glyph glyph-name="ntilde" unicode="&#xf1;" horiz-adv-x="580" 
d="M439 633q-1 17 -14 30.5t-31 12.5q-16 1 -27.5 -9.5t-14.5 -25.5q-2 -7 -7 -13.5t-13 -6.5q-11 -1 -20.5 4.5t-17.5 11.5q-5 5 -12 8.5t-12 9.5q-16 11 -33.5 17.5t-37.5 4.5q-21 -2 -40 -10.5t-34.5 -22.5t-25.5 -32.5t-12 -39.5q-1 -9 2.5 -16t9.5 -12t14 -7t16 -1
q17 0 29.5 11t17.5 26q1 8 7 13.5t14 7.5q10 0 19.5 -4t17.5 -9q6 -4 10 -5q2 -1 2.5 -2t2.5 -2q9 -4 17 -11q16 -9 32.5 -16.5t35.5 -5.5q21 0 41.5 7.5t36.5 22.5q15 11 21.5 28.5t5.5 35.5zM471 48q0 4 1 7t-1 7q3 68 3 135t9 134q4 27 -6 53t-29 45t-44.5 29.5
t-53.5 6.5q-12 -2 -24 -1.5t-24 -0.5q-42 -2 -76 -22q-20 -13 -40 -25.5t-40 -25.5l-1 10v1q0 10 -2.5 21t-8.5 20t-14.5 14.5t-20.5 4.5q-9 -1 -18 -4.5t-15 -11.5q-6 -12 -6.5 -25.5t-0.5 -26.5q3 -19 2.5 -38t-2.5 -38.5t-4.5 -38.5t-2.5 -38q-1 -44 2.5 -86.5t6.5 -86.5
q1 -12 1.5 -24.5t6.5 -23.5q5 -11 15 -16.5t21 -8.5q9 -1 18.5 2t14.5 11q6 12 6.5 25.5t0.5 27.5q-2 58 -6 116t4 116q32 17 64 34.5t64 36.5q11 6 22 10.5t24 5.5q8 2 14.5 1t14.5 1q11 1 22 -2t19 -13q3 -5 4 -11t3 -11q1 -2 1 -5t1 -5q0 -3 -0.5 -5.5t-0.5 -5.5v-4
q-8 -64 -7 -128t0 -129q0 -12 0.5 -24.5t4.5 -24.5q5 -9 14 -14t20 -5q20 1 33.5 17.5t10.5 36.5z" />
    <glyph glyph-name="ograve" unicode="&#xf2;" horiz-adv-x="482" 
d="M269 596q-2 14 -10 24.5t-19 17.5l-28 18t-29 17q-8 5 -16 8t-17 2q-18 -5 -31 -19.5t-12 -34.5q1 -13 9 -22.5t19 -15.5q14 -8 28.5 -17t28.5 -17q8 -6 16.5 -7t17.5 -3q18 2 31.5 16t11.5 33zM431 144q2 44 4 87.5t-3 87.5q-1 25 -9.5 49.5t-27.5 41.5q-8 9 -16.5 16
t-16.5 15q-20 17 -44.5 25.5t-50.5 7.5q-46 0 -91 -6q-52 -6 -93 -38l-16 -14t-17 -13q-18 -15 -28.5 -37.5t-7.5 -46.5q1 -45 2 -88t3 -88q1 -25 10.5 -49.5t28.5 -41.5q8 -8 16 -15.5t16 -15.5q18 -18 40 -30.5t48 -11.5q23 -2 44 2.5t44 4.5q51 8 88 43q8 8 17 14.5
t17 14.5q18 17 29.5 38.5t13.5 47.5zM349 154q-2 -26 -20 -41q-6 -5 -11.5 -10t-11.5 -10q-10 -10 -22.5 -14t-26.5 -6q-17 -2 -33 -4.5t-33 -2.5q-13 -2 -25.5 3t-22.5 13q-6 5 -11.5 10.5t-11.5 10.5q-18 18 -18 41q-1 41 -1.5 80.5t-2.5 80.5q-2 24 16 39q6 5 11.5 10
t12.5 9q11 9 23.5 12.5t26.5 5.5q17 2 34 3t34 3q14 1 26.5 -2.5t23.5 -11.5q5 -5 11.5 -9t11.5 -10q18 -16 19 -38q3 -41 3 -81t-2 -81z" />
    <glyph glyph-name="oacute" unicode="&#xf3;" horiz-adv-x="555" 
d="M373 631q-1 19 -13.5 35.5t-32.5 17.5q-9 1 -17 -3t-16 -9q-14 -11 -29.5 -19t-27.5 -21q-11 -11 -20.5 -21.5t-11.5 -26.5q-2 -18 12 -30.5t32 -8.5q17 3 36 12l60 36q11 5 20 14.5t8 23.5zM469 143q2 45 2.5 88.5t-4.5 87.5q-3 25 -13 48.5t-30 39.5l-16 14t-17 14
q-20 15 -43.5 24.5t-49.5 11.5q-23 4 -46.5 1.5t-46.5 -6.5q-53 -8 -93 -35q-8 -8 -17 -13t-17 -13q-17 -17 -26 -40t-7 -47q3 -45 4 -88t3 -88q0 -25 11 -47.5t29 -39.5q10 -5 17 -13.5t16 -15.5q19 -15 42 -23.5t47 -7.5q22 1 43 1q22 0 44 -2q25 -2 47.5 7.5t40.5 24.5
q8 8 17 14.5t18 13.5q19 17 31 40t14 49zM384 150q-1 -11 -5.5 -21.5t-12.5 -17.5q-5 -5 -11.5 -9t-12.5 -9q-22 -16 -48 -13q-17 0 -33.5 1.5t-33.5 -1.5q-27 0 -50 14q-6 5 -11.5 9t-11.5 8q-8 8 -13 17.5t-5 20.5q0 79 -6 159q1 11 3.5 22t12.5 17q6 5 11.5 10t11.5 9
q11 9 23 13t26 6q17 4 34 4.5t34 -1.5q29 -3 50 -17l8 -7l9 -7l8 -6q18 -18 21 -41q3 -40 3 -80t-1 -80z" />
    <glyph glyph-name="ocircumflex" unicode="&#xf4;" horiz-adv-x="557" 
d="M403 585q-1 14 -10 25t-20 18q-14 10 -29 20t-29 21q-8 5 -16.5 9.5t-18.5 3.5q-14 2 -27.5 1t-27.5 -3q-10 -2 -19 -5.5t-17 -9.5q-27 -21 -58 -43q-11 -8 -20.5 -18.5t-11.5 -24.5q-1 -18 13 -31t31 -13q10 0 18 4t16 10q14 11 28.5 21t28.5 21q9 1 18 2.5t18 -0.5
q13 -11 27.5 -19.5t28.5 -18.5q8 -5 16 -9.5t18 -5.5q18 -1 31.5 13.5t11.5 31.5zM460 144q3 44 5 87.5t3 87.5q2 26 -11 49t-32 40q-8 8 -15.5 15t-17.5 14q-20 14 -44 23t-50 11q-23 1 -45.5 -0.5t-45.5 -3.5q-51 -5 -91 -37q-8 -8 -16 -14t-16 -13q-18 -16 -25.5 -39.5
t-9.5 -46.5q-3 -87 -3 -174q1 -26 11 -49.5t28 -40.5q8 -8 16 -15t18 -13q19 -16 42.5 -23t47.5 -7q22 3 44 1t44 0q24 -1 46.5 8.5t40.5 24.5l33 27q20 17 31 39.5t12 48.5zM376 154q0 -11 -4.5 -22t-14.5 -18q-6 -5 -11.5 -9t-11.5 -9q-10 -10 -22.5 -11.5t-25.5 -3.5h-34
t-34 -1q-13 -1 -25 2t-23 11q-5 5 -11 9.5t-13 7.5q-9 7 -13 17t-4 21q0 40 1 79.5t2 79.5q2 25 18 40q2 2 5 3.5t5 3.5t3.5 4t3.5 4l6 4q11 9 23 13t26 6q17 2 34 2.5t34 -0.5q14 0 27 -3.5t24 -11.5q6 -6 12.5 -10t12.5 -10q19 -14 17 -39q0 -40 -2.5 -79.5t-4.5 -79.5z
" />
    <glyph glyph-name="otilde" unicode="&#xf5;" horiz-adv-x="572" 
d="M436 630q-2 17 -15.5 29.5t-30.5 11.5q-14 2 -26 -8.5t-14 -24.5q-1 -2 -1.5 -5t-1.5 -5q-9 -5 -17 -8q-11 -1 -20.5 5t-19.5 11q-5 5 -12 7t-12 7q-16 11 -34 18.5t-38 9.5q-21 -1 -40 -9t-34 -22t-24.5 -32.5t-12.5 -39.5q-1 -8 2.5 -15.5t9.5 -12.5t14 -7t16 0
q17 0 29.5 10t17.5 25q5 16 22 21q11 1 19 -5.5t18 -8.5q4 -2 8 -4.5t7 -5.5q10 -5 17 -12q17 -8 33.5 -14.5t35.5 -6.5q21 1 42 6t37 19q14 12 20.5 30t4.5 36zM476 143q3 88 0 176q2 24 -7.5 47t-28.5 37q-9 7 -16.5 14t-16.5 13q-21 14 -45 24.5t-50 10.5h-95
q-26 0 -50.5 -10t-45.5 -25q-17 -15 -33 -27q-20 -15 -26.5 -38.5t-8.5 -46.5q-4 -44 -3.5 -87.5t3.5 -87.5q2 -26 12 -51t30 -42l33 -30q17 -16 40.5 -24t47.5 -6q22 5 44 4t45 -2q25 -1 48 8.5t43 25.5q8 7 17 14.5t18 15.5q19 17 31 39t14 48zM390 149q-1 -11 -5.5 -21.5
t-13.5 -16.5q-5 -5 -11.5 -9t-11.5 -10q-21 -15 -49 -15q-17 3 -33.5 2.5t-33.5 -2.5q-13 -2 -26.5 0.5t-24.5 10.5q-7 4 -12.5 9t-12.5 9q-8 8 -13.5 18t-5.5 21q-2 40 -2.5 80.5t2.5 80.5q2 23 19 39q6 5 11 10.5t12 9.5q11 10 23.5 13.5t26.5 3.5q17 1 35 1.5t35 -1.5
q14 -1 27 -4.5t24 -12.5q7 -4 12 -8.5t11 -9.5q9 -7 12.5 -17.5t5.5 -21.5v-80q0 -39 -1 -79z" />
    <glyph glyph-name="odieresis" unicode="&#xf6;" horiz-adv-x="561" 
d="M403 601v9q0 5 -1 10q0 10 -2.5 20.5t-8 19t-14 14t-19.5 5.5q-12 0 -20.5 -6t-14 -15t-7.5 -20t-1 -21q1 -5 1 -10v-9q-1 -10 1.5 -20.5t8.5 -19t15 -13.5t21 -3q12 0 20 5.5t13.5 14t7 19t0.5 20.5zM190 605v19q1 9 -0.5 20t-6 20t-12.5 14t-20 3q-24 -2 -36 -23
t-12 -42v-11l-1 -8q-1 -9 1 -20t7.5 -19.5t14 -13.5t19.5 -2q12 0 20.5 6.5t14 15.5t8.5 20t3 21zM472 144q2 44 2.5 87.5t-2.5 87.5q2 26 -8.5 50.5t-30.5 40.5q-8 8 -16.5 13.5t-17.5 11.5q-45 30 -98 28q-24 -4 -47 0t-47 5q-26 1 -50.5 -8.5t-44.5 -26.5
q-8 -8 -17 -14.5t-16 -14.5q-18 -16 -26 -39t-7 -47q3 -44 2.5 -87.5t0.5 -87.5q1 -26 11 -50t28 -42q17 -17 33 -29q19 -17 42 -26t48 -12q21 -5 43.5 -8.5t44.5 3.5q26 2 48.5 16.5t42.5 31.5q8 9 18 16t18 15q19 17 32 38.5t14 47.5zM387 150q0 -24 -20 -41
q-5 -7 -11 -12t-13 -10q-9 -11 -22 -15.5t-27 -6.5q-17 -4 -34 -1t-34 5q-14 2 -27 6.5t-24 12.5q-6 5 -11.5 10t-11.5 9q-8 8 -13 18t-5 22q1 41 -0.5 80.5t-1.5 80.5q-3 24 16 40q6 5 11.5 10t11.5 9q21 18 50 15q18 -2 35.5 -4.5t35.5 -0.5q14 -1 27 -3.5t24 -9.5
q6 -4 12.5 -7t11.5 -8q10 -6 14 -17t6 -22q1 -40 1.5 -80t-1.5 -80z" />
    <glyph glyph-name="divide" unicode="&#xf7;" horiz-adv-x="554" 
d="M312 478q1 11 0 23t-1 23q0 12 -9.5 20t-21.5 7q-13 -2 -26 -1t-26 1q-12 2 -20 -8t-7 -21q1 -12 -1 -24t-2 -24q-1 -11 8 -20t20 -7q14 -2 27 0t27 1q12 0 22.5 8.5t9.5 21.5zM493 331q-5 24 -27 34.5t-44 9.5q-85 -2 -170 -5t-170 -1q-9 0 -20.5 -1.5t-21 -5.5
t-15.5 -12t-5 -20q7 -23 28 -35t44 -12q84 -2 166.5 1t166.5 3q21 0 42 10.5t26 33.5zM314 144q0 11 1 23t2 23q1 12 -8.5 21.5t-21.5 6.5q-14 2 -27.5 3t-27.5 -2q-12 -1 -21.5 -9.5t-7.5 -21.5q1 -12 -0.5 -24t-0.5 -24q-2 -11 7 -19.5t20 -5.5q26 6 52 0q12 0 22 8t11 21
z" />
    <glyph glyph-name="oslash" unicode="&#xf8;" horiz-adv-x="568" 
d="M478 143q-2 39 -9 78q-2 25 0.5 49t3.5 49q0 26 -9 50.5t-28 41.5q-4 3 -7 6t-7 6q6 11 11.5 20.5t12.5 19.5q4 8 7 16t4 16q-5 17 -16.5 30t-28.5 17q-13 0 -23.5 -7t-14.5 -20l-9.5 -19l-9.5 -19q-2 -2 -4.5 -2.5t-4.5 -2.5h-3q-8 1 -17 1.5t-17 -0.5q-22 -5 -44.5 -6
t-45.5 -1q-25 0 -49 -9.5t-43 -25.5q-9 -8 -17 -14.5t-17 -13.5q-17 -17 -28.5 -39t-9.5 -46q2 -45 -1.5 -88t-5.5 -87q-2 -26 9.5 -49t31.5 -39l8 -8l3 -1q-5 -10 -10.5 -19.5t-11.5 -18.5q-9 -14 -9 -31q4 -17 16.5 -28.5t29.5 -14.5q13 -1 23 7t15 19q5 9 9.5 17.5
t9.5 17.5q23 -10 44 -10q23 2 45 2t45 4q26 1 49.5 12.5t43.5 28.5q8 8 17 14.5t19 13.5q19 14 31.5 36t11.5 47zM390 157q0 -25 -18 -40q-6 -6 -12 -11.5t-12 -10.5q-22 -18 -51 -21q-42 -3 -80 -3q43 68 79 140.5t81 140.5q5 -8 8 -16.5t3 -17.5q-7 -40 -4 -80t6 -81z
M306 386q-39 -69 -79 -136t-83 -133q-5 7 -6 15t-3 16q2 40 3.5 80t1.5 80q0 11 4.5 21t13.5 17q6 5 11.5 10t12.5 9q11 8 23.5 12t25.5 4q19 1 37.5 1.5t37.5 3.5z" />
    <glyph glyph-name="ugrave" unicode="&#xf9;" horiz-adv-x="573" 
d="M315 589q0 13 -9 23t-20 15q-17 4 -30 16t-27 22q-6 8 -15.5 10t-18.5 4q-19 -5 -32 -19.5t-15 -34.5q3 -26 28 -39q15 -9 29.5 -18t28.5 -20q8 -5 16.5 -10t18.5 -5q18 6 32 21t14 35zM474 69q9 81 9.5 162.5t-2.5 162.5q-2 12 -1.5 24.5t-4.5 24.5q-8 8 -18 13.5
t-21 6.5q-10 0 -19.5 -2.5t-15.5 -10.5q-6 -12 -7 -25.5t0 -26.5q2 -59 5 -117.5t-2 -117.5q-32 -19 -63 -40t-59 -46q-10 -6 -21 -10t-23 -2q-8 -2 -14.5 -1t-14.5 1q-12 0 -23 4t-18 15q-8 24 -8 46q-3 66 -2.5 131t-11.5 130q-2 12 -3 24.5t-6 23.5q-7 10 -18 15t-23 4
q-9 1 -16.5 -3t-13.5 -10.5t-8.5 -14.5t-0.5 -17q7 -35 10.5 -70.5t5 -71.5t2.5 -71.5t3 -71.5q-2 -26 6 -53t24 -48.5t39 -35t52 -11.5q12 -2 23.5 -1.5t23.5 -0.5q21 -1 39 9.5t34 22.5q19 15 39 28.5t41 26.5q0 -2 -0.5 -3.5t-0.5 -3.5q-2 -9 -1 -20.5t5.5 -21.5
t12.5 -16t20 -6q21 5 34 22q8 12 9 25.5t3 27.5z" />
    <glyph glyph-name="uacute" unicode="&#xfa;" horiz-adv-x="499" 
d="M336 633q-1 18 -14 33.5t-31 17.5q-20 0 -32 -14q-15 -9 -27 -21.5t-29 -18.5q-11 -6 -20 -15.5t-10 -22.5q1 -19 14.5 -32.5t31.5 -18.5q10 0 18 4.5t16 10.5q14 11 28 20t28 19q11 5 18 15.5t9 22.5zM429 67l8 82t6.5 81.5t2 81.5t-5.5 82q-2 12 -3 25t-6 24
q-7 10 -17.5 15t-21.5 7q-9 1 -18.5 -3t-14.5 -12q-7 -12 -6 -25.5t0 -27.5q5 -59 4.5 -118t-5.5 -118q-30 -20 -61.5 -38t-63.5 -35q-11 -6 -22 -11t-23 -4q-8 -2 -15 -1t-15 -1q-13 -3 -23 2.5t-16.5 15t-9 21.5t-0.5 23q-2 66 -2 132v133q2 25 -6 49q-5 11 -16 15t-22 3
q-19 -1 -30 -17t-12 -34q-2 -72 -1.5 -142.5t5.5 -142.5q-1 -26 8 -53t25.5 -48.5t40.5 -33.5t53 -8q12 0 23.5 1.5t23.5 1.5q19 5 37.5 8.5t35.5 14.5q21 11 40 25t39 26q0 -2 -0.5 -3t-0.5 -3q-1 -9 0 -20.5t5 -21t12 -15.5t20 -4q21 3 34 19q7 12 9 25.5t5 26.5z" />
    <glyph glyph-name="ucircumflex" unicode="&#xfb;" horiz-adv-x="573" 
d="M421 585q-1 14 -10.5 24.5t-20.5 17.5q-15 10 -30.5 20t-29.5 22q-8 5 -16.5 10t-18.5 6q-14 5 -28 3.5t-27 -6.5q-10 -5 -18.5 -10t-17.5 -10q-14 -11 -29 -22.5t-30 -22.5q-11 -6 -20.5 -16.5t-10.5 -24.5q-2 -19 12 -32t32 -13q10 0 18.5 5t16.5 11q15 11 29.5 22.5
t28.5 23.5q8 5 17 5q10 0 19 -2q13 -12 28 -21t29 -20q8 -5 16 -9t17 -6q18 0 32 13.5t12 31.5zM477 68q6 41 5.5 81.5t-3 81.5t-4.5 81.5t1 81.5q-1 12 0.5 24.5t-3.5 23.5t-15.5 16.5t-21.5 7.5q-10 -1 -19.5 -3.5t-15.5 -10.5q-12 -27 -11 -53q-6 -29 -5.5 -58.5t3.5 -59
l6 -59t2 -58.5q-31 -19 -61.5 -38t-60.5 -38q-11 -7 -21.5 -11.5t-22.5 -4.5q-8 0 -14.5 0.5t-14.5 -1.5q-13 -3 -23.5 2t-17 14.5t-9.5 21.5t-2 23q-1 32 -4.5 64.5t-7 64.5t-4.5 64.5t4 64.5q0 12 -0.5 24.5t-2.5 24.5q-5 11 -16 15t-22 5q-9 1 -17 -3t-14 -11t-9 -15.5
t-3 -17.5q-6 -36 -5 -71.5t4.5 -70.5t8 -70.5t5.5 -71.5q0 -26 9 -52t25.5 -46.5t39.5 -33t52 -9.5q12 0 23.5 0.5t23.5 0.5q20 -1 38 7t35 19l40 28t41 26v-6q-2 -9 -1.5 -20.5t4.5 -21.5t11.5 -16.5t20.5 -5.5q22 2 35 18q8 11 10.5 24.5t3.5 27.5z" />
    <glyph glyph-name="udieresis" unicode="&#xfc;" horiz-adv-x="562" 
d="M413 598q-1 5 -1 9t-1 9q0 10 -3 21t-8.5 20t-14 15t-20.5 7t-20.5 -4.5t-13.5 -14.5t-7 -19.5t0 -19.5q1 -5 1 -10v-9q-1 -10 1.5 -21t8.5 -20t15 -14t21 -4q22 -2 34 17t8 38zM197 599q1 5 1 9v9q1 9 -1 19.5t-7 19.5t-13 14t-20 2q-11 0 -20 -6t-15 -15t-9 -20t-2 -21
q-1 -5 -1 -9t-1 -9q-2 -10 0.5 -20.5t8 -19t14 -13.5t20.5 -3q23 2 35 22t10 41zM467 69q6 40 7.5 81t1 81.5t-1.5 81t1 81.5q-1 12 0 24t-3 23q-14 22 -39 25q-22 0 -35 -15q-6 -12 -7 -25t-3 -26q-3 -29 -2 -58t2.5 -58.5t2.5 -58.5t-2 -58q-32 -20 -62 -40.5t-61 -41.5
q-10 -6 -21.5 -8.5t-22.5 -2.5q-7 1 -14 1h-13q-26 -2 -40 19t-12 44q-9 128 -12 256q0 12 -1 24t-4 24q-7 10 -17.5 14.5t-22.5 4.5q-19 -1 -31.5 -15.5t-10.5 -32.5q2 -71 4 -141.5t11 -141.5q0 -26 10 -51.5t27 -45.5t41 -32t52 -10l45 -3q20 -2 38.5 6t33.5 19l78 57
q0 -2 -0.5 -4t-0.5 -4q-1 -10 0.5 -21.5t6 -21t12.5 -15.5t21 -4q10 -1 19 4t14 13q6 12 7.5 25t3.5 27z" />
    <glyph glyph-name="thorn" unicode="&#xfe;" horiz-adv-x="552" 
d="M474 168q0 27 -1 54.5t0 54.5q2 30 -10.5 59.5t-38.5 46.5q-36 31 -71 59q-18 14 -40 22t-45 3q-9 -3 -21 -1q-24 3 -45 -9t-38 -27q-8 -8 -16.5 -16t-17.5 -16q0 96 3 192q-2 15 -6 30q-7 6 -15.5 10t-17.5 4l-18 -8t-15 -12q-6 -13 -8 -26.5t-4 -27.5q-4 -78 -4 -156
t-10 -156q10 -89 11.5 -177.5t5.5 -177.5q1 -13 1.5 -25.5t5.5 -24.5q5 -11 15 -17t20 -10t18 0t15 9q5 13 5.5 26.5t1.5 27.5q-2 39 -1 78.5t-1 78.5l18 -16t17 -16q36 -34 83 -39q12 0 21 3q23 8 44.5 17t40.5 23q18 14 34.5 27.5t35.5 25.5q24 19 37.5 47.5t10.5 59.5z
M385 175q1 -11 -2.5 -23t-12.5 -19q-19 -17 -38.5 -32.5t-36.5 -35.5q-6 -3 -11.5 -7t-12.5 -6q-4 -1 -7.5 -2.5t-7.5 0.5q-11 1 -19 7l-16 12q-17 19 -37.5 34t-38.5 33q-8 8 -14 18t-6 22q-2 20 -3.5 41.5t1.5 41.5q5 24 21 37q18 18 37 34.5t38 33.5q15 12 34 15l10 2h1
h3q15 2 26 -5q20 -13 39.5 -27t36.5 -31q9 -9 12 -20.5t3 -23.5q-2 -25 -1.5 -49.5t2.5 -49.5z" />
    <glyph glyph-name="ydieresis" unicode="&#xff;" horiz-adv-x="558" 
d="M401 598v20q0 10 -2.5 21t-7.5 20.5t-13.5 15.5t-20.5 7q-11 2 -19.5 -2.5t-14.5 -13t-8.5 -19.5t-0.5 -20v-20q0 -10 2.5 -21t8 -20t14 -15t20.5 -5q11 -3 19.5 1.5t14 13t7.5 18.5t1 19zM189 605q0 5 0.5 9.5t0.5 9.5q1 9 -0.5 19.5t-6.5 19t-13 13.5t-20 3
q-24 -2 -36 -23t-11 -42q-1 -5 -1 -10t-1 -10q-2 -9 0.5 -19.5t8 -19t14.5 -12.5t20 -1q12 0 20.5 6.5t14 15.5t8 20t2.5 21zM475 378q-1 6 -1.5 12t-0.5 12q0 10 -3 21.5t-8.5 21t-14 15.5t-20.5 7q-22 2 -35 -14q-6 -12 -6.5 -25.5t0.5 -27.5q-1 -9 0.5 -18t1.5 -18
q-26 -63 -58.5 -123t-64.5 -121q-9 3 -20 1q-30 60 -61 118.5t-57 119.5q0 9 0.5 18t0.5 18q1 12 0.5 25t-5.5 24q-6 10 -16.5 14t-21.5 3q-22 -1 -33 -20.5t-10 -39.5q1 -6 0 -12t-1 -12q0 -9 -1 -18t0 -18q3 -9 7 -17t7 -16q23 -64 54.5 -124t61.5 -121q6 -12 16.5 -22.5
t25.5 -7.5q5 0 13 2q-15 -35 -31.5 -69t-30.5 -69q-17 -2 -33 -2q-15 0 -32 1q-8 2 -16.5 1t-16 -4.5t-11.5 -10.5t-1 -17q-1 -11 4.5 -20.5t12.5 -17.5q11 -9 24.5 -13t27.5 -4q34 -2 62 4q18 1 32.5 13t19.5 29q48 118 109 230t118 226q4 8 7 15t6 15v18t-1 18z" />
    </font>
</defs>
</svg>
